<svg viewBox="0 0 452.8 452.64" xmlns="http://www.w3.org/2000/svg"><path d="m408.55 177.51s16.57-58.46 13.83-64.35-62.64-20.16-62.64-20.16-16.12-59.28-20.2-62.64-64.34 13.79-64.34 13.79-40.87-44.42-48.82-44.15-48.81 44.15-48.81 44.15-57.78-18.69-64.35-13.83-20.22 62.68-20.22 62.68-58.6 15.14-62.64 20.2 13.83 64.35 13.83 64.35-42.13 41.9-44.13 48.77 44.15 48.81 44.15 48.81-14.35 58.4-13.83 64.35 62.62 20.2 62.62 20.2.53 2.13 1.4 5.57c3.94 15.47 15.09 57.87 18.8 57.07l64.35-13.82s3.23 3.39 8.05 8.28c12.16 12.33 34.4 34.22 40.78 35.86 4-1.23 27.81-23.86 40.65-36.23 4.87-4.69 8.17-7.91 8.17-7.91s58.16 14.05 64.34 13.82c5-.19 15.21-41.36 18.86-56.84.85-3.59 1.34-5.8 1.34-5.8s58.08-16.11 62.64-20.2-13.83-64.35-13.83-64.35 41.62-42 44.15-48.81-44.15-48.81-44.15-48.81z" fill="#fccd59"/><path d="m426.18 231.42c2.23-6-39-43.09-39-43.09s14.63-51.6 12.21-56.8-55.29-17.83-55.29-17.83-14.24-52.34-17.84-55.3-56.8 12.2-56.8 12.2-36.08-39.21-43.1-39-43.09 39-43.09 39-51-16.49-56.8-12.2-17.84 55.3-17.84 55.3-51.73 13.36-55.29 17.83 12.21 56.8 12.21 56.8-37.21 37-39 43.09 39 43.1 39 43.1-12.68 51.55-12.21 56.8 55.29 17.84 55.29 17.84 13.83 56.15 17.84 55.29l56.8-12.2s35.21 36.94 43.09 39c4.82-1.51 43.1-39 43.1-39s51.34 12.41 56.8 12.2 17.84-55.29 17.84-55.29 51.26-14.23 55.29-17.84-12.21-56.8-12.21-56.8 36.76-37.08 39-43.1z" fill="#ff8f66"/><path d="m225.87 379.06c-3.76 0-7.56-.17-11.29-.48l1.29-16c3.32.26 6.7.4 10 .42zm11.29-.39-1.17-16c3.34-.24 6.71-.62 10-1.12l2.39 15.86c-3.69.59-7.47.98-11.22 1.26zm-33.8-1.42c-3.68-.59-7.41-1.32-11.08-2.19l3.7-15.6c3.28.78 6.6 1.43 9.88 2zm56.13-1.95-3.6-15.62q4-.93 8-2.1l1.72-.53 4.8 15.3-2 .6c-2.93.88-5.9 1.66-8.92 2.35zm-78.09-3.3c-3.58-1.14-7.15-2.44-10.63-3.86l6-14.84c3.09 1.26 6.27 2.41 9.45 3.43zm99.66-3.45-5.95-14.89c3.1-1.24 6.2-2.62 9.21-4.1l7.06 14.4c-3.38 1.68-6.85 3.23-10.32 4.62zm-120.58-5.06c-3.36-1.68-6.7-3.51-9.91-5.44l8.25-13.75c2.86 1.72 5.83 3.35 8.83 4.85zm140.85-4.9-8.15-13.81c2.88-1.7 5.73-3.53 8.47-5.44l9.18 13.14c-3.07 2.18-6.27 4.23-9.5 6.14zm-160.2-6.72c-3.06-2.16-6.08-4.48-9-6.88l10.24-12.33c2.58 2.14 5.27 4.2 8 6.14zm178.71-6.21-10.15-12.41c2.58-2.11 5.12-4.36 7.55-6.67l11.07 11.59c-2.72 2.63-5.57 5.15-8.47 7.52zm-196.09-8.21c-2.7-2.61-5.33-5.36-7.81-8.16l12-10.63c2.21 2.49 4.55 4.94 7 7.27zm212.42-7.38-11.92-10.72c2.24-2.49 4.41-5.09 6.45-7.74l12.7 9.78c-2.28 3-4.71 5.92-7.23 8.71zm-227.4-9.51c-2.26-3-4.44-6.09-6.48-9.25l13.47-8.69c1.82 2.82 3.76 5.59 5.78 8.25zm241.23-8.34-13.41-8.78q2.47-3.79 4.72-7.78l.46-.83 14.06 7.69-.54 1q-2.55 4.48-5.29 8.7zm-253.47-10.6c-1.79-3.3-3.47-6.72-5-10.14l14.64-6.48c1.36 3.05 2.86 6.09 4.46 9zm264.31-9.17-14.59-6.65c1.38-3 2.67-6.17 3.82-9.31l15.05 5.5c-1.28 3.53-2.73 7.01-4.28 10.46zm-273.51-11.45c-1.26-3.53-2.4-7.16-3.39-10.78l15.46-4.22c.89 3.24 1.9 6.47 3 9.61zm281.26-9.77-15.44-4.32c.9-3.22 1.69-6.51 2.34-9.79l15.73 3.13c-.74 3.68-1.62 7.37-2.63 10.98zm-287.2-12c-.71-3.68-1.27-7.44-1.7-11.18l15.94-1.79c.37 3.33.88 6.69 1.5 10zm291.61-10.15-15.92-1.9c.4-3.31.67-6.69.82-10l16 .69c-.16 3.71-.47 7.5-.9 11.21zm-294.14-12.32c-.06-1.77-.1-3.55-.1-5.34q0-3 .12-5.95l16 .63c-.07 1.76-.1 3.54-.1 5.32 0 1.6 0 3.18.08 4.76zm279.07-9.7c-.1-3.34-.34-6.72-.7-10.05l15.93-1.72c.41 3.72.67 7.51.8 11.25zm-262.25-11-15.92-1.85c.43-3.73 1-7.49 1.73-11.16l15.73 3.06c-.63 3.28-1.15 6.63-1.54 9.95zm260.08-9c-.62-3.29-1.37-6.59-2.23-9.82l15.47-4.15c1 3.62 1.82 7.33 2.51 11zm-256.23-10.74-15.45-4.27c1-3.63 2.15-7.26 3.42-10.77l15.08 5.45c-1.13 3.13-2.16 6.35-3.05 9.59zm251-8.69c-1.12-3.17-2.37-6.32-3.72-9.36l14.66-6.49c1.51 3.42 2.92 7 4.17 10.52zm-244.17-10.22-14.62-6.59c1.55-3.43 3.24-6.83 5-10.11l14.07 7.69c-1.57 2.92-3.08 5.95-4.45 9.01zm236-8.19c-1.58-2.95-3.3-5.87-5.1-8.69l13.49-8.65c2 3.16 4 6.44 5.74 9.74zm-226.36-9.46-13.44-8.76c2-3.14 4.23-6.24 6.51-9.22l12.74 9.73c-2.04 2.69-3.99 5.49-5.81 8.25zm215.55-7.5c-2-2.64-4.15-5.27-6.38-7.82l12-10.58c2.5 2.84 4.9 5.78 7.13 8.75zm-203.33-8.48-12-10.68c2.5-2.8 5.14-5.54 7.84-8.13l11.11 11.55c-2.36 2.32-4.71 4.76-6.95 7.26zm190-6.62c-2.38-2.33-4.9-4.6-7.48-6.76l10.26-12.29c2.89 2.41 5.71 5 8.38 7.56zm-175.49-7.33-10.19-12.37c2.9-2.39 5.92-4.7 9-6.85l9.23 13.11c-2.77 1.92-5.44 3.98-8.03 6.11zm160.05-5.59c-2.74-1.95-5.57-3.81-8.4-5.52l8.29-13.72c3.19 1.92 6.36 4 9.44 6.21zm-143.58-6-8.2-13.78c3.22-1.91 6.56-3.73 9.93-5.4l7.12 14.36c-2.99 1.49-5.97 3.11-8.84 4.82zm126.37-4.4c-3-1.5-6.05-2.91-9.15-4.18l6.1-14.83c3.47 1.43 6.93 3 10.26 4.69zm-108.32-4.54-6-14.86c3.48-1.41 7.06-2.69 10.65-3.82l4.83 15.28c-3.19 1.01-6.38 2.16-9.48 3.4zm89.75-3.11c-3.2-1-6.46-2-9.69-2.72l3.69-15.59c3.62.87 7.28 1.9 10.87 3.06zm-70.54-3-3.63-15.61c3.66-.85 7.39-1.57 11.09-2.14l2.43 15.85c-3.35.56-6.65 1.2-9.91 1.95zm51-1.75c-3.29-.53-6.66-.94-10-1.21l1.32-16c3.74.31 7.51.77 11.21 1.36zm-31.09-1.29-1.21-16c3.73-.28 7.53-.42 11.28-.42h1.08l-.12 16h-1c-3.35.09-6.74.27-10.07.47z" fill="#fff"/><path d="m313.91 235.28c0-6.15-6.57-11.13-14.66-11.13h-4.76a11.14 11.14 0 0 0 0-22.27h-18.32c11.72-31.71-4.07-51.51-9.09-51.51a9.09 9.09 0 0 0 -9.09 9.09s-.64 14.92-.78 15.18c-8.73 17.05-64.72 42.74-72.06 46.72a4.68 4.68 0 0 1 -2.32.18v56.19h17a23.36 23.36 0 0 0 13.17 10.27l26 2.93c14.95.92 27.78 1.24 37.57 0 10.8-1.36 17.9-4.62 19.89-11.13a10.88 10.88 0 0 0 -10.62-11.13h6a12.67 12.67 0 0 0 4.43-.81 11.15 11.15 0 0 0 7.58-10.32c0-6.15-5.38-11.13-12-11.13h7.45c8.04 0 14.61-4.99 14.61-11.13z" fill="#fff"/><path d="m261.15 294.1c-6.16 0-13.44-.27-22.33-.82l-26.54-3a25.85 25.85 0 0 1 -13.76-10.17h-18v-61.11l2.56.23a4.82 4.82 0 0 0 1.12 0c1.1-.59 3-1.55 5.68-2.86 15.76-7.82 57.4-28.48 65.09-42.43.14-1.84.5-9.68.71-14.57a11.43 11.43 0 0 1 11.4-11.37c3.66 0 7.2 4.52 8.56 6.47 3 4.34 11.91 20 3.83 45h15a13.47 13.47 0 0 1 9.7 22.84c7 1.69 12.07 6.83 12.07 12.91 0 6.56-5.95 12-13.79 13.24a13 13 0 0 1 3.69 9 13.43 13.43 0 0 1 -9.11 12.53 16.19 16.19 0 0 1 -1.76.54 13.7 13.7 0 0 1 3.5 9.19v.35l-.11.34c-2.86 9.34-13.84 11.76-21.85 12.78a126.75 126.75 0 0 1 -15.66.91zm-47.7-8.42 25.78 2.91c17.43 1.07 28.53 1.08 37 0 10.43-1.32 16.12-4.23 17.83-9.15a8.52 8.52 0 0 0 -8.26-8.43v-4.7h6a10.61 10.61 0 0 0 3.62-.66 8.79 8.79 0 0 0 6-8.12c0-4.84-4.33-8.78-9.66-8.78v-4.71h7.45c6.78 0 12.3-3.93 12.3-8.77s-5.52-8.78-12.3-8.78h-4.76v-4.71a8.78 8.78 0 1 0 0-17.55h-21.7l1.17-3.17c8.66-23.44 1.15-38.56-1.36-42.63s-5-5.65-5.54-5.72a6.74 6.74 0 0 0 -6.71 6.74c-.68 15.53-.74 15.66-1 16.24-7 13.6-39.67 31.13-67.38 44.87-2.61 1.3-4.66 2.32-5.66 2.86a4.17 4.17 0 0 1 -1.09.39v51.56h15.95l.69 1.13a21.09 21.09 0 0 0 11.63 9.18z" fill="#a5a5a5"/><path d="m173.94 211.48h-21a8.9 8.9 0 0 0 -8.89 8.9v60.25a8.9 8.9 0 0 0 8.89 8.9h21a8.9 8.9 0 0 0 8.89-8.9v-60.25a8.9 8.9 0 0 0 -8.89-8.9z" fill="#fccd59"/><path d="m173.94 291.88h-21a11.27 11.27 0 0 1 -11.25-11.25v-60.25a11.27 11.27 0 0 1 11.25-11.25h21a11.26 11.26 0 0 1 11.24 11.25v60.25a11.26 11.26 0 0 1 -11.24 11.25zm-21-78a6.54 6.54 0 0 0 -6.54 6.54v60.25a6.54 6.54 0 0 0 6.54 6.54h21a6.55 6.55 0 0 0 6.54-6.54v-60.29a6.55 6.55 0 0 0 -6.54-6.54z" fill="#a5a5a5"/><path d="m170.45 269.58a7 7 0 1 1 -7-7 7 7 0 0 1 7 7z" fill="#fff"/></svg>