<svg viewBox="0 0 135 40" xmlns="http://www.w3.org/2000/svg"><path d="m124.25 0h-115.77a17.21 17.21 0 0 0 -2.26.19 8.36 8.36 0 0 0 -2.14.63 7 7 0 0 0 -1.83 1.18 6.43 6.43 0 0 0 -1.33 1.62 6.06 6.06 0 0 0 -.7 1.9 11.21 11.21 0 0 0 -.2 2v.92 23.12.92a11.21 11.21 0 0 0 .2 2 6.11 6.11 0 0 0 .7 1.91 6.56 6.56 0 0 0 1.33 1.61 7 7 0 0 0 1.83 1.18 8.36 8.36 0 0 0 2.14.63 17.21 17.21 0 0 0 2.26.19h118a16.94 16.94 0 0 0 2.26-.18 8.44 8.44 0 0 0 2.15-.63 7 7 0 0 0 1.86-1.19 6.79 6.79 0 0 0 1.33-1.61 6.37 6.37 0 0 0 .7-1.91 12.23 12.23 0 0 0 .21-2v-.92c0-.36 0-.73 0-1.1v-20.92c0-.37 0-.73 0-1.1v-.92a12.23 12.23 0 0 0 -.21-2 6.32 6.32 0 0 0 -.7-1.9 6.65 6.65 0 0 0 -1.33-1.62 7 7 0 0 0 -1.83-1.18 8.44 8.44 0 0 0 -2.15-.63 16.94 16.94 0 0 0 -2.26-.19z" fill="#b7b7b7"/><path d="m9.53 39.12h-1a14.61 14.61 0 0 1 -2.13-.12 7.15 7.15 0 0 1 -1.87-.55 6 6 0 0 1 -1.58-1 5.69 5.69 0 0 1 -1.15-1.45 5.31 5.31 0 0 1 -.61-1.66 11.27 11.27 0 0 1 -.19-1.88c0-.21 0-.92 0-.92v-23.1s0-.69 0-.89a11.17 11.17 0 0 1 .19-1.87 5.22 5.22 0 0 1 .61-1.68 5.35 5.35 0 0 1 1.2-1.38 5.79 5.79 0 0 1 1.58-1 7 7 0 0 1 1.86-.55 15.51 15.51 0 0 1 2.07-.18h118a15 15 0 0 1 2.09.16 7.26 7.26 0 0 1 1.89.55 6.12 6.12 0 0 1 1.57 1 5.56 5.56 0 0 1 1.14 1.4 5.45 5.45 0 0 1 .61 1.65 11.2 11.2 0 0 1 .19 1.9v.89s0 .74 0 1.1v20.92 1.08s0 .62 0 .93a10.75 10.75 0 0 1 -.19 1.85 5.37 5.37 0 0 1 -.61 1.68 5.47 5.47 0 0 1 -1.15 1.39 5.89 5.89 0 0 1 -1.57 1 7 7 0 0 1 -1.89.55 14.41 14.41 0 0 1 -2.11.16h-116.95z"/><g fill="#fff"><path d="m32.44 20.3a4.94 4.94 0 0 1 2.35-4.15 5.07 5.07 0 0 0 -4-2.16c-1.68-.18-3.3 1-4.16 1s-2.18-.99-3.63-.99a5.3 5.3 0 0 0 -4.47 2.73c-1.94 3.34-.49 8.26 1.36 11 .93 1.33 2 2.81 3.43 2.75s1.9-.88 3.58-.88 2.14.88 3.59.85 2.42-1.33 3.32-2.67a11.09 11.09 0 0 0 1.52-3.09 4.77 4.77 0 0 1 -2.89-4.39z"/><path d="m29.71 12.21a4.89 4.89 0 0 0 1.11-3.49 5 5 0 0 0 -3.21 1.66 4.61 4.61 0 0 0 -1.14 3.36 4.11 4.11 0 0 0 3.24-1.53z"/><path d="m50 27.14h-4.76l-1.14 3.36h-2l4.48-12.42h2.08l4.49 12.42h-2zm-4.24-1.55h3.75l-1.85-5.45h-.05z"/><path d="m62.83 26c0 2.81-1.51 4.62-3.78 4.62a3.08 3.08 0 0 1 -2.85-1.62v4.48h-1.9v-12h1.8v1.52a3.22 3.22 0 0 1 2.9-1.65c2.31 0 3.83 1.81 3.83 4.65zm-1.91 0c0-1.83-1-3-2.4-3s-2.37 1.23-2.37 3 .95 3 2.37 3 2.4-1.18 2.4-3z"/><path d="m72.79 26c0 2.81-1.5 4.62-3.78 4.62a3.06 3.06 0 0 1 -2.84-1.62v4.48h-1.91v-12h1.8v1.52a3.21 3.21 0 0 1 2.94-1.65c2.28 0 3.79 1.81 3.79 4.65zm-1.91 0c0-1.83-.94-3-2.39-3s-2.38 1.23-2.38 3 1 3.05 2.38 3.05 2.39-1.23 2.39-3.05z"/><path d="m79.38 27c.14 1.23 1.33 2 3 2s2.62-.73 2.62-1.84-.68-1.54-2.29-1.94l-1.61-.39c-2.28-.55-3.34-1.61-3.34-3.34 0-2.15 1.87-3.62 4.52-3.62s4.42 1.47 4.49 3.62h-1.84c-.11-1.24-1.14-2-2.63-2s-2.53.75-2.53 1.86c0 .87.66 1.39 2.26 1.79l1.37.33c2.54.6 3.6 1.63 3.6 3.44 0 2.33-1.85 3.78-4.79 3.78-2.75 0-4.61-1.42-4.73-3.66z"/><path d="m91 19.3v2.14h1.73v1.47h-1.73v5c0 .77.35 1.13 1.11 1.13a5 5 0 0 0 .61 0v1.46a5.25 5.25 0 0 1 -1 .09c-1.83 0-2.54-.69-2.54-2.45v-5.23h-1.35v-1.47h1.32v-2.14z"/><path d="m93.73 26c0-2.85 1.68-4.64 4.3-4.64s4.29 1.79 4.29 4.64-1.66 4.64-4.29 4.64-4.3-1.81-4.3-4.64zm6.7 0c0-1.95-.9-3.11-2.4-3.11s-2.4 1.11-2.4 3.11.89 3.11 2.4 3.11 2.4-1.18 2.4-3.11z"/><path d="m103.85 21.44h1.78v1.56a2.16 2.16 0 0 1 2.18-1.63 2.49 2.49 0 0 1 .63.07v1.74a2.27 2.27 0 0 0 -.83-.12 1.88 1.88 0 0 0 -1.94 2.09v5.35h-1.86z"/><path d="m117.05 27.84c-.25 1.64-1.85 2.77-3.9 2.77-2.63 0-4.26-1.77-4.26-4.6s1.64-4.68 4.19-4.68 4.08 1.72 4.08 4.47v.63h-6.4v.12a2.36 2.36 0 0 0 2.44 2.56 2.05 2.05 0 0 0 2.09-1.27zm-6.28-2.71h4.53a2.18 2.18 0 0 0 -2.22-2.29 2.29 2.29 0 0 0 -2.31 2.29z"/><path d="m45.49 8.73a2.64 2.64 0 0 1 2.81 3c0 1.9-1 3-2.81 3h-2.15v-6zm-1.22 5.12h1.12a1.87 1.87 0 0 0 2-2.14 1.88 1.88 0 0 0 -2-2.14h-1.12z"/><path d="m49.35 12.44a2.13 2.13 0 1 1 4.25 0 2.13 2.13 0 1 1 -4.25 0zm3.33 0c0-1-.44-1.54-1.21-1.54s-1.2.57-1.2 1.54.43 1.56 1.2 1.56 1.21-.58 1.21-1.56z"/><path d="m59.24 14.7h-.92l-.93-3.32h-.07l-.93 3.32h-.91l-1.24-4.51h.9l.86 3.44.93-3.44h.85l.93 3.44h.07l.8-3.44h.89z"/><path d="m61.52 10.19h.86v.72h.06a1.36 1.36 0 0 1 1.35-.8 1.46 1.46 0 0 1 1.56 1.67v2.92h-.89v-2.7c0-.73-.32-1.09-1-1.09a1 1 0 0 0 -1.08 1.14v2.65h-.89z"/><path d="m66.76 8.44h.89v6.26h-.89z"/><path d="m68.89 12.44a2.13 2.13 0 1 1 4.24 0 2.13 2.13 0 1 1 -4.24 0zm3.33 0c0-1-.44-1.54-1.21-1.54s-1.21.57-1.21 1.54.44 1.56 1.2 1.56 1.22-.58 1.22-1.56z"/><path d="m74.07 13.42c0-.81.6-1.27 1.67-1.34l1.26-.08v-.39c0-.47-.31-.74-.92-.74s-.84.18-.94.5h-.86c.09-.78.82-1.27 1.84-1.27s1.77.56 1.77 1.51v3.09h-.89v-.64h-.07a1.5 1.5 0 0 1 -1.35.71 1.36 1.36 0 0 1 -1.51-1.35zm2.93-.42v-.38l-1.1.07c-.62 0-.9.26-.9.65s.35.64.84.64a1.05 1.05 0 0 0 1.16-.98z"/><path d="m79 12.44c0-1.42.73-2.32 1.87-2.32a1.49 1.49 0 0 1 1.38.79h.06v-2.47h.89v6.26h-.85v-.7h-.05a1.56 1.56 0 0 1 -1.41.78c-1.15-.01-1.89-.91-1.89-2.34zm.91 0c0 1 .45 1.53 1.21 1.53s1.21-.58 1.21-1.52-.47-1.53-1.21-1.53-1.19.58-1.19 1.52z"/><path d="m86.9 12.44a2.13 2.13 0 1 1 4.25 0 2.13 2.13 0 1 1 -4.25 0zm3.33 0c0-1-.44-1.54-1.21-1.54s-1.2.57-1.2 1.54.43 1.56 1.18 1.56 1.23-.58 1.23-1.56z"/><path d="m92.34 10.19h.85v.72h.07a1.35 1.35 0 0 1 1.34-.8 1.46 1.46 0 0 1 1.56 1.67v2.92h-.89v-2.7c0-.73-.31-1.09-1-1.09a1 1 0 0 0 -1.07 1.14v2.65h-.89z"/><path d="m101.18 9.07v1.15h1v.78h-1v2.32c0 .47.2.68.64.68h.34v.74a3.58 3.58 0 0 1 -.48 0c-1 0-1.39-.34-1.39-1.21v-2.53h-.71v-.74h.71v-1.19z"/><path d="m103.37 8.44h.88v2.48h.07a1.39 1.39 0 0 1 1.38-.81 1.48 1.48 0 0 1 1.55 1.68v2.91h-.89v-2.7c0-.72-.34-1.08-1-1.08a1.06 1.06 0 0 0 -1.14 1.14v2.64h-.89z"/><path d="m112.43 13.48a1.82 1.82 0 0 1 -2 1.3 2 2 0 0 1 -2.08-2.32 2.07 2.07 0 0 1 2.07-2.35c1.26 0 2 .85 2 2.27v.31h-3.12v.05a1.19 1.19 0 0 0 1.2 1.26 1.08 1.08 0 0 0 1.07-.55zm-3.13-1.48h2.28a1.09 1.09 0 0 0 -1.11-1.17 1.16 1.16 0 0 0 -1.17 1.17z"/></g></svg>