<svg viewBox="0 0 478.57 494.57" xmlns="http://www.w3.org/2000/svg"><path d="m0 493.41v-311.68c0-5.12 6.69-9.27 14.94-9.27h104.06c8.25 0 14.94 4.15 14.94 9.27v311.68" fill="#f2f2f2"/><path d="m158.68 493.32v-389c0-6.39 6.69-11.57 14.94-11.57h104.09c8.25 0 14.94 5.18 14.94 11.57v389" fill="#efefef"/><path d="m321.09 494v-479.73c0-7.88 6.69-14.27 14.91-14.27h104.1c8.25 0 14.94 6.39 14.94 14.27v479.73" fill="#e8e8e8"/><path d="m45.68 231.48h44.99v261.81h-44.99z" fill="#faba9f"/><path d="m202.92 135.85h44.99v357.43h-44.99z" fill="#ff8f66"/><path d="m365.57 51.04h44.99v442.25h-44.99z" fill="#ff763f"/><path d="m306.67 251.78a86.07 86.07 0 0 0 -23.67-29.89c-.73-.59-1.47-1.13-2.2-1.68a86 86 0 1 0 8.2 130.34 87.41 87.41 0 0 0 7.18-7.79 85.67 85.67 0 0 0 5.88-8.39c1.08-1.72 2.06-3.47 3-5.24a85.6 85.6 0 0 0 6.44-15.87 84.37 84.37 0 0 0 2.28-9.74 86.25 86.25 0 0 0 -7.11-51.74zm-13.39 53.56a66.12 66.12 0 0 1 -11.39 23.56c-.38.5-.74 1-1.13 1.48a66.21 66.21 0 0 1 -105.55-79.88c.73-1 1.5-2.05 2.3-3.06a66.23 66.23 0 0 1 85.15-15.63 66.47 66.47 0 0 1 21.16 19.75 66.36 66.36 0 0 1 9.46 53.78z" fill="#636363"/><path d="m270.6 237.29a65.3 65.3 0 0 0 -7.94-5.48 66.23 66.23 0 0 0 -85.15 15.63c-.8 1-1.57 2-2.3 3.06a66.21 66.21 0 0 0 105.55 79.88c.39-.49.75-1 1.13-1.48a66.15 66.15 0 0 0 -11.29-91.61z" fill="#7f7f7f" opacity=".5"/><path d="m296.16 342.76a87.41 87.41 0 0 1 -7.18 7.79l45.45 36.51 13-16.21-45.43-36.48a85.67 85.67 0 0 1 -5.84 8.39z" fill="#636363"/><path d="m469.24 450.14c-.4-.32-.82-.6-1.24-.9-.25-.22-.48-.47-.75-.7l-46.41-37.28-53.63-43.08a14.61 14.61 0 0 0 -9.51-3.4h-.09a8.25 8.25 0 0 0 -6.28 2.88l-2.87 3.57-6.64 8.27-7.16 8.91-2.66 3.29c-3.3 4.1-1.54 11 3.93 15.39l20.11 16.15 1.59 1.28 2.8 2.25 75.57 60.69c.28.22.57.37.85.58s.74.69 1.14 1a25 25 0 1 0 31.26-38.91z" fill="#999"/><path d="m341.82 379.52-7.16 8.91-2.66 3.29c-3.3 4.1-1.54 11 3.93 15.39l20.11 16.15 1.59 1.28 2.8 2.24 75.57 60.7c.28.21.57.37.85.57s.74.7 1.14 1a25 25 0 0 0 35.09-3.82z" fill="#999"/><path d="m251.49 290.72a25.17 25.17 0 1 1 -24.93-25.41 25.16 25.16 0 0 1 24.93 25.41z" fill="#faba9f"/></svg>