<svg viewBox="0 0 460.94 495.12" xmlns="http://www.w3.org/2000/svg"><path d="m12 473.63a20.34 20.34 0 0 0 20.34 20.37h396.13a20.34 20.34 0 0 0 20.33-20.34l9.85-367.84h-456.39z" fill="#efefef"/><path d="m428.47 494.54h-396.13a20.93 20.93 0 0 1 -20.91-20.91l-9.76-368.42h457.58v.59l-9.85 367.84a20.93 20.93 0 0 1 -20.93 20.9zm-425.61-388.18 9.72 367.27a19.79 19.79 0 0 0 19.76 19.76h396.13a19.78 19.78 0 0 0 19.75-19.76l9.84-367.27z" fill="#e6e4e5"/><path d="m428.47 494.54h-396.13a20.93 20.93 0 0 1 -20.91-20.91l-9.76-368.42h457.58v.59l-9.85 367.84a20.93 20.93 0 0 1 -20.93 20.9zm-425.61-388.18 9.72 367.27a19.79 19.79 0 0 0 19.76 19.76h396.13a19.78 19.78 0 0 0 19.75-19.76l9.84-367.27z" fill="#e6e4e5"/><path d="m428.47 495.12h-396.13a21.51 21.51 0 0 1 -21.49-21.49l-9.77-369h458.76v1.19l-9.84 367.84a21.5 21.5 0 0 1 -21.53 21.46zm-396.13-1.12h396.13a20.35 20.35 0 0 0 20.33-20.33l9.85-367.85v.59l-9.85 367.23a20.36 20.36 0 0 1 -20.33 20.36zm-28.89-387 9.71 366.67a19.21 19.21 0 0 0 19.18 19.2h396.13a19.21 19.21 0 0 0 19.18-19.18l9.82-366.69zm8.55 366.62a1.93 1.93 0 0 0 0 .24 1.85 1.85 0 0 1 0-.23zm-9.74-367.83 2.56 96.41z" fill="#e6e4e5"/><path d="m12 473.63a20.34 20.34 0 0 0 20.35 20.37h198.05v-388.21h-228.12z" fill="#fff"/><path d="m440.61 0h-420.27a20.34 20.34 0 0 0 -20.34 20.34l2.26 85.45h456.39l2.29-85.45a20.34 20.34 0 0 0 -20.33-20.34z" fill="#ff8f66"/><path d="m292.89 105.79a62.42 62.42 0 1 1 -62.42-62.42 62.42 62.42 0 0 1 62.42 62.42z" fill="#808080"/><path d="m230.39 168.21a62.42 62.42 0 1 1 0-124.84z" fill="#808080"/><path d="m427.39 181.49a39.68 39.68 0 1 1 -39.68-39.68 39.67 39.67 0 0 1 39.68 39.68z" fill="#ff763f"/><path d="m115.19 181.49a39.68 39.68 0 1 1 -39.67-39.68 39.66 39.66 0 0 1 39.67 39.68z" fill="#ff763f"/><circle cx="95.71" cy="400.97" fill="#808080" r="34.29"/><circle cx="372.57" cy="400.97" fill="#808080" r="34.29"/><path d="m280.94 105.79a50.56 50.56 0 1 1 -50.55-50.55 50.55 50.55 0 0 1 50.55 50.55z" fill="#fff"/><path d="m238.8 105.79a8.33 8.33 0 1 1 -8.33-8.32 8.32 8.32 0 0 1 8.33 8.32z" fill="#22b573"/><g fill="#cdcbca"><path d="m329.61 199.44a7 7 0 0 1 -7.05 7h-184.18a7 7 0 0 1 -7-7 7 7 0 0 1 7-7.05h184.18a7 7 0 0 1 7.05 7.05z"/><path d="m379.07 254a7 7 0 0 1 -7 7h-284.07a7 7 0 0 1 -7-7 7 7 0 0 1 7-7h284.07a7 7 0 0 1 7 7z"/><path d="m379.07 289.64a7 7 0 0 1 -7 7h-284.07a7 7 0 0 1 -7-7 7 7 0 0 1 7-7h284.07a7 7 0 0 1 7 7z"/><path d="m379.49 324.32a7 7 0 0 1 -7 7h-284a7 7 0 0 1 -7-7 7 7 0 0 1 7-7h284.01a7 7 0 0 1 7 7z"/><path d="m329.61 366.68c0 3.86-2.08 7-4.65 7h-188.96c-2.57 0-4.65-3.13-4.65-7 0-3.86 2.08-7 4.65-7h189c2.57 0 4.65 3.14 4.65 7z"/></g><path d="m234.13 105.79a3.75 3.75 0 1 1 -3.74-3.74 3.74 3.74 0 0 1 3.74 3.74z" fill="#ff7857"/><path d="m225.22 95.93 3.16-28.48a1.92 1.92 0 0 1 3.82 0l3.34 28.46a5.19 5.19 0 1 1 -10.32 0z" fill="#22b573"/></svg>