<svg viewBox="0 0 492.54 492.58" xmlns="http://www.w3.org/2000/svg"><path d="m259.78 62.68a145.87 145.87 0 1 0 29.78 116.87 145.27 145.27 0 0 0 -29.78-116.87z" fill="#ff763f"/><path d="m250.5 70.11a134 134 0 1 0 27.36 107.35 133.43 133.43 0 0 0 -27.36-107.35z" fill="#fccd59"/><path d="m241.4 95.67q.94 1.53 1.89 3.12c11.13 18.91 15.82 36.79 10.48 39.93 0 0-20 2.64-41.71 5.31-25.68 3.15-53.9 6.37-55 5.47-2-1.66 56.32-79.23 56.4-79.28 5.05-2.96 17.22 8.27 27.94 25.45zm-78-51.39c21.77 2.81 38.76 10.07 38 16.22 0 .09-48.49 84.17-50.81 83s-28-93.09-28-93.18c.77-6.17 19.05-8.86 40.82-6.04zm-92.34 33.53c15.59-15.45 31.76-24.4 36.12-20 .07.07 36.64 90 34.28 91.06s-90.67-35.06-90.74-35.13c-4.35-4.4 4.75-20.49 20.34-35.93zm-30.46 85.43c-1.71-21.88 1.92-40 8.09-40.49.1 0 88.11 31.41 89.19 33.78s-82.88 45.47-83.02 45.47c-6.17.47-12.56-16.88-14.26-38.76zm49.24 86.19c-18.84-11.33-31.44-24.82-28.24-30.12l.54-.39c6.8-5 76.92-55.63 79.35-55.15 1.08.21-.84 17.38-3.44 37.17-3.55 27.19-8.36 59.35-8.39 59.41-3.2 5.3-21.03.41-39.82-10.92zm98.35 8.7c-20.42 8-38.82 9.84-41.08 4.08 0-.06.75-38.18 2-66.66.73-17 1.61-30.51 2.58-30.54s8.77 7.44 18.95 17.43c20.57 20.18 50.46 50.68 50.49 50.74 2.22 5.76-12.5 16.93-32.94 24.95zm42.29-34.65c-.06 0-31.51-26.92-53-46-11.16-9.92-19.63-17.74-19.67-18.62 0-1.28 23.29-4 47.05-6.42 24.56-2.51 49.56-4.71 49.61-4.69 5.9 1.87 5.33 20.34-1.29 41.27s-16.8 36.33-22.7 34.46z" fill="#f7931e"/><path d="m153.77 155.48a5.42 5.42 0 1 1 -4.38-6.29 5.4 5.4 0 0 1 4.38 6.29z" fill="#ffc259"/><g fill="#fff"><path d="m159.14 51.82a2 2 0 1 1 -1.6-2.15 1.91 1.91 0 0 1 1.6 2.15z"/><path d="m140.08 50.28a2 2 0 1 1 -1.6-2.16 1.89 1.89 0 0 1 1.6 2.16z"/><path d="m162.5 72.26a2 2 0 1 1 -1.59-2.15 1.9 1.9 0 0 1 1.59 2.15z"/><path d="m165.79 84.58a2 2 0 1 1 -1.59-2.16 1.9 1.9 0 0 1 1.59 2.16z"/><path d="m151.75 82.06a2 2 0 1 1 -1.6-2.15 1.91 1.91 0 0 1 1.6 2.15z"/><path d="m151.37 62a2 2 0 1 1 -1.6-2.15 1.91 1.91 0 0 1 1.6 2.15z"/><path d="m142 70.46a2 2 0 1 1 -1.59-2.15 1.89 1.89 0 0 1 1.59 2.15z"/><path d="m176.77 54a2 2 0 1 1 -1.6-2.15 1.91 1.91 0 0 1 1.6 2.15z"/><ellipse cx="184.39" cy="72.44" rx="1.84" ry="1.95" transform="matrix(.176054 -.98438051 .98438051 .176054 80.62 241.2)"/><path d="m176.06 63.17a2 2 0 1 1 -1.6-2.16 1.9 1.9 0 0 1 1.6 2.16z"/><path d="m143 86.81a2 2 0 1 1 -1.6-2.15 1.9 1.9 0 0 1 1.6 2.15z"/><path d="m161.52 97.4a2 2 0 1 1 -1.6-2.15 1.9 1.9 0 0 1 1.6 2.15z"/><path d="m148.33 101.19a2 2 0 1 1 -1.6-2.15 1.91 1.91 0 0 1 1.6 2.15z"/><path d="m168.37 106.64a2 2 0 1 1 -1.6-2.15 1.91 1.91 0 0 1 1.6 2.15z"/><path d="m157.29 110a2 2 0 1 1 -1.6-2.15 1.9 1.9 0 0 1 1.6 2.15z"/><path d="m149.63 116.07a2 2 0 1 1 -1.6-2.15 1.9 1.9 0 0 1 1.6 2.15z"/><path d="m162.93 120.32a2 2 0 1 1 -1.6-2.15 1.91 1.91 0 0 1 1.6 2.15z"/><path d="m153.92 128.8a2 2 0 1 1 -1.59-2.15 1.89 1.89 0 0 1 1.59 2.15z"/><path d="m173.6 99.56a2 2 0 1 1 -1.6-2.15 1.9 1.9 0 0 1 1.6 2.15z"/><path d="m179.65 87.88a2 2 0 1 1 -1.6-2.15 1.9 1.9 0 0 1 1.6 2.15z"/><path d="m175.34 78.29a2 2 0 1 1 -1.6-2.15 1.91 1.91 0 0 1 1.6 2.15z"/><path d="m194.42 60a2 2 0 1 1 -1.59-2.15 1.9 1.9 0 0 1 1.59 2.15z"/><path d="m72.35 88.78a2 2 0 1 1 -2.67.07 1.9 1.9 0 0 1 2.67-.07z"/><path d="m60.85 106.58a2 2 0 1 1 -2.68.07 1.9 1.9 0 0 1 2.68-.07z"/><path d="m91 97.77a2 2 0 1 1 -2.67.07 1.9 1.9 0 0 1 2.67-.07z"/><path d="m103 102.15a2 2 0 0 1 -2.77 2.74 1.89 1.89 0 0 1 .08-2.67 1.91 1.91 0 0 1 2.69-.07z"/><path d="m92.87 112.2a2 2 0 1 1 -2.68.07 1.89 1.89 0 0 1 2.68-.07z"/><path d="m76.24 101a1.95 1.95 0 1 1 -2.67.06 1.89 1.89 0 0 1 2.67-.06z"/><path d="m77.76 113.54a2 2 0 1 1 -2.68.07 1.91 1.91 0 0 1 2.68-.07z"/><path d="m84.26 75.61a2 2 0 0 1 -2.76 2.75 2 2 0 0 1 2.76-2.75z"/><path d="m105.13 78.58a2 2 0 1 1 -2.68.07 1.91 1.91 0 0 1 2.68-.07z"/><path d="m91.36 81.45a2 2 0 1 1 -2.67.07 1.9 1.9 0 0 1 2.67-.07z"/><path d="m91.74 122.09a2 2 0 1 1 -2.68.07 1.89 1.89 0 0 1 2.68-.07z"/><path d="m111 113a2 2 0 1 1 -2.68.07 1.9 1.9 0 0 1 2.68-.07z"/><path d="m106.57 126a2 2 0 1 1 -2.68.07 1.9 1.9 0 0 1 2.68-.07z"/><path d="m122.54 112.71a2 2 0 1 1 -2.68.07 1.89 1.89 0 0 1 2.68-.07z"/><path d="m118.9 123.68a2 2 0 0 1 -2.77 2.75 1.88 1.88 0 0 1 .09-2.67 1.91 1.91 0 0 1 2.68-.08z"/><path d="m119.5 133.47a2 2 0 1 1 -2.68.07 1.89 1.89 0 0 1 2.68-.07z"/><path d="m130.61 125a2 2 0 1 1 -2.68.07 1.91 1.91 0 0 1 2.68-.07z"/><path d="m132.38 137.26a2 2 0 1 1 -2.67.08 1.9 1.9 0 0 1 2.67-.08z"/><path d="m119.75 104.36a2 2 0 0 1 -2.77 2.75 1.89 1.89 0 0 1 .08-2.67 1.91 1.91 0 0 1 2.69-.08z"/><path d="m113.65 92.7a2 2 0 1 1 -2.68.07 1.89 1.89 0 0 1 2.68-.07z"/><path d="m103.33 90.73a2 2 0 1 1 -2.68.07 1.89 1.89 0 0 1 2.68-.07z"/><path d="m99.31 64.59a2 2 0 1 1 -2.67.08 1.88 1.88 0 0 1 2.67-.08z"/><path d="m48.4 170a2 2 0 1 1 -1.7 2.07 1.89 1.89 0 0 1 1.7-2.07z"/><path d="m54.34 190.35a2 2 0 1 1 -1.7 2.07 1.91 1.91 0 0 1 1.7-2.07z"/><path d="m67.4 161.76a2 2 0 1 1 -1.7 2.07 1.89 1.89 0 0 1 1.7-2.07z"/><path d="m78.54 155.56a2 2 0 1 1 -1.7 2.07 1.9 1.9 0 0 1 1.7-2.07z"/><path d="m79.53 169.8a2 2 0 1 1 -1.7 2.07 1.9 1.9 0 0 1 1.7-2.07z"/><path d="m60.18 175.06a2 2 0 0 1 .27 3.89 2 2 0 0 1 -.27-3.89z"/><path d="m70.66 182.11a2 2 0 1 1 -1.7 2.07 1.89 1.89 0 0 1 1.7-2.07z"/><path d="m46.21 152.38a2 2 0 1 1 -1.7 2.07 1.91 1.91 0 0 1 1.7-2.07z"/><path d="m62.1 138.54a2 2 0 1 1 -1.7 2.08 1.91 1.91 0 0 1 1.7-2.08z"/><path d="m55.27 150.83a2 2 0 1 1 -1.7 2.07 1.89 1.89 0 0 1 1.7-2.07z"/><path d="m86.27 177.11a2 2 0 1 1 -1.7 2.07 1.89 1.89 0 0 1 1.7-2.07z"/><path d="m92 156.58a2 2 0 1 1 -1.7 2.07 1.9 1.9 0 0 1 1.7-2.07z"/><path d="m98.92 168.45a2 2 0 1 1 -1.7 2.07 1.9 1.9 0 0 1 1.7-2.07z"/><path d="m99.31 147.68a2 2 0 1 1 -1.7 2.07 1.89 1.89 0 0 1 1.7-2.07z"/><path d="m105.23 157.61a2 2 0 1 1 -1.7 2.08 1.9 1.9 0 0 1 1.7-2.08z"/><path d="m113 163.55a2 2 0 1 1 -1.7 2.07 1.9 1.9 0 0 1 1.7-2.07z"/><path d="m113.9 149.62a2 2 0 1 1 -1.7 2.07 1.9 1.9 0 0 1 1.7-2.07z"/><path d="m124.32 156.28a2 2 0 1 1 -1.69 2.08 1.89 1.89 0 0 1 1.69-2.08z"/><path d="m91.17 144.34a2 2 0 1 1 -1.71 2.07 1.89 1.89 0 0 1 1.71-2.07z"/><path d="m78.36 141.32a2 2 0 1 1 -1.7 2.07 1.9 1.9 0 0 1 1.7-2.07z"/><path d="m70.12 147.84a2 2 0 0 1 .27 3.89 2 2 0 0 1 -.27-3.89z"/><path d="m47.71 133.8a2 2 0 1 1 -1.71 2.07 1.89 1.89 0 0 1 1.71-2.07z"/><path d="m237 187.48a2 2 0 1 1 2.17-1.58 1.92 1.92 0 0 1 -2.17 1.58z"/><path d="m246.81 183.7a1.95 1.95 0 1 1 2.43-1.1 1.89 1.89 0 0 1 -2.43 1.1z"/><path d="m250.46 162.83a2 2 0 1 1 2.44-1.11 1.89 1.89 0 0 1 -2.44 1.11z"/><path d="m240.31 156.27a2 2 0 1 1 2.44-1.11 1.89 1.89 0 0 1 -2.44 1.11z"/><path d="m131.86 62.34a2 2 0 1 1 2.45-1.11 1.91 1.91 0 0 1 -2.45 1.11z"/><path d="m230.81 100.75a2 2 0 1 1 .7-2.59 1.9 1.9 0 0 1 -.7 2.59z"/><path d="m220.21 84.83a1.95 1.95 0 1 1 .7-2.58 1.89 1.89 0 0 1 -.7 2.58z"/><path d="m216.85 116.06a2 2 0 1 1 .7-2.59 1.89 1.89 0 0 1 -.7 2.59z"/><path d="m209.22 126.27a2 2 0 1 1 .7-2.59 1.89 1.89 0 0 1 -.7 2.59z"/><path d="m202.49 113.69a2 2 0 1 1 .7-2.59 1.89 1.89 0 0 1 -.7 2.59z"/><path d="m218 101a2 2 0 1 1 .7-2.59 1.89 1.89 0 0 1 -.7 2.59z"/><path d="m205.54 98.82a2 2 0 1 1 .7-2.58 1.9 1.9 0 0 1 -.7 2.58z"/><path d="m240 115.94a2 2 0 1 1 .7-2.59 1.91 1.91 0 0 1 -.7 2.59z"/><path d="m231.19 135.07a2 2 0 1 1 .7-2.59 1.91 1.91 0 0 1 -.7 2.59z"/><path d="m232.39 121.06a2 2 0 1 1 .7-2.58 1.9 1.9 0 0 1 -.7 2.58z"/><path d="m193.34 109.77a1.95 1.95 0 1 1 .71-2.58 1.9 1.9 0 0 1 -.71 2.58z"/><path d="m196.51 130.86a2 2 0 1 1 .7-2.59 1.91 1.91 0 0 1 -.7 2.59z"/><path d="m185.35 122.86a2 2 0 1 1 .7-2.59 1.91 1.91 0 0 1 -.7 2.59z"/><path d="m193.49 142a2 2 0 1 1 .7-2.58 1.9 1.9 0 0 1 -.7 2.58z"/><path d="m184 135.32a1.95 1.95 0 1 1 .7-2.58 1.88 1.88 0 0 1 -.7 2.58z"/><path d="m174.48 133.1a2 2 0 1 1 .7-2.59 1.9 1.9 0 0 1 -.7 2.59z"/><path d="m179.39 146.16a2 2 0 1 1 .7-2.58 1.89 1.89 0 0 1 -.7 2.58z"/><path d="m167.15 144.35a1.95 1.95 0 1 1 .7-2.58 1.9 1.9 0 0 1 -.7 2.58z"/><path d="m202.29 141.68a2 2 0 1 1 .7-2.59 1.9 1.9 0 0 1 -.7 2.59z"/><path d="m215.21 139.19a2 2 0 1 1 .7-2.59 1.9 1.9 0 0 1 -.7 2.59z"/><path d="m220.06 129.87a2 2 0 1 1 .7-2.59 1.9 1.9 0 0 1 -.7 2.59z"/><path d="m246.25 133.51a2 2 0 1 1 .7-2.59 1.9 1.9 0 0 1 -.7 2.59z"/><path d="m205.66 85.86a1.95 1.95 0 1 1 2.34 1.23 1.89 1.89 0 0 1 -2.34-1.23z"/><path d="m226.11 182.71a2 2 0 1 1 2.44-1.11 1.9 1.9 0 0 1 -2.44 1.11z"/><path d="m213.38 183.34a2 2 0 1 1 2.44-1.11 1.89 1.89 0 0 1 -2.44 1.11z"/><path d="m218.78 170.13a1.95 1.95 0 1 1 2.44-1.1 1.89 1.89 0 0 1 -2.44 1.1z"/><path d="m238.46 174a2 2 0 1 1 2.45-1.11 1.9 1.9 0 0 1 -2.45 1.11z"/><path d="m232.18 163a2 2 0 1 1 2.44-1.11 1.89 1.89 0 0 1 -2.44 1.11z"/><path d="m241 200.48a2 2 0 1 1 2.44-1.11 1.9 1.9 0 0 1 -2.44 1.11z"/><path d="m220.61 205.87a1.89 1.89 0 0 1 -1-2.5 1.84 1.84 0 1 1 3.4 1.39 1.88 1.88 0 0 1 -2.4 1.11z"/><path d="m232.16 197.87a2 2 0 1 1 2.44-1.11 1.89 1.89 0 0 1 -2.44 1.11z"/><path d="m216 160.59a2 2 0 1 1 2.44-1.11 1.89 1.89 0 0 1 -2.44 1.11z"/><path d="m201.74 176.47a2 2 0 1 1 2.44-1.11 1.9 1.9 0 0 1 -2.44 1.11z"/><path d="m200.8 162.78a2 2 0 1 1 2.44-1.11 1.91 1.91 0 0 1 -2.44 1.11z"/><path d="m191.26 181.23a2 2 0 1 1 2.44-1.11 1.89 1.89 0 0 1 -2.44 1.11z"/><path d="m190.34 169.7a2 2 0 1 1 2.44-1.1 1.89 1.89 0 0 1 -2.44 1.1z"/><path d="m186 160.93a2 2 0 1 1 2.44-1.11 1.89 1.89 0 0 1 -2.44 1.11z"/><path d="m179 173a2 2 0 1 1 2.43-1.11 1.91 1.91 0 0 1 -2.43 1.11z"/><path d="m172.63 162.46a2 2 0 1 1 2.44-1.11 1.9 1.9 0 0 1 -2.44 1.11z"/><path d="m197.09 187.83a2 2 0 1 1 2.45-1.11 1.9 1.9 0 0 1 -2.45 1.11z"/><path d="m207.25 196.2a2 2 0 0 1 1.48-3.62 2 2 0 0 1 -1.48 3.62z"/><path d="m217.52 194a2 2 0 1 1 2.44-1.11 1.9 1.9 0 0 1 -2.44 1.11z"/><path d="m231.41 216.49a2 2 0 1 1 2.44-1.11 1.89 1.89 0 0 1 -2.44 1.11z"/><path d="m189.63 247.6a2 2 0 1 1 2.47 1 1.9 1.9 0 0 1 -2.47-1z"/><path d="m207.42 236.09a2 2 0 1 1 2.47 1 1.91 1.91 0 0 1 -2.47-1z"/><path d="m176.29 231.74a2 2 0 1 1 2.48 1 1.91 1.91 0 0 1 -2.48-1z"/><path d="m167.18 222.83a2 2 0 1 1 2.47 1 1.9 1.9 0 0 1 -2.47-1z"/><path d="m180.54 217.82a2 2 0 1 1 2.47 1 1.9 1.9 0 0 1 -2.47-1z"/><path d="m191.1 234.86a2 2 0 1 1 2.47 1 1.9 1.9 0 0 1 -2.47-1z"/><path d="m194.87 222.8a2 2 0 1 1 2.47 1 1.89 1.89 0 0 1 -2.47-1z"/><path d="m173.36 254.72a2 2 0 1 1 2.47 1 1.89 1.89 0 0 1 -2.47-1z"/><path d="m155.56 243.45a2 2 0 1 1 2.47 1 1.9 1.9 0 0 1 -2.47-1z"/><path d="m169.28 246.48a2 2 0 1 1 2.48 1 1.89 1.89 0 0 1 -2.48-1z"/><path d="m185.62 209.27a1.88 1.88 0 0 1 1.18-2.4 1.84 1.84 0 1 1 -1.18 2.4z"/><path d="m164.31 209.62a1.95 1.95 0 1 1 2.46 1 1.89 1.89 0 0 1 -2.46-1z"/><path d="m173.71 199.63a2 2 0 1 1 2.47 1 1.89 1.89 0 0 1 -2.47-1z"/><path d="m153.69 205.18a2 2 0 1 1 2.48 1 1.89 1.89 0 0 1 -2.48-1z"/><path d="m161.52 196.66a2 2 0 1 1 2.47 1 1.89 1.89 0 0 1 -2.47-1z"/><path d="m165 187.5a2 2 0 1 1 2.46 1 1.88 1.88 0 0 1 -2.46-1z"/><path d="m151.39 190.64a2 2 0 1 1 2.47 1 1.9 1.9 0 0 1 -2.47-1z"/><path d="m154.79 178.75a2 2 0 1 1 2.48 1 1.9 1.9 0 0 1 -2.48-1z"/><path d="m152.81 213.93a2 2 0 1 1 2.48 1 1.9 1.9 0 0 1 -2.48-1z"/><path d="m153.58 227.07a2 2 0 1 1 2.47 1 1.89 1.89 0 0 1 -2.47-1z"/><path d="m162.19 233.11a2 2 0 1 1 2.47 1 1.9 1.9 0 0 1 -2.47-1z"/><path d="m155.12 258.59a2 2 0 1 1 2.47 1 1.9 1.9 0 0 1 -2.47-1z"/><path d="m101.63 246a2 2 0 1 1 .72 2.58 1.89 1.89 0 0 1 -.72-2.58z"/><path d="m121.69 252.87a2 2 0 1 1 .72 2.58 1.89 1.89 0 0 1 -.72-2.58z"/><path d="m105.8 225.75a2 2 0 1 1 .72 2.58 1.9 1.9 0 0 1 -.72-2.58z"/><path d="m107.14 213.07a2 2 0 0 1 3.34 2 2 2 0 0 1 -3.34-2z"/><path d="m119.35 220.45a2 2 0 1 1 .72 2.58 1.89 1.89 0 0 1 -.72-2.58z"/><path d="m112.53 239.3a2 2 0 1 1 .72 2.58 1.9 1.9 0 0 1 -.72-2.58z"/><path d="m124.33 234.78a2 2 0 1 1 .72 2.58 1.9 1.9 0 0 1 -.72-2.58z"/><path d="m86 237.7a2 2 0 1 1 .71 2.58 1.9 1.9 0 0 1 -.71-2.58z"/><path d="m83.76 216.74a2 2 0 1 1 .72 2.58 1.9 1.9 0 0 1 -.72-2.58z"/><path d="m89.89 229.39a2 2 0 1 1 .72 2.58 1.9 1.9 0 0 1 -.72-2.58z"/><path d="m129.21 219.13a2 2 0 1 1 .72 2.58 1.9 1.9 0 0 1 -.72-2.58z"/><path d="m115.72 202.63a2 2 0 0 1 3.34 2 1.9 1.9 0 0 1 -2.62.57 1.88 1.88 0 0 1 -.72-2.57z"/><path d="m129.39 203.8a2 2 0 0 1 3.34 2 2 2 0 0 1 -3.34-2z"/><path d="m112.63 191.54a2 2 0 1 1 .72 2.58 1.89 1.89 0 0 1 -.72-2.58z"/><path d="m124.16 192.41a2 2 0 1 1 .72 2.58 1.9 1.9 0 0 1 -.72-2.58z"/><path d="m133.5 189.44a2 2 0 1 1 .72 2.58 1.9 1.9 0 0 1 -.72-2.58z"/><path d="m122.61 180.72a2 2 0 1 1 .72 2.58 1.88 1.88 0 0 1 -.72-2.58z"/><path d="m134 176a1.91 1.91 0 0 1 2.63-.56 1.84 1.84 0 1 1 -2.63.56z"/><path d="m105.21 196.29a2 2 0 1 1 .72 2.58 1.9 1.9 0 0 1 -.72-2.58z"/><path d="m95.38 205a2 2 0 1 1 .72 2.58 1.9 1.9 0 0 1 -.72-2.58z"/><path d="m96 215.53a1.88 1.88 0 0 1 2.61-.57 1.84 1.84 0 1 1 -2.61.57z"/><path d="m71.6 225.78a2 2 0 1 1 .72 2.58 1.89 1.89 0 0 1 -.72-2.58z"/></g><path d="m474.89 207.14c-3.28 70.31-30.07 206.07-165.59 171.08-138.91-11.57-113.09-147-98.4-217.32 13.89-66.68 80.69-77.69 115.64-53.42 14.19 9.85 23.13 25.58 30.78 26.7 7.48 1.08 12.65-3 21.7-5.32 36.98-9.3 98.98 12.86 95.87 78.28z" fill="#c1272d"/><path d="m309.3 378.22c-138.91-11.57-113.09-147-98.4-217.32 13.89-66.68 80.69-77.69 115.64-53.42 14.19 9.85 23.13 25.58 30.78 26.7z" fill="#c1272d"/><path d="m330 9.41c15.5 10.18 32.16 56.52 31.24 60.68s-52.59 5.6-68.09-4.58-36-58.56-34.84-63 56.25-3.28 71.69 6.9z" fill="#006837"/><path d="m330 9.41c15.5 10.18 32.16 56.52 31.24 60.68s-104.08-63.09-102.89-67.62 56.21-3.24 71.65 6.94z" fill="#22b573"/><path d="m289.63 177.39c-22.73 8.19-34.32 36.63-40.2 48.07-2.22 4.32-5.54.68-5.54.68s-3.2-40.95.39-61 24.06-33.24 45.71-29.37 18.83 34.7-.36 41.62z" fill="#ed1c24"/><path d="m422 29.21a12.87 12.87 0 0 0 -23.29-9.55 49.63 49.63 0 0 0 -6 3.34c-1.39.94-2.9 1.89-4.41 3l-4.53 3.78c-1.48 1.42-2.94 3-4.46 4.54s-2.79 3.42-4.2 5.23a80 80 0 0 0 -7.11 12.15 94.09 94.09 0 0 0 -5.13 13.5 129.57 129.57 0 0 0 -3.37 14c-3.5 18.75-3.63 37.21-5.2 50.13a63.1 63.1 0 0 1 -1.48 8.3c-.63 2.16.48 10.43.48 10.43l4.22.79s4.16-4.77 5.43-7.79a73.41 73.41 0 0 0 2.77-9.72c3.05-13.85 5-31.76 9.85-48.34a117.59 117.59 0 0 1 4.14-11.92 76.84 76.84 0 0 1 5.29-10.47 60 60 0 0 1 6.1-8.45l3.27-3.3 3.27-2.72 3.2-2.15c1.06-.62 2.11-1.11 3.06-1.63 1.92-1 3.39-1.36 4.64-2l2.29-.67a12.85 12.85 0 0 0 11.17-10.48z" fill="#636363"/><path d="m318.81 379.35c-.41 2.31-4.88 3.45-10 2.54s-8.88-3.53-8.47-5.84 4.88-3.46 10-2.54 8.89 3.49 8.47 5.84z" fill="#3b4957"/><path d="m120.77 337.86c.06.09.1.19.15.28.15-.24.32-.47.46-.71z"/><path d="m133.59 314.66c.26-.06.52-.09.78-.16-.27-.24-.78-.14-.78.16z"/><path d="m121.38 337.43c-.13.09-1.27 1.81-2.48 3.45h.09c.69-.9 1.34-1.82 1.93-2.77a26.64 26.64 0 0 1 1.84 4c20.4 6.57 41.57 13.89 46.13 15a38.54 38.54 0 0 1 2.11-7.21c-11.11-9.91-24.4-22-38.79-35.2-10.9.66-6.98 16.21-10.83 22.73z" fill="none"/><path d="m117.89 342.19c.37-.43.76-.84 1.1-1.28h-.09c-.34.43-.68.87-1.01 1.28z"/><path d="m204 283.94a28.08 28.08 0 0 1 -3.05.64 29 29 0 0 1 -14.7-1.09c4.68 19.33 9.59 37.59 10.52 40.42-4.23 1-4.38 2.06-6.63 3.57-9.1-8.13-20.47-18.4-33.94-30.74-.76 0-1.41.14-1.61.55-1.36 2.64-2.44 6.18-4.61 8.43-4.39 4.58-16.38 8.64-16.38 8.94a11.75 11.75 0 0 0 -1.35 0c14.38 13.26 27.67 25.34 38.75 35.24a38.54 38.54 0 0 0 -2.14 7.25c-4.56-1.14-25.73-8.46-46.13-15a26.72 26.72 0 0 1 1.75 9.21 25.69 25.69 0 0 1 -.08 3.27 26.66 26.66 0 0 1 -8.37 16.55c23.24 7.61 50 16.62 58.81 17.6 1.69 2.5 46.19 44.39 46.19 44.39 24.27 29.45 43.61 14 59.95-3.61s29.83-32.09-.78-60.06c0 0-45.6-42.08-47.72-43.39-1.11-6.61-9-28.85-15.73-49.82a27.54 27.54 0 0 1 -12.75 7.65z" fill="#39b54a"/><path d="m148.49 307c-4.74 4-14.9 7.33-14.91 7.62-.49 0-.91 0-1.36 0 14.4 13.22 27.7 25.28 38.81 35.2a37.84 37.84 0 0 0 -2.15 7.25c-4.56-1.14-25.73-8.46-46.12-15a26.9 26.9 0 0 1 1.75 9.2 27.53 27.53 0 0 1 -.09 3.27 26.68 26.68 0 0 1 -8.37 16.56c23.24 7.61 50 16.62 58.82 17.6 1.68 2.49 46.18 44.38 46.18 44.38 24.27 29.45 43.32 14.3 59.66-3.29z" fill="#39b54a"/><path d="m119 340.91 3.77 1.21a26.64 26.64 0 0 0 -1.84-4c-.6.97-1.25 1.88-1.93 2.79z" fill="#80cf99"/><path d="m119 340.91c-.34.44-.73.85-1.1 1.28s-.63.78-.9 1.06a31 31 0 0 1 -5.31 4.4 31.3 31.3 0 0 1 -6.51 3.28c-.83.3-1.67.5-2.51.72a31.17 31.17 0 0 1 -38.8-36.75 31.68 31.68 0 0 1 -9.17-6.11 32.91 32.91 0 0 1 -3.23-3.7 26.54 26.54 0 0 0 -3.56 10.59v.46a26.77 26.77 0 0 0 -7.63 51.76 26.75 26.75 0 0 0 30.42 37.76 26.77 26.77 0 1 0 47-25.5 27.3 27.3 0 0 0 -5.19-6.15 28.15 28.15 0 0 0 3.59-2.86 26.66 26.66 0 0 0 8.37-16.55 25.69 25.69 0 0 0 .08-3.27 26.72 26.72 0 0 0 -1.75-9.21z" fill="#009245"/><path d="m212.49 195.24c-.16 0-.3.1-.45.14a27.8 27.8 0 0 0 -52.91 12.3 27.83 27.83 0 0 0 -9.42.83 28.92 28.92 0 0 0 -4.41 1.62 31.9 31.9 0 0 1 5.65 4.29 31.4 31.4 0 0 1 7.35 11 31.25 31.25 0 0 1 26.54 52.24c-.17.19-.32.39-.5.58a31.69 31.69 0 0 1 -2.49 2.3c1.3.83 3 2.45 4.39 3a29 29 0 0 0 14.7 1.09 28.08 28.08 0 0 0 3.05-.64 27.54 27.54 0 0 0 12.79-7.68 26.11 26.11 0 0 0 2-2.21 27.76 27.76 0 0 0 12.3 5.24 27.26 27.26 0 0 0 11.68-.54 27.82 27.82 0 0 0 4.4-52.15 27.79 27.79 0 0 0 -34.66-31.36z" fill="#009245"/><path d="m158.3 225.39a31.4 31.4 0 0 0 -7.35-11 31.9 31.9 0 0 0 -5.65-4.29 31.29 31.29 0 0 0 -38.62 5.13c-.13.13-.23.28-.36.41a31.27 31.27 0 0 0 -43.85 42.56 31.2 31.2 0 0 0 -11 46.86 32.91 32.91 0 0 0 3.23 3.7 31.68 31.68 0 0 0 9.17 6.11 31.17 31.17 0 0 0 38.79 36.75c.84-.22 1.68-.42 2.51-.72a31.3 31.3 0 0 0 6.51-3.28 31 31 0 0 0 5.31-4.4c.32-.34.6-.71.9-1.06s.67-.85 1-1.31c1.21-1.64 2.35-3.36 2.48-3.45 3.85-6.52-.07-22.07 10.86-22.73a11.75 11.75 0 0 1 1.35 0c0-.3 12-4.36 16.38-8.94 2.17-2.25 3.25-5.79 4.61-8.43.2-.41.85-.56 1.61-.55 8.56 2.51 18.83-4.8 22.16-12.06.36-.76 0-4.28 3.5-4.17a31.69 31.69 0 0 0 2.49-2.3c.18-.19.33-.39.5-.58a31.28 31.28 0 0 0 -26.54-52.24z" fill="#009245"/><path d="m117.89 342.19c-.3.35-.58.72-.9 1.06.27-.25.58-.65.9-1.06z" fill="#8ad6a3"/><path d="m78.8 260.84c2 1.82 1.49 5.52-1.06 8.26s-6.2 3.49-8.16 1.67-1.48-5.52 1.06-8.26 6.21-3.51 8.16-1.67z" fill="#fff" opacity=".3"/><path d="m80 225.84c2 1.82 1.48 5.52-1.07 8.26s-6.2 3.49-8.16 1.67-1.48-5.52 1.07-8.26 6.23-3.51 8.16-1.67z" fill="#fff" opacity=".3"/><path d="m103.79 257.18c1.95 1.81 1.48 5.52-1.07 8.25s-6.2 3.49-8.16 1.68-1.49-5.52 1.07-8.27 6.2-3.49 8.16-1.66z" fill="#fff" opacity=".3"/><path d="m116.45 241.18c2 1.83 1.47 5.53-1.07 8.26s-6.2 3.49-8.16 1.67-1.48-5.52 1.07-8.26 6.2-3.49 8.16-1.67z" fill="#fff" opacity=".3"/><path d="m89.82 274.6c2 1.82 1.48 5.52-1.07 8.26s-6.21 3.49-8.16 1.67-1.48-5.52 1.07-8.26 6.2-3.49 8.16-1.67z" fill="#fff" opacity=".3"/><path d="m94.15 293.61c2 1.82 1.49 5.52-1.07 8.26s-6.2 3.5-8.16 1.67-1.48-5.54 1.08-8.26 6.2-3.49 8.15-1.67z" fill="#fff" opacity=".3"/><path d="m101.77 329.77c2 1.83 1.48 5.53-1.07 8.27s-6.2 3.49-8.16 1.67-1.48-5.52 1.07-8.26 6.2-3.45 8.16-1.68z" fill="#fff" opacity=".3"/><path d="m68.73 285.41c2 1.82 1.48 5.52-1.06 8.26s-6.21 3.49-8.17 1.67-1.48-5.52 1.07-8.26 6.21-3.49 8.16-1.67z" fill="#fff" opacity=".3"/><path d="m129.84 285.36c2 1.81 1.48 5.52-1.07 8.25s-6.2 3.5-8.16 1.67-1.48-5.51 1.07-8.26 6.2-3.49 8.16-1.66z" fill="#fff" opacity=".3"/><path d="m152.49 283.93c1.95 1.82 1.47 5.52-1.07 8.26s-6.21 3.48-8.17 1.67-1.47-5.52 1.07-8.26 6.2-3.49 8.17-1.67z" fill="#fff" opacity=".3"/><path d="m175.1 267.93c2 1.82 1.47 5.52-1.07 8.26s-6.2 3.49-8.16 1.67-1.48-5.52 1.07-8.26 6.2-3.49 8.16-1.67z" fill="#fff" opacity=".3"/><path d="m139 260.51c2 1.83 1.48 5.52-1.07 8.26s-6.2 3.5-8.16 1.68-1.48-5.52 1.07-8.26 6.24-3.49 8.16-1.68z" fill="#fff" opacity=".3"/><path d="m137.26 241.41c2 1.83 1.48 5.52-1.06 8.27s-6.2 3.49-8.16 1.66-1.48-5.52 1.06-8.26 6.21-3.49 8.16-1.67z" fill="#fff" opacity=".3"/><path d="m163.33 252.38c2 1.82 1.48 5.52-1.07 8.26s-6.2 3.49-8.16 1.67-1.47-5.52 1.07-8.26 6.2-3.49 8.16-1.67z" fill="#fff" opacity=".3"/><path d="m158.15 230c2 1.83 1.48 5.53-1.06 8.27s-6.21 3.49-8.17 1.67-1.48-5.52 1.07-8.26 6.2-3.48 8.16-1.68z" fill="#fff" opacity=".3"/><path d="m174 207.72c2 1.83 1.48 5.52-1.07 8.26s-6.2 3.5-8.16 1.67-1.48-5.52 1.07-8.26 6.16-3.48 8.16-1.67z" fill="#fff" opacity=".3"/><path d="m185.16 188.58c2 1.83 1.48 5.52-1.07 8.26s-6.2 3.49-8.16 1.67-1.48-5.51 1.07-8.26 6.21-3.48 8.16-1.67z" fill="#fff" opacity=".3"/><path d="m214.69 202.77c2 1.82 1.48 5.52-1.07 8.26s-6.21 3.49-8.16 1.67-1.48-5.51 1.07-8.26 6.2-3.44 8.16-1.67z" fill="#fff" opacity=".3"/><path d="m233.17 205.44c2 1.83 1.48 5.52-1.07 8.26s-6.19 3.5-8.16 1.67-1.48-5.52 1.07-8.25 6.2-3.5 8.16-1.68z" fill="#fff" opacity=".3"/><path d="m210.55 241.71c1.95 1.82 1.48 5.52-1.07 8.26s-6.2 3.49-8.16 1.67-1.48-5.52 1.07-8.26 6.19-3.49 8.16-1.67z" fill="#fff" opacity=".3"/><path d="m232.62 262.22c2 1.82 1.48 5.52-1.07 8.26s-6.2 3.49-8.16 1.67-1.48-5.52 1.07-8.26 6.19-3.49 8.16-1.67z" fill="#fff" opacity=".3"/><path d="m204.75 262.17c1.95 1.82 1.48 5.52-1.07 8.26s-6.21 3.5-8.16 1.68-1.48-5.52 1.07-8.26 6.2-3.5 8.16-1.68z" fill="#fff" opacity=".3"/><path d="m240.71 221.7c2 1.82 1.48 5.52-1.06 8.26s-6.21 3.49-8.17 1.67-1.48-5.51 1.07-8.26 6.2-3.49 8.16-1.67z" fill="#fff" opacity=".3"/><path d="m222.88 223.63c2 1.83 1.48 5.52-1.07 8.26s-6.2 3.5-8.16 1.68-1.49-5.52 1.06-8.27 6.21-3.48 8.17-1.67z" fill="#fff" opacity=".3"/><path d="m198.34 223.51c2 1.81 1.48 5.51-1.07 8.26s-6.2 3.48-8.16 1.66-1.48-5.52 1.07-8.26 6.2-3.49 8.16-1.66z" fill="#fff" opacity=".3"/><path d="m232.25 241.6c2 1.82 1.48 5.52-1.07 8.26s-6.2 3.49-8.16 1.67-1.48-5.52 1.07-8.27 6.2-3.49 8.16-1.66z" fill="#fff" opacity=".3"/><path d="m254.44 253c2 1.82 1.49 5.52-1.07 8.26s-6.2 3.49-8.16 1.67-1.48-5.52 1.07-8.26 6.2-3.52 8.16-1.67z" fill="#fff" opacity=".3"/><path d="m192.29 202.25c2 1.83 1.48 5.53-1.07 8.26s-6.2 3.49-8.16 1.67-1.48-5.52 1.06-8.26 6.21-3.48 8.17-1.67z" fill="#fff" opacity=".3"/><path d="m36.51 334.3c2 1.83 5.61 1.08 8.16-1.66s3-6.45 1.07-8.27-5.62-1.07-8.16 1.67-3.03 6.44-1.07 8.26z" fill="#fff" opacity=".3"/><path d="m29.55 353.17c2 1.82 5.62 1.07 8.17-1.68s3-6.43 1.06-8.26-5.61-1.07-8.16 1.67-3.02 6.45-1.07 8.27z" fill="#fff" opacity=".3"/><path d="m45.44 371.9c2 1.82 5.61 1.08 8.15-1.67s3-6.44 1.08-8.26-5.62-1.07-8.17 1.67-3.02 6.44-1.06 8.26z" fill="#fff" opacity=".3"/><path d="m48.25 393c2 1.82 5.61 1.07 8.16-1.67s3-6.43 1.07-8.26-5.61-1.08-8.16 1.67-3.02 6.47-1.07 8.26z" fill="#fff" opacity=".3"/><path d="m86.2 371.23c2 1.82 5.61 1.08 8.16-1.66s3-6.45 1.07-8.26-5.61-1.08-8.16 1.66-3.03 6.44-1.07 8.26z" fill="#fff" opacity=".3"/><path d="m100.61 391.44c2 1.82 5.61 1.07 8.16-1.67s3-6.44 1.07-8.26-5.61-1.08-8.16 1.67-3.03 6.44-1.07 8.26z" fill="#fff" opacity=".3"/><path d="m106 366.3c2 1.82 5.61 1.08 8.16-1.67s3-6.44 1.07-8.26-5.62-1.07-8.16 1.67-3.07 6.44-1.07 8.26z" fill="#fff" opacity=".3"/><path d="m65.91 400.18c2 1.82 5.61 1.07 8.16-1.67s3-6.44 1.06-8.26-5.61-1.08-8.16 1.67-3.03 6.44-1.06 8.26z" fill="#fff" opacity=".3"/><path d="m65.6 377.41c2 1.82 5.61 1.07 8.16-1.67s3-6.44 1.07-8.26-5.61-1.07-8.16 1.67-3.03 6.44-1.07 8.26z" fill="#fff" opacity=".3"/><path d="m82.3 396.91c2 1.82 5.61 1.08 8.16-1.67s3-6.44 1.07-8.26-5.61-1.07-8.16 1.67-3.03 6.44-1.07 8.26z" fill="#fff" opacity=".3"/><path d="m97.15 414c2 1.81 5.62 1.07 8.17-1.68s3-6.44 1.07-8.26-5.62-1.07-8.17 1.67-3.03 6.47-1.07 8.27z" fill="#fff" opacity=".3"/><path d="m61.5 355.1c2 1.81 5.61 1.07 8.16-1.68s3-6.44 1.07-8.26-5.61-1.07-8.16 1.67-3.03 6.44-1.07 8.27z" fill="#fff" opacity=".3"/><path d="m50.39 344.76c2 1.83 5.6 1.08 8.16-1.66s3-6.45 1.06-8.27-5.61-1.07-8.15 1.67-3.04 6.44-1.07 8.26z" fill="#fff" opacity=".3"/><path d="m181.21 243.39a6.85 6.85 0 1 1 -10 0 7.07 7.07 0 0 1 10 0z" fill="#fff" opacity=".3"/><path d="m131.34 215.7c2 1.82 1.48 5.52-1.07 8.26s-6.2 3.49-8.16 1.67-1.48-5.52 1.06-8.26 6.21-3.49 8.17-1.67z" fill="#fff" opacity=".3"/><path d="m105.81 224.68c2 1.82 1.48 5.52-1.07 8.26s-6.21 3.49-8.16 1.67-1.48-5.51 1.07-8.26 6.2-3.49 8.16-1.67z" fill="#fff" opacity=".3"/><path d="m84.31 243c2 1.82 1.48 5.52-1.06 8.27s-6.25 3.52-8.16 1.73-1.49-5.52 1.06-8.26 6.21-3.52 8.16-1.74z" fill="#fff" opacity=".3"/><path d="m114.81 271.39c2 1.82 1.48 5.52-1.07 8.26s-6.19 3.49-8.16 1.67-1.48-5.52 1.07-8.27 6.2-3.48 8.16-1.66z" fill="#fff" opacity=".3"/><path d="m114.41 306.7c2 1.82 1.47 5.53-1.08 8.26s-6.2 3.49-8.15 1.67-1.49-5.51 1.06-8.26 6.21-3.49 8.17-1.67z" fill="#fff" opacity=".3"/><path d="m80.78 315.11c2 1.82 1.48 5.52-1.07 8.27s-6.2 3.49-8.16 1.66-1.48-5.52 1.07-8.26 6.2-3.49 8.16-1.67z" fill="#fff" opacity=".3"/><path d="m356.27 444.16a46.3 46.3 0 0 0 30.29-30.16 48.07 48.07 0 0 0 -18.5-54.29 46.21 46.21 0 0 0 -40-6.16c-1.36.43-2.68.91-4 1.45-.53.09-1 .16-1.58.28-26.59 5.79-280.8 127.77-278.16 136.26s287.19-37.4 311.95-47.38z" fill="#ff763f"/><path d="m385.71 385.73a47.73 47.73 0 0 0 -18.63-25.3 46.21 46.21 0 0 0 -40-6.16c-1.36.43-2.68.92-4 1.45-.54.1-1 .16-1.59.28-26.58 5.81-280.79 127.79-278.15 136.28z" fill="#ff763f"/><path d="m324.37 380.19c-.45-1.55-2.85-10.24-3.67-12.49-.62-1.6 2.85-3.06 3.2-.94.84 2.85 3.33 11.18 3.66 12.49s-2.74 2.48-3.19.94z" fill="#fccd59"/><path d="m354.57 398.72c-.45-1.55-2.84-10.24-3.67-12.49-.61-1.6 2.85-3.06 3.2-.94.85 2.85 3.33 11.18 3.67 12.49s-2.77 2.48-3.2.94z" fill="#fccd59"/><path d="m343.25 428.88c-.46-1.54-2.85-10.23-3.67-12.48-.62-1.61 2.85-3.07 3.19-.94.85 2.84 3.33 11.17 3.68 12.48s-2.75 2.49-3.2.94z" fill="#fccd59"/><path d="m286.52 394.34c-.45-1.55-2.84-10.24-3.67-12.49-.62-1.6 2.85-3.06 3.2-.94.85 2.85 3.33 11.18 3.67 12.48s-2.72 2.49-3.2.95z" fill="#fccd59"/><path d="m316.73 412.86c-.46-1.54-2.85-10.23-3.67-12.48-.62-1.6 2.85-3.06 3.2-.94.84 2.85 3.32 11.18 3.66 12.48s-2.74 2.49-3.19.94z" fill="#fccd59"/><path d="m305.4 443c-.45-1.54-2.85-10.23-3.67-12.48-.62-1.61 2.85-3.07 3.2-.94.84 2.84 3.32 11.17 3.67 12.48s-2.74 2.52-3.2.94z" fill="#fccd59"/><path d="m248.54 409.66c-.46-1.55-2.85-10.24-3.68-12.49-.61-1.6 2.85-3.06 3.2-.94.84 2.85 3.32 11.18 3.67 12.49s-2.73 2.48-3.19.94z" fill="#fccd59"/><path d="m277.74 425c-.45-1.55-2.85-10.24-3.67-12.49-.62-1.6 2.86-3.06 3.2-.93.84 2.84 3.32 11.17 3.67 12.48s-2.74 2.48-3.2.94z" fill="#fccd59"/><path d="m234.55 438.44c-.45-1.55-2.85-10.24-3.67-12.49-.62-1.6 2.85-3.06 3.19-.93.85 2.84 3.33 11.17 3.68 12.48s-2.75 2.5-3.2.94z" fill="#fccd59"/><path d="m137.15 466.37c-.45-1.54-2.85-10.23-3.67-12.48-.61-1.6 2.85-3.06 3.2-.94.84 2.85 3.33 11.18 3.66 12.49s-2.74 2.48-3.19.93z" fill="#fccd59"/><path d="m105.3 478c-.45-1.55-2.84-10.24-3.66-12.49-.62-1.6 2.85-3.06 3.19-.93.85 2.84 3.33 11.16 3.67 12.47s-2.74 2.51-3.2.95z" fill="#fccd59"/><path d="m189.58 450.06c-.45-1.54-2.84-10.23-3.67-12.48-.62-1.61 2.85-3.07 3.2-.94.84 2.84 3.32 11.17 3.67 12.48s-2.78 2.48-3.2.94z" fill="#fccd59"/><path d="m262.35 454.05c-.46-1.54-2.85-10.23-3.67-12.48-.62-1.6 2.85-3.06 3.2-.94.84 2.85 3.32 11.18 3.66 12.49s-2.74 2.48-3.19.93z" fill="#fccd59"/><path d="m206.81 427.31c-.45-1.55-2.84-10.24-3.66-12.49-.62-1.6 2.85-3.06 3.2-.94.84 2.85 3.33 11.18 3.66 12.49s-2.74 2.48-3.2.94z" fill="#fccd59"/><path d="m217.16 460.57c-.44-1.54-2.84-10.23-3.66-12.48-.62-1.6 2.85-3.06 3.2-.94.84 2.85 3.33 11.18 3.67 12.49s-2.75 2.48-3.21.93z" fill="#fccd59"/><path d="m159.86 448c-.46-1.55-2.85-10.24-3.67-12.48-.62-1.61 2.85-3.07 3.2-.94.85 2.84 3.32 11.17 3.67 12.48s-2.75 2.52-3.2.94z" fill="#fccd59"/><path d="m166.75 470.18c-.45-1.54-2.85-10.23-3.67-12.49-.62-1.6 2.86-3.06 3.2-.93.84 2.84 3.32 11.17 3.67 12.48s-2.75 2.48-3.2.94z" fill="#fccd59"/><path d="m445.71 411.93c-7-1.66-46.22-9-45.73-10.84s81.61 2.2 86.75 2.54 9.62-14.78.83-15-86.85 1.23-87.33-2.55 79.68-23.93 82.77-25.76.53-15.73-4.45-14.31-82.66 26.34-83.28 22.74 63.47-32.75 71.58-37.25-.79-16.5-7.12-13.22-63.24 35.05-64.5 33.53 43.83-40.21 47.53-45.81-6.08-15.15-10.87-10.53c-3.68 3.56-46.29 44.63-65.67 63.31a48.07 48.07 0 0 1 18.5 54.29c19.58 4.66 51.91 12.34 56.94 13.49 7.34 1.65 11.07-12.96 4.05-14.63z" fill="#22b573"/></svg>