<svg viewBox="0 0 513.23 443.4" xmlns="http://www.w3.org/2000/svg"><path d="m5.36 285.21h-.16a20.8 20.8 0 0 0 -5.2.68 21 21 0 0 1 5.36-.68z" fill="#636363"/><path d="m41.72 184.22a18.38 18.38 0 0 0 -5.36.82c-5.83 1.79-10 6.35-10 11.73v234c0 6.93 6.88 12.55 15.37 12.55h1.94v-259.1z" fill="#636363"/><circle cx="271.81" cy="218" fill="#ff8f66" r="190.85"/><path d="m380.62 217.7a109.35 109.35 0 1 1 -109.35-109.35 109.35 109.35 0 0 1 109.35 109.35z" fill="#4aa2a3"/><path d="m371.75 218a99.94 99.94 0 1 1 -99.94-99.94 99.94 99.94 0 0 1 99.94 99.94z" fill="#fff"/><path d="m266.12 206.46 3.14-57.33c.12-2.13 1.06-3.66 2.11-3.42s1.59 1.64 1.69 3.4l3.33 57.29c.33 5.73-1.62 11.6-4.54 11.6-5.73 0-5.77-10.78-5.73-11.54z" fill="#4aa2a3"/><path d="m259.74 223.14-57.34-3.14c-2.12-.11-3.65-1.06-3.42-2.11.2-.9 1.65-1.59 3.4-1.69l57.29-3.32c5.73-.34 11.6 1.61 11.6 4.53 0 5.74-10.78 5.77-11.53 5.73z" fill="#4aa2a3"/><ellipse cx="271.81" cy="218" fill="#faba9f" rx="11.41" ry="11.62"/><g fill="#636363"><path d="m494.79 198.82h4.21a16.7 16.7 0 0 1 6.2 1.2c-.44-33.53 0-46.92 0-46.92s1.5-146.75 1.69-150.94c.32-5.09-28.75-12.92-33.59 129.39-.4 11.7 16.13 21.31 16.13 21.31s0 0-.64 47a16.65 16.65 0 0 1 5.85-1.05z"/><path d="m505.17 200a16.7 16.7 0 0 0 -6.2-1.2h-2.38v240.56h2.41c7.88 0 14.26-5.22 14.26-11.66v-217.23c-.03-4.61-3.33-8.57-8.09-10.47z"/><path d="m480.53 429.89v-186.89c0-4 3.39-7.47 8.26-9.07v-.06c-5 1.57-8.41 5.06-8.41 9.13v186.89c0 5.54 6.39 10 14.26 10h.15c-7.88.03-14.26-4.46-14.26-10z"/><path d="m494.79 232.94h-.15a19.28 19.28 0 0 0 -5.85.9v.06a19 19 0 0 1 6-.96z"/><path d="m494.79 198.82a16.76 16.76 0 0 0 -6 1.11c-4.87 1.86-8.26 5.87-8.26 10.54v217.23c0 6.44 6.38 11.66 14.26 11.66h1.8v-240.54z"/><path d="m61.21 422.31v-184.11c0-.07 0-.13 0-.2v184.8c-.02-.16 0-.32 0-.49z"/><path d="m51.9 127.38s15.83-11.58 16.92-25c1.34-16.38-.95-86.38-1.18-93.96.17-6.67-7.62-8.83-7.74 0-.23 9.46-.56 55.44-.56 55.44h-6.76s-.22-47.19-.34-55c0-7.17-7.67-8.63-7.56-.44 0 11.24.34 55.44.34 55.44h-6.54s-.48-46.24-.55-55.44c-.07-7.66-7-7.85-6.78.13s.36 55.31.36 55.31l-7-.12s.29-50.56.21-55.74c-1.81-9.52-7.84-5.2-7.39.64.28 4.8-3.33 83.33.22 94s17.45 25.5 17.45 25.5.76 16.16 1 56.93a18 18 0 0 1 5.2-.79h4.66a18.23 18.23 0 0 1 5.89 1c-1.19-34.83.15-57.9.15-57.9z"/><path d="m51.71 185.24a18.23 18.23 0 0 0 -5.89-1h-2.56v259.16h2.56c8.49 0 15.37-5.62 15.37-12.56v-234c0-5.24-3.92-9.71-9.48-11.6z"/></g><path d="m276.58 130.29a5.32 5.32 0 1 1 -5.31-5.32 5.31 5.31 0 0 1 5.31 5.32z" fill="#404a5a"/><path d="m276.58 304.27a5.32 5.32 0 1 1 -5.31-5.31 5.31 5.31 0 0 1 5.31 5.31z" fill="#404a5a"/><path d="m220.93 274.43a5.31 5.31 0 1 1 -7.51 0 5.31 5.31 0 0 1 7.51 0z" fill="#404a5a"/><path d="m220.93 157a5.31 5.31 0 1 1 -7.51 0 5.31 5.31 0 0 1 7.51 0z" fill="#404a5a"/><path d="m329.11 273a5.31 5.31 0 1 1 -7.51 0 5.31 5.31 0 0 1 7.51 0z" fill="#404a5a"/><path d="m329.11 155.5a5.31 5.31 0 1 1 -7.51 0 5.31 5.31 0 0 1 7.51 0z" fill="#404a5a"/><path d="m362.42 217.7a5.31 5.31 0 1 1 -5.31-5.31 5.31 5.31 0 0 1 5.31 5.31z" fill="#404a5a"/><path d="m191.82 217.7a5.32 5.32 0 1 1 -5.31-5.31 5.31 5.31 0 0 1 5.31 5.31z" fill="#404a5a"/></svg>