<svg viewBox="0 0 135 40" xmlns="http://www.w3.org/2000/svg" xmlns:xlink="http://www.w3.org/1999/xlink"><linearGradient id="a" gradientUnits="userSpaceOnUse" x1="31.09" x2="6.91" y1="20" y2="20"><stop offset="0" stop-color="#fee000"/><stop offset=".42" stop-color="#fbbc0e"/><stop offset=".78" stop-color="#faa418"/><stop offset="1" stop-color="#f99b1c"/></linearGradient><linearGradient id="b" gradientUnits="userSpaceOnUse" x1="24.81" x2="2.07" y1="22.29" y2="45.03"><stop offset="0" stop-color="#ef4547"/><stop offset="1" stop-color="#c6186d"/></linearGradient><linearGradient id="c" gradientUnits="userSpaceOnUse" x1="1.97" x2="20.54" y1="-5.13" y2="13.43"><stop offset="0" stop-color="#279e6f"/><stop offset=".04" stop-color="#2ba06f"/><stop offset=".46" stop-color="#53b26c"/><stop offset=".8" stop-color="#6bbd6a"/><stop offset="1" stop-color="#74c169"/></linearGradient><rect height="40" rx="5" width="135"/><path d="m130 .8a4.2 4.2 0 0 1 4.2 4.2v30a4.2 4.2 0 0 1 -4.2 4.2h-125a4.2 4.2 0 0 1 -4.2-4.2v-30a4.2 4.2 0 0 1 4.2-4.2zm0-.8h-125a5 5 0 0 0 -5 5v30a5 5 0 0 0 5 5h125a5 5 0 0 0 5-5v-30a5 5 0 0 0 -5-5z" fill="#a7a6a6"/><g fill="#fff"><path d="m47.42 10.24a2.72 2.72 0 0 1 -.75 2 2.9 2.9 0 0 1 -2.2.88 3 3 0 0 1 -2.21-.9 3 3 0 0 1 -.91-2.22 3 3 0 0 1 .91-2.23 3.16 3.16 0 0 1 3.44-.65 2.54 2.54 0 0 1 .94.67l-.53.53a2 2 0 0 0 -1.64-.72 2.32 2.32 0 0 0 -2.33 2.4 2.36 2.36 0 0 0 4 1.73 1.93 1.93 0 0 0 .51-1.22h-2.18v-.72h2.91a3.75 3.75 0 0 1 .04.45z" stroke="#fff" stroke-miterlimit="10" stroke-width=".2"/><path d="m52 7.74h-2.7v1.9h2.46v.72h-2.46v1.9h2.7v.74h-3.48v-6h3.48z" stroke="#fff" stroke-miterlimit="10" stroke-width=".2"/><path d="m55.28 13h-.77v-5.26h-1.68v-.74h4.17v.74h-1.72z" stroke="#fff" stroke-miterlimit="10" stroke-width=".2"/><path d="m59.94 13v-6h.77v6z" stroke="#fff" stroke-miterlimit="10" stroke-width=".2"/><path d="m64.13 13h-.77v-5.26h-1.68v-.74h4.12v.74h-1.67z" stroke="#fff" stroke-miterlimit="10" stroke-width=".2"/><path d="m73.61 12.22a3.11 3.11 0 0 1 -4.4 0 3 3 0 0 1 -.88-2.22 3 3 0 0 1 .88-2.22 2.93 2.93 0 0 1 2.2-.91 3 3 0 0 1 2.2.91 3.07 3.07 0 0 1 .88 2.22 3 3 0 0 1 -.88 2.22zm-3.83-.5a2.29 2.29 0 0 0 3.26 0 2.36 2.36 0 0 0 .67-1.72 2.36 2.36 0 0 0 -.71-1.72 2.29 2.29 0 0 0 -3.26 0 2.36 2.36 0 0 0 -.63 1.72 2.36 2.36 0 0 0 .67 1.72z" stroke="#fff" stroke-miterlimit="10" stroke-width=".2"/><path d="m75.58 13v-6h.93l2.92 4.67v-1.16-3.51h.77v6h-.8l-3.05-4.89v1.15 3.74z" stroke="#fff" stroke-miterlimit="10" stroke-width=".2"/><path d="m68.14 21.75a4.26 4.26 0 1 0 4.27 4.25 4.19 4.19 0 0 0 -4.27-4.25zm0 6.83a2.58 2.58 0 1 1 2.4-2.58 2.46 2.46 0 0 1 -2.4 2.58zm-9.32-6.83a4.26 4.26 0 1 0 4.27 4.25 4.19 4.19 0 0 0 -4.27-4.25zm0 6.83a2.58 2.58 0 1 1 2.4-2.58 2.46 2.46 0 0 1 -2.4 2.58zm-11.08-5.52v1.8h4.32a3.77 3.77 0 0 1 -1 2.27 4.42 4.42 0 0 1 -3.34 1.32 4.8 4.8 0 0 1 0-9.6 4.64 4.64 0 0 1 3.28 1.29l1.27-1.27a6.3 6.3 0 0 0 -4.53-1.82 6.61 6.61 0 1 0 0 13.21 6.07 6.07 0 0 0 4.61-1.85 6 6 0 0 0 1.56-4.23 6.27 6.27 0 0 0 -.09-1.12zm45.31 1.4a4 4 0 0 0 -3.64-2.71 4 4 0 0 0 -4 4.25 4.23 4.23 0 0 0 7.76 2.37l-1.45-1a2.41 2.41 0 0 1 -2.09 1.17 2.15 2.15 0 0 1 -2.06-1.29l5.69-2.35zm-5.8 1.42a2.33 2.33 0 0 1 2.23-2.48 1.64 1.64 0 0 1 1.57.9zm-4.62 4.12h1.87v-12.5h-1.87zm-3.06-7.3h-.07a2.94 2.94 0 0 0 -2.24-.95 4.26 4.26 0 0 0 0 8.51 2.88 2.88 0 0 0 2.24-1h.07v.61c0 1.63-.87 2.5-2.27 2.5a2.36 2.36 0 0 1 -2.15-1.51l-1.62.67a4 4 0 0 0 3.77 2.52c2.19 0 4-1.29 4-4.43v-7.62h-1.73zm-2.15 5.88a2.58 2.58 0 0 1 0-5.15 2.39 2.39 0 0 1 2.28 2.57 2.38 2.38 0 0 1 -2.28 2.58zm24.39-11.08h-4.48v12.5h1.87v-4.74h2.61a3.89 3.89 0 1 0 0-7.76zm0 6h-2.61v-4.26h2.65a2.14 2.14 0 1 1 0 4.28zm11.54-1.79a3.49 3.49 0 0 0 -3.33 1.91l1.65.69a1.78 1.78 0 0 1 1.71-.91 1.8 1.8 0 0 1 2 1.61v.12a4.18 4.18 0 0 0 -1.95-.48c-1.78 0-3.6 1-3.6 2.82a2.89 2.89 0 0 0 3.11 2.75 2.65 2.65 0 0 0 2.38-1.22h.06v1h1.8v-4.81c0-2.19-1.66-3.46-3.79-3.46zm-.23 6.85c-.61 0-1.46-.31-1.46-1.06 0-1 1.06-1.34 2-1.34a3.32 3.32 0 0 1 1.7.42 2.26 2.26 0 0 1 -2.2 2zm10.62-6.56-2.14 5.42h-.06l-2.22-5.42h-2l3.33 7.58-1.9 4.21h2l5.07-11.79zm-16.8 8h1.86v-12.5h-1.86z"/></g><path d="m10.43 7.55a2 2 0 0 0 -.43 1.45v22.1a2 2 0 0 0 .46 1.4l.08.08 12.35-12.43v-.3l-12.38-12.37z" fill="#5bc9f4"/><path d="m27 24.27-4.12-4.12v-.3l4.12-4.12h.1l4.9 2.83c1.39.79 1.39 2.09 0 2.88l-4.89 2.78z" fill="url(#a)"/><path d="m27.11 24.22-4.22-4.22-12.46 12.45a1.62 1.62 0 0 0 2.08.06z" fill="url(#b)"/><path d="m27.11 15.78-14.6-8.29a1.62 1.62 0 0 0 -2.08.06l12.46 12.45z" fill="url(#c)"/></svg>