<svg viewBox="0 0 443.13 513.12" xmlns="http://www.w3.org/2000/svg"><path d="m105.76 288.41-59.76 188.2 69.35-18.16 46.11 54.67 55.62-175.31a211.07 211.07 0 0 1 -111.32-49.4z" fill="#ff763f"/><path d="m215.83 337.81 55.71 175.31 46.11-54.86 69.16 18.26-59.66-188.2a211.46 211.46 0 0 1 -111.32 49.49z" fill="#ff763f"/><path d="m221.85 440.63c-121 .16-219.19-97.79-219.35-218.78s97.8-219.19 218.78-219.35 219.2 97.8 219.35 218.78v.57c-.31 120.7-98.08 218.47-218.78 218.78z" fill="#ff8f66" stroke="#fff" stroke-miterlimit="10" stroke-width="5"/><g fill="#fff"><path d="m401.86 227.59 8.19 3.67 8.85-3.26s-2.45 5.08-4.8 10.16a52.25 52.25 0 0 1 -3.77 6.68c-1.13 1.79-1.79 3-1.79 3l-.94-3.29a49.1 49.1 0 0 0 -2.16-7.15c-1.69-4.73-3.58-9.81-3.58-9.81z"/><path d="m398.29 258.92 7.53 5.27 9.41-1.69-6.78 9.41-4.7 6a21 21 0 0 1 -2.26 2.54 31.76 31.76 0 0 0 0-3.38c0-2-.76-4.71-1.13-7.44-1.23-5.53-2.07-10.71-2.07-10.71z"/><path d="m389.07 288.94 6.68 6.68h9.59l-2.44 2.64-5.84 5.27-8.28 7.24.47-10.91v-7.34a35.73 35.73 0 0 0 -.18-3.58z"/><path d="m374.67 317 5.46 7.72 9.41 1.51-2.92 2.07a65.61 65.61 0 0 1 -6.49 4.23l-9.41 5.65s1.31-5.27 2.54-10.64a61 61 0 0 0 1.31-7.24 19.39 19.39 0 0 1 .1-3.3z"/><path d="m355.75 342.11 4.05 8.47 8.85 3.1-10.17 4.8-10.54 3.77s2.17-5 4.43-9.88z"/><path d="m332.79 363.66 2.45 9.41 8.28 4.7-11 2.73a54.19 54.19 0 0 1 -7.15 1.32h-3.77l2-2.73a49.61 49.61 0 0 0 3.95-6.3z"/><path d="m306.54 380.88.75 9.41 7.44 6.12-11.39.65h-11.1l2.44-2.35 5-5.64c3.38-4.14 6.86-8.19 6.86-8.19z"/><path d="m277.56 393.21v9.41l3 3.57 3.1 3.48h-3.48l-7.81-1-10.92-1.7 8.66-6.68 5.74-4.61a24.17 24.17 0 0 0 1.71-2.47z"/><path d="m246.88 400.64-2.35 9.41 4.8 8.09-3.49-.84a77 77 0 0 1 -7.43-2.17l-10.54-3.86 9.41-4.8a46.63 46.63 0 0 0 6.4-3.76z"/><path d="m215.45 401.86-3.95 8.47 3.39 8.85-10.26-4.8c-2.45-1.13-4.9-2.73-6.68-3.77l-2.95-1.88 3.29-.84a48 48 0 0 0 7.06-2.17z"/><path d="m184.21 398.29-5.37 7.53 1.79 9.41-9.41-6.78-6-4.7-2.63-2.26h3.41l7.44-1.13z"/><path d="m154.1 389.07-6.59 6.68v9.59l-2.51-2.44-5.27-5.84-7.34-8.28 11 .47h7.24z"/><path d="m126.15 374.67-7.72 5.46-1.5 9.41-2.07-2.92a50.18 50.18 0 0 1 -4.33-6.49l-5.65-9.41 10.63 2.54a65.94 65.94 0 0 0 7.25 1.31z"/><path d="m101 355.75-8.56 4.05-3.11 8.85-4.7-10.17-4-10.54 9.88 4.43z"/><path d="m79.47 332.79-9.41 2.45-4.61 8.28-2.82-11a53.49 53.49 0 0 1 -.75-7.15v-3.37l2.82 2a56.65 56.65 0 0 0 6.21 3.95z"/><path d="m61.88 306.54-9.41.75-6 7.44-.75-11.39v-11.1l2.28 2.44 5.74 5z"/><path d="m49.83 277.56h-9.31l-3.67 3-3.2 2.35a30.54 30.54 0 0 1 0-3.58l1-7.71 1.7-10.92 6.68 8.66 4.51 5.74z"/><path d="m43.06 246.88-9.41-2.35-8 4.8a10.17 10.17 0 0 1 .85-3.49 54.89 54.89 0 0 1 2.16-7.43l3.76-10.54 4.9 9.41a54.85 54.85 0 0 0 3.67 6.4z"/><path d="m41.18 215.45-8.47-3.95-8.47 3.39 4.89-10.26a59.89 59.89 0 0 1 3.76-6.63c1-1.79 1.79-2.92 1.79-2.92a9.2 9.2 0 0 0 .85 3.29 64.42 64.42 0 0 0 2.26 7.06z"/><path d="m44.85 184.21-7.63-5.37-9.41 1.79 6.87-9.41 4.61-5.83c1.32-1.6 2.36-2.64 2.36-2.64a27.39 27.39 0 0 0 0 3.39 49.24 49.24 0 0 0 1.12 7.43c1.13 5.37 2.08 10.64 2.08 10.64z"/><path d="m54.07 154.1-6.78-6.59h-9.41l2.35-2.51 5.84-5.27 8.37-7.34v18.25a16.24 16.24 0 0 1 -.37 3.46z"/><path d="m68.37 126.05-5.46-7.71-9.41-1.51 2.83-2.07a52.33 52.33 0 0 1 6.49-4.33l9.41-5.64-2.17 10.72a49.66 49.66 0 0 0 -1.22 7.25z"/><path d="m87.28 100.93-4-8.47-8.94-3.11 10.26-4.7 10.54-4s-2.26 4.89-4.42 9.88a74.29 74.29 0 0 0 -3.44 10.4z"/><path d="m110.25 79.47-2.45-9.41-8.28-4.23 11-2.82a55.46 55.46 0 0 1 7.81-1.13h3.48l-2 2.82a46.85 46.85 0 0 0 -4 6.21z"/><path d="m136.59 61.88-.84-9.41-7.34-6.12 11.38-.66h11.11l-2.45 2.31-5 5.74z"/><path d="m165.39 49.83v-4.7a25.64 25.64 0 0 1 .47-4.61l-3.11-3.67-2.54-3.2h3.48l7.81 1.13 10.92 1.69-8.75 6.59-5.67 4.51z"/><path d="m186.64 39.39 2.14-8.56-4.54-7.19 3.08.77a52.08 52.08 0 0 1 6.85 2l9.5 3.43-8.56 4.45a47.54 47.54 0 0 0 -5.73 3.34z"/><path d="m215.14 37.68 3.34-7.7-2.74-7.71 9.26 4.46a48.48 48.48 0 0 1 6.08 3.42l2.73 1.63-3 .77a46.38 46.38 0 0 0 -6.51 2.05z"/><path d="m258.92 44.85 5.27-7.63-1.69-9.41 9.41 6.87 6 4.61a25.8 25.8 0 0 1 2.54 2.36 27.23 27.23 0 0 0 -3.38 0l-7.72 1.41z"/><path d="m288.94 54.07 6.68-6.78v-8.84l2.64 2.35c1.41 1.6 3.29 3.76 5.27 5.83 3.57 4.24 7.24 8.38 7.24 8.38h-18.25z"/><path d="m317 68.37 7.72-5.46 1.51-9.41s.75 1.13 2.07 2.83a51.6 51.6 0 0 1 4.23 6.49l5.65 9.41-10.64-2.45a38.61 38.61 0 0 0 -7.24-1.32z"/><path d="m342.11 87.28 8.47-4 3-8.94s2.45 5.08 4.8 10.26l3.76 10.54-9.88-4.42z"/><path d="m363.66 110.25 9.41-2.45 4.7-8.28s1.42 5.55 2.73 11a54.44 54.44 0 0 1 1.32 7.81 10.3 10.3 0 0 0 .56 3.48l-2.82-2a48.85 48.85 0 0 0 -6.3-4z"/><path d="m380.88 136.59 9.41-.84 6.12-7.34s0 5.64.65 11.38v11.11l-2.35-2.45-5.64-5z"/><path d="m393.21 165.39h4.7l4.71.47 3.57-3.11 3.48-3.1v3.57l-1 7.81-1.73 10.97s-3.38-4.33-6.68-8.75c-1.69-2.07-3.29-4.14-4.61-5.65a23.84 23.84 0 0 0 -2.44-2.21z"/><path d="m400.64 196.16 9.41 2.45 8.09-4.8a10 10 0 0 1 -.84 3.38 68.81 68.81 0 0 1 -2.17 7.44c-2 5.27-3.86 10.54-3.86 10.54s-2.44-4.9-4.8-9.41a63.05 63.05 0 0 0 -3.76-6.4z"/><path d="m221.85 73a15 15 0 1 0 14.87 15v-.1a15 15 0 0 0 -14.87-14.9z"/><path d="m226.74 105.07h-10a2.07 2.07 0 0 0 -2.07 2.07 2 2 0 0 0 2 2h10.07a2 2 0 0 0 2-2 2.07 2.07 0 0 0 -2-2.07z"/><path d="m221.85 111.28c-1.88 0-3.39.66-3.39 3.29l.57 99 3.38-1.79a6 6 0 0 1 1.6-.47h.66v-96.31a2.91 2.91 0 0 0 -2.06-3.57 2.84 2.84 0 0 0 -.76-.15z"/><path d="m219.21 265.79a15.4 15.4 0 0 1 5.27-1.13v-10.44a26.13 26.13 0 0 1 -5.45 0z"/><path d="m222.79 325.36-3.2 1.32v9.41a11.3 11.3 0 0 1 2.92-1.32h.66v-9.41z"/><path d="m219.68 350.2v10.07a1.56 1.56 0 0 1 .57.57.94.94 0 0 1 .47 0 4.44 4.44 0 0 1 3.2-.57v-12.27h-1.79z"/><path d="m221.85 371.47-2 1.13v18.82a2.07 2.07 0 0 0 4 0v-19a2.52 2.52 0 0 1 -1.22 0z"/><path d="m223.82 301.18a6 6 0 0 1 -1.6-1.13l-2.82.84v11.58a5.61 5.61 0 0 1 1.79 1l2.73-.66v-11.45h-.47z"/><path d="m219.4 286.78.75.94v.47l3.58-1.13h.47v-8.75l-5.08 1.5z"/><path d="m219 231.26v9.41l4.42-1.22h1v-9.45h-1.82z"/><path d="m200.49 132.74c-5.84-2.92-.57-7.06 1.5-10.83a24.89 24.89 0 0 0 3.77-14.68 16.47 16.47 0 0 0 -13.27-10.91 21.16 21.16 0 0 0 -16.28 5 93.92 93.92 0 0 1 -17 9.41c-21.36 8.56-53.64 22.39-76.6 24.56a33 33 0 0 0 22 12.79c0 4.14 7.34 8.47 10.54 9.41a18.76 18.76 0 0 0 13.74-.75 17.22 17.22 0 0 0 23.87 4.81l.69-.48c.47 3.76 7.15 5.83 10.16 6.49a26.49 26.49 0 0 0 13.55-1.79c3.2-.75 4.61 1.32 8.09 2.07a13.91 13.91 0 0 0 10.64-1.22c1.6-.75.94-1.32 2.73-1.13s2.54 1.23 3.76 1.41c3.39.57 5.65-2 7.53-4.32a58.13 58.13 0 0 0 5.93-12.8v-16.29a40.43 40.43 0 0 1 -15.35-.75z"/><path d="m266.92 101.31a21.16 21.16 0 0 0 -16.28-5 16.58 16.58 0 0 0 -13.36 10.91 26.31 26.31 0 0 0 3.77 14.68c2.16 3.77 7.34 7.91 1.5 10.83a43.68 43.68 0 0 1 -14.77.84v17.43a52.26 52.26 0 0 0 5.55 11.67c1.79 2.35 4.14 4.89 7.43 4.33 1.23 0 2.83-1.32 3.86-1.41s1 0 2.73 1.13a14 14 0 0 0 10.65 1.21c3.49-.75 4.8-2.82 8-2.07a26.88 26.88 0 0 0 13.65 1.79c2.91-.66 9.41-2.73 10.07-6.5a17.3 17.3 0 0 0 24.2-3.69q.24-.32.45-.63a18.8 18.8 0 0 0 13.64.75c3.3-1 11-5.37 10.54-9.41a33.24 33.24 0 0 0 22.12-12.8c-23.06-2.16-55.24-16-76.6-24.56a93.91 93.91 0 0 1 -17.15-9.5z"/><path d="m185.24 197.85c-4.61-3.1 1-6.3 3.3-7a52.2 52.2 0 0 0 17.46-8.85c1.88-1.69 4.8-6.78 1.88-8.85s-8.75 0-11.2.47a24 24 0 0 0 -10.35 2.92 27.48 27.48 0 0 0 -14.3 13.18 15.07 15.07 0 0 0 2.07 14 55.82 55.82 0 0 0 19.48 13l8.94 3.86c.56-.56 11.29-4.42 15.24-7.15-9.41-3.86-15.9-6.87-18.82-8.28a88.35 88.35 0 0 1 -13.7-7.3z"/><path d="m225.05 367.42c-.94.94-1.32 1.6-2.26 2.54l1.22 1.32a11.56 11.56 0 0 1 2.64 11.2 5.14 5.14 0 0 0 2-3 11.67 11.67 0 0 0 -2.25-9.41 10.26 10.26 0 0 0 -1.35-2.65z"/><path d="m231.26 320.18a71.66 71.66 0 0 1 -7.25 4.43 60.58 60.58 0 0 1 7 3.95c.56 0-2.07 4.42-4.8 6.21a106.39 106.39 0 0 0 -8.66 6.87 23.47 23.47 0 0 0 -7.55 8.66 9.42 9.42 0 0 0 3.2 10.82c1.32 1 3.29 3.29 4.42 4.33 0-.57 1.89-1.79 2.45-2.92-6-5-9.41-11.1.75-16.47 2.83-2.07 6-4 9.41-6.59a26.47 26.47 0 0 0 4.71-4.51c1.22-1.79 4.14-4.33 2.45-8.57a11.33 11.33 0 0 0 -6.13-6.21z"/><path d="m239.82 273.23s-9.41 3.95-13.74 5.83l5.74 1.6a26.23 26.23 0 0 1 3.11 1.13 5.73 5.73 0 0 1 -.75.94 21 21 0 0 1 -5 3c-4.33 2-8.85 4.05-13.27 6.21s-8.85 3-13.55 9.41a9.4 9.4 0 0 0 1.51 11 27.31 27.31 0 0 0 6.11 5.18l2.26 1.32c2.35-1.89 5.08-2.83 7.53-4.43-1.88-1.13-3.77-2.16-5.46-3.38-3.67-2.17-6-5.84-4.89-5.56a38.46 38.46 0 0 1 10.16-5.74l13.42-5.81a24.85 24.85 0 0 0 7.53-4.42 9.41 9.41 0 0 0 3.29-12.05 10.2 10.2 0 0 0 -4-4.23z"/><path d="m247.73 225.14a72.1 72.1 0 0 0 -7.63-3.1 118.1 118.1 0 0 1 -15.9 7.15l8.66 3.2a83.32 83.32 0 0 1 9.41 3.67c.75 0 1.5.75 2.26 1.13l-3.48 1.13c-3.77 1-7.91 1.78-12.14 2.54a81.14 81.14 0 0 0 -28.7 6.68 17 17 0 0 0 -7.72 6.49 9.4 9.4 0 0 0 -.85 7.91 11.7 11.7 0 0 0 3.58 5.08 31.61 31.61 0 0 0 7.34 4.61 52.76 52.76 0 0 0 8.09-2.92l1.88-.66 4.61-1.88-3.67-1.17a35.55 35.55 0 0 1 -10.47-5.51 18.72 18.72 0 0 1 3-1.88 85.54 85.54 0 0 1 25.41-5.08 113.22 113.22 0 0 0 13.64-2.64q3.45-.91 6.78-2.16a12 12 0 0 0 8-8.38c1.63-7.62-9.75-13.27-12.1-14.21z"/><path d="m227.4 343.33c-1.32 1.13-3.39 3.11-4.05 3.48 14 8.19-3.38 15.53-6.68 22.78a12 12 0 0 0 -2.26 9.41c.76 2.35 1.89 3.1 2 3a11.5 11.5 0 0 1 2.73-11.2 89.56 89.56 0 0 1 10.73-10 9.42 9.42 0 0 0 3.27-10.8 21.05 21.05 0 0 0 -5.74-6.67z"/><path d="m233.89 295.06-9.41 5a35.25 35.25 0 0 1 9.41 5.45c1.13 0-1.22 3.39-4.8 5.56s-7.43 4.32-11.19 6.49-9.41 2.06-11.9 9.44a8.26 8.26 0 0 0 2.45 8.56 26 26 0 0 0 4.8 4.52l1.78 1.41 5.56-3.29-3.49-2.83c-2.63-1.78-5.36-5.83-4.8-6.21a64.63 64.63 0 0 1 8.85-4.8c3.86-2 7.9-3.76 12.14-6.39a30.22 30.22 0 0 0 6.21-5.18 9.41 9.41 0 0 0 1.13-11.39 18.8 18.8 0 0 0 -6.74-6.34z"/><path d="m246.88 250.08c-3.11 1.13-15.34 3.57-18.16 4.14a40.9 40.9 0 0 1 9.41 2.92 17.1 17.1 0 0 1 2.54 2.35 35.52 35.52 0 0 1 -11.2 5.74c-4.23 1.6-9.41 2.73-13.83 4.23l-7.25 2.36c-2.16 1-6.11.65-8.94 5.92a9.42 9.42 0 0 0 3.55 11.77 20.41 20.41 0 0 0 6.12 3.76c3.38-1.5 7-2.73 10.44-4.14l.94-.56-6.12-2.83a17.72 17.72 0 0 1 -5-3l-.85-.94 3.11-1.13 7-2c4.61-1.32 9.41-2.36 14.49-4.05a45.09 45.09 0 0 0 15-7.62 13.26 13.26 0 0 0 3.58-5.08 10 10 0 0 0 -.85-7.91 17.62 17.62 0 0 0 -3.98-3.93z"/><path d="m256.67 176.49a23.55 23.55 0 0 0 -10.36-2.92c-2.44 0-9.41-2.07-11.1-.47s0 7.16 1.79 8.85a52.2 52.2 0 0 0 17.5 8.85c2.26.75 7.91 3.95 3.39 7a89 89 0 0 1 -13.89 7.3c-3.29 1.5-10.54 4.7-20.7 9.41-5 2.07-10.82 4.52-17.22 6.87a88.42 88.42 0 0 0 -10.63 4.23c-1.89.94-13.84 6.59-11.58 13.84a12 12 0 0 0 8.09 8.37 33.15 33.15 0 0 0 4.33 1.41 2.27 2.27 0 0 1 .85-.75 51.05 51.05 0 0 1 13.36-7.81c-3.1-.57-6-1.13-8.75-1.88l-3.48-1.13a17.48 17.48 0 0 1 2.35-1.13 89 89 0 0 1 9.41-3.67c6.68-2.35 12.61-4.71 17.79-6.78 10.44-4.14 17.78-7.43 21.26-8.94a56.49 56.49 0 0 0 19.86-13.45 14.79 14.79 0 0 0 2.07-14 27.48 27.48 0 0 0 -14.34-13.2z"/></g></svg>