<svg viewBox="0 0 336.14 95.81" xmlns="http://www.w3.org/2000/svg"><g fill="#b7b7b7"><path d="m40.07 95.81c0-25-.13-50.11 0-75.17.06-9.27 7.93-17.47 18.29-19.95.83-.2 1.64-.46 2.46-.69h4.61v15c-.76.14-1.41.28-2.06.38-6.24.93-8.16 3.18-8.16 9.54v11h10.12v15.33h-10.27v44.56z"/><path d="m85.22 61.29v3.52c0 2.6 1.37 3.85 4 3.83h12v15.6c-6.2-.41-12.51-.1-18.47-1.41-7.46-1.64-12.53-9-12.65-16.73-.12-8.46-.14-16.93 0-25.39a18.41 18.41 0 0 1 36.78-.26c.17 4.32.13 8.66 0 13a7.76 7.76 0 0 1 -7.9 7.85c-4.46.07-8.86-.01-13.76-.01zm.15-15.29h6c-.21-2.59 1.22-5.36-1.43-7.22a3.44 3.44 0 0 0 -3.14 0c-2.61 1.77-1.4 4.53-1.43 7.22z"/><path d="m243.84 58.23v23.43h-10.36v-79.38h10.26v44.38c1-1.24 1.43-1.73 1.78-2.3 3.53-5.72 7.09-11.42 10.51-17.21a3.38 3.38 0 0 1 3.44-1.92c3.16.12 6.32 0 9.9 0-.53 1-.86 1.76-1.28 2.45-4.55 7.45-9.07 14.93-13.72 22.33a3.41 3.41 0 0 0 -.05 4.12c4.83 8.19 9.53 16.45 14.26 24.69.47.82.91 1.66 1.62 3-4 0-7.72.1-11.38-.09-.65 0-1.4-1.16-1.85-1.93-4.2-7.22-8.34-14.46-12.5-21.7z"/><path d="m123.81 36.43v44.57h-10.36v-78.29h10.28v23.22h7.2c8.29.07 14.73 5.78 14.91 14 .29 13.35.08 26.72.07 40.08a4.87 4.87 0 0 1 -.28 1h-10.29v-3.15q0-17.86 0-35.75c0-4.4-1.27-5.66-5.63-5.68z"/><path d="m174.36 45c1.14-5.92-.44-8-5.82-8h-11.89v-10.31c5.9 0 11.75-.44 17.51.12 5.49.54 10 6.28 10.56 12.86.47 5.82.28 11.7.34 17.56v11.53c0 7.71-3.85 12.62-11.38 14.43a18.84 18.84 0 0 1 -14.46-1.91c-4.28-2.52-6.66-6.25-6.62-11.35 0-3.08 0-6.15 0-9.23 0-9.43 5.5-15.2 15-15.66 2.27-.1 4.55-.04 6.76-.04zm.42 10.65a64.59 64.59 0 0 0 -7.91.07c-2.64.34-4.26 1.89-4 4.93.18 2 0 4 0 6 0 5.66 4.52 8.46 9.55 5.78 1-.52 2.17-1.74 2.22-2.69.26-4.59.14-9.25.14-14.06z"/><path d="m282.26 59c0 3-.16 5.6 0 8.16.25 3 2.5 5 5.65 5 3.34.08 6.68 0 10.21 0v10.28c-4.67 0-9.32.53-13.79-.13-7.28-1.07-12.54-7.86-12.61-15.43q-.12-12.69 0-25.38a16 16 0 0 1 32.08-.57c.16 4 .1 8.08 0 12.12-.08 3.78-2.18 5.89-5.94 6-5.03.02-10.1-.05-15.6-.05zm10.83-10.65c.07-.69.17-1.25.17-1.8 0-1.91.09-3.84-.07-5.75a5.45 5.45 0 0 0 -5.1-5c-2.49-.15-5.15 1.5-5.51 4.09a60.59 60.59 0 0 0 -.09 8.42z"/><path d="m214.51 66.07h10.36a41.26 41.26 0 0 1 -.49 4.54 15.76 15.76 0 0 1 -16.11 12.11c-7.6-.27-14.42-5.88-14.87-13.44a290.52 290.52 0 0 1 -.2-29.66 15.42 15.42 0 0 1 15.8-14.77c8.36 0 15 6.23 15.8 14.86.13 1.41 0 2.85 0 4.5h-10.56c0-1.1 0-2.3 0-3.49a5.35 5.35 0 0 0 -5.29-5.35 5.25 5.25 0 0 0 -5.27 5.34c-.08 8.55-.06 17.1 0 25.65 0 3.34 1.89 5.54 4.76 5.82s5.21-1.59 5.85-5c.01-.3.09-.58.22-1.11z"/><path d="m336.14 24.73v10.5c-2.32 0-4.67 0-7 0-4.93.06-7.67 2.76-7.68 7.69v35.48 3.29h-10.37c-.06-.76-.16-1.41-.16-2 0-12.5-.07-25 0-37.5a17.18 17.18 0 0 1 17.37-17.46c2.56-.03 5.13 0 7.84 0z"/><path d="m14.75 82.86h-14.75v-80.27h14.75z"/><path d="m20.72 24.63h14.85v58.19h-14.85z"/><path d="m36 15.73a8 8 0 0 1 -7.92 7.84 7.88 7.88 0 1 1 7.92-7.84z"/></g></svg>