<svg viewBox="0 0 404.37 86.39" xmlns="http://www.w3.org/2000/svg"><g fill="#b7b7b7"><path d="m0 .05c3.25 0 6.2-.11 9.12.08.62 0 1.4 1.08 1.69 1.82 3.37 8.56 6.66 17.16 10 25.75.18.47.37.93.74 1.84.42-1 .71-1.56 1-2.17 3.2-8.47 6.45-16.92 9.64-25.37.54-1.48 1.23-2.07 2.81-2 2.58.13 5.17 0 7.93 0v86.17h-12v-48.83l-.5-.12c-.27.6-.58 1.19-.8 1.8-2.08 5.6-4.12 11.21-6.26 16.79a2.93 2.93 0 0 1 -1.63 1.52c-1.22.43-1.52-.62-1.85-1.53-2.29-6.18-4.59-12.36-7.32-18.49v49c-4 0-7.73 0-11.45 0-.34 0-.78-.64-1-1.07a3.2 3.2 0 0 1 0-1.28v-83.91z"/><path d="m109 86.34c-2.89 0-5.55 0-8.21 0-1.5 0-1.49-1.1-1.73-2q-4.76-18.28-9.46-36.56a22.4 22.4 0 0 0 -1.88-5.3v43.73h-11.65v-86.13c3.45 0 7-.07 10.44.09.45 0 1 1.21 1.23 2 2.57 9.58 5.08 19.18 7.61 28.78a25.27 25.27 0 0 0 2 5.43v-36.15h11.65z"/><path d="m327.54 36.38v-36.16h11.64v86.12c-2.86 0-5.72.09-8.57-.08-.49 0-1.16-1.11-1.34-1.81q-5.25-20.13-10.4-40.3a3.56 3.56 0 0 0 -.87-1.75v43.75h-11.7v-86.09c3.46 0 6.83-.08 10.19.08.5 0 1.19 1.09 1.38 1.78 2.28 8.39 4.47 16.81 6.7 25.22.82 3.1 1.66 6.2 2.5 9.31z"/><path d="m296.29 47c2.77 13.09 5.5 26 8.3 39.27-4.15 0-8.08 0-12-.08-.37 0-.89-1.15-1-1.83q-3.27-15.72-6.47-31.47c-.25-1.27-.49-2.54-.81-3.79a5.07 5.07 0 0 0 -.73-1.21l-.64.18v38.15h-12.34v-85.83c.16-.1.27-.25.39-.25 7.63 0 15.28-.22 22.91.08 5.9.24 8.72 3.14 8.87 9 .23 9.77.14 19.56.05 29.34-.03 4.3-2.15 7.26-6.53 8.44zm-13.29-10.32c.52 0 .93.11 1.35.13 6.26.2 6.26.2 6.26-6 0-5.38 0-10.77 0-16.16 0-1.47-.05-3.08-2-3.24s-3.68 0-5.59 0z"/><path d="m231.69 42.87q0 15 0 30c0 1 0 2-.05 3-.32 6.83-3.76 10.24-10.61 10.42q-5.52.15-11 0c-6.78-.17-10.47-3.63-10.63-10.43-.21-9.27-.09-18.56-.1-27.83q0-17.81 0-35.61c0-9.3 3.13-12.41 12.5-12.39a116.16 116.16 0 0 1 11.6.31c5.21.53 7.85 3.44 8.13 8.66.21 3.88.14 7.77.15 11.65.02 7.41.01 14.82.01 22.22zm-20.07.26v28.27c0 1.07.34 2.94.86 3.07a13 13 0 0 0 5.62.22c.6-.13 1.14-2.14 1.14-3.3.07-18.27.05-36.54.05-54.81a13 13 0 0 0 -.08-3 3.13 3.13 0 0 0 -1.33-2c-3.61-1.65-6.29.07-6.29 3.91q.03 13.83.03 27.64z"/><path d="m235 .16h12.4v71c0 3.52 3.32 5.43 6.44 3.63a2.92 2.92 0 0 0 1-1.74 9.75 9.75 0 0 0 .1-2.36v-70.48h12.26c0 .73.12 1.49.12 2.24q0 35.94 0 71.88v1.51c-.21 7-3.45 10.29-10.43 10.47-3.89.1-7.79.11-11.67 0-6.41-.2-9.63-3.33-10.18-9.69-.04-.62-.04-1.3-.04-1.95z"/><path d="m340.74 86.24c3.38-28.78 6.71-57.31 10.07-85.93h16.55c3.13 28.59 6.26 57.14 9.41 85.88h-11.77c-.39-4.53-.91-9-1.11-13.52-.09-2-.74-2.44-2.57-2.33-2.43.15-4.87 0-7.47 0l-1.62 15.86zm21.64-27.19c-1.18-13.15-2.33-26.05-3.49-39.05h-.53c-1.2 13-2.39 25.92-3.6 39z"/><path d="m130.28 61.89v9.74c0 2.91.52 3.44 3.34 3.48 4.14.06 4.36-.16 4.36-4.37 0-2.81-.09-5.62 0-8.42a9.45 9.45 0 0 0 -2.64-7c-5-5.58-9.85-11.28-14.79-16.9a10.29 10.29 0 0 1 -2.64-7.1c0-6.69-.07-13.38 0-20.07.12-7.47 3.6-11 11-11.14 4-.1 7.93-.11 11.89.11 6 .33 9 3.25 9.28 9.21.25 4.66.14 9.34.17 14a11.16 11.16 0 0 1 -.2 1.34h-12.05v-8.93c0-4.25-1.88-5.69-6-4.3a3.13 3.13 0 0 0 -1.63 2.35 105.83 105.83 0 0 0 0 12.72 10 10 0 0 0 2.38 5.13c4.38 5.25 8.92 10.37 13.53 15.42a14.63 14.63 0 0 1 4.09 10.76c-.18 6.18.06 12.37-.21 18.55s-3.86 9.57-10.09 9.8c-4 .15-8.08.18-12.1 0q-9.52-.39-9.94-9.88c-.19-4.3-.12-8.62-.07-12.94 0-.53.59-1.49.94-1.5 3.75-.1 7.48-.06 11.38-.06z"/><path d="m58.67 75.16h13.94v11h-26.32v-85.93h26.33v11h-13.91v25.4h10.71v11.2h-10.75z"/><path d="m163.57 62.12h12.22v9.33s.51 3.66 3.82 3.66c3.48 0 3.86-.34 3.86-3.58v-68.42c0-3.08 0-3.07 3.18-3.07h9.21c0 1 .11 1.76.11 2.53q0 36 0 72.08a19.33 19.33 0 0 1 -.29 3.65c-.93 4.86-3.71 7.59-8.63 7.87a127.17 127.17 0 0 1 -14.48 0c-5.24-.3-8.56-3.41-8.92-8.55s-.08-10.17-.08-15.5z"/><path d="m390.57 0v75h13.8v11.23c-.7 0-1.39.11-2.08.11-7.35 0-14.71 0-22.06 0-1.78 0-2.15-.59-2.15-2.23q.06-41 0-82c0-1.57.37-2.18 2-2.13 3.41.14 6.79.02 10.49.02z"/><path d="m111.28.17h6.52c-.09.78-.11 1.46-.24 2.13q-1.36 7.4-2.77 14.78c-.5 2.65-.5 2.65-3.51 2.19z"/></g></svg>