<svg viewBox="0 0 420.12 492.48" xmlns="http://www.w3.org/2000/svg"><path d="m384.49 103h-352.31c-17.18 0-31.18 11.37-31.18 25.39v331.91c0 14 14 25.36 31.18 25.36h352.31c17.22 0 31.18-11.36 31.18-25.36v-331.91c0-14.02-13.96-25.39-31.18-25.39z" fill="#eee"/><path d="m211.38 103h-178.25c-17.74 0-32.13 11.37-32.13 25.39v331.91c0 14 14.39 25.36 32.13 25.36h178.4z" fill="#fff" stroke="#e6e4e5" stroke-miterlimit="10" stroke-width="2"/><path d="m58.42 242.39c-.76-.22-12.28-24.52-12.28-24.52a2.17 2.17 0 0 1 3.86-1.94s7.54 17.34 8.81 17.58 15.76-25.34 15.76-25.34a2.17 2.17 0 1 1 3.69 2.3s-19.07 32.15-19.84 31.92z" fill="#ff734d"/><path d="m170.73 89.24a16.22 16.22 0 1 1 16.21-16.24 16.23 16.23 0 0 1 -16.21 16.24zm0-25.13a8.92 8.92 0 1 0 8.91 8.89 8.93 8.93 0 0 0 -8.91-8.89z"/><path d="m250.08 89.24a16.22 16.22 0 1 1 16.21-16.24 16.23 16.23 0 0 1 -16.21 16.24zm0-25.13a8.92 8.92 0 1 0 8.92 8.89 8.93 8.93 0 0 0 -8.92-8.89z"/><path d="m208.75 13.6c-15.21 0-26.86 10.5-29.82 25.83h60.5c-3.14-15.15-15.3-25.83-30.68-25.83z" fill="none"/><path d="m178.93 39.43c3-15.33 14.61-25.83 29.82-25.83 15.38 0 27.54 10.68 30.68 25.83h13.79c-3.37-22.93-21.37-39.43-44.47-39.43-22.63 0-40.27 16.5-43.57 39.43z" fill="#808080"/><path d="m178.91 39.43c3-15.33 15.09-25.83 30.3-25.83v-13.6c-22.63 0-40.75 16.5-44.05 39.43z" fill="#808080"/><path d="m285.64 39.43h-152.1a9.64 9.64 0 0 0 -9.64 9.64v68.29a9.65 9.65 0 0 0 9.64 9.64h152.1a9.65 9.65 0 0 0 9.64-9.64v-68.29a9.64 9.64 0 0 0 -9.64-9.64z" fill="#fff" stroke="#e6e6e6" stroke-miterlimit="10" stroke-width="2"/><path d="m209.18 39.43h-76.05a9.64 9.64 0 0 0 -9.64 9.64v68.29a9.65 9.65 0 0 0 9.64 9.64h76.05z" fill="#eee"/><path d="m179.09 85.59a12.75 12.75 0 1 1 -12.75-12.75 12.75 12.75 0 0 1 12.75 12.75z" fill="#fff" stroke="#e6e4e5" stroke-miterlimit="10"/><path d="m266 85.59a12.75 12.75 0 1 1 -12.75-12.75 12.75 12.75 0 0 1 12.75 12.75z" fill="#eee"/><path d="m58.42 297.07c-.76-.22-12.28-24.52-12.28-24.52a2.17 2.17 0 1 1 3.86-1.95s7.54 17.34 8.81 17.59 15.76-25.34 15.76-25.34a2.17 2.17 0 1 1 3.69 2.29s-19.07 32.15-19.84 31.93z" fill="#ff734d"/><path d="m58.42 192.39c-.76-.22-12.28-24.52-12.28-24.52a2.17 2.17 0 1 1 3.88-2s7.54 17.34 8.81 17.59 15.76-25.34 15.76-25.34a2.17 2.17 0 1 1 3.69 2.29s-19.09 32.2-19.86 31.98z" fill="#ff734d"/><path d="m97.28 280.54h263.78" fill="#4f4e53"/><path d="m361.06 283.21h-263.78a2.67 2.67 0 0 1 0-5.33h263.78a2.67 2.67 0 0 1 0 5.33z" fill="#666"/><path d="m97.48 168.19h263.78" fill="#4f4e53"/><path d="m361.26 170.86h-263.78a2.67 2.67 0 0 1 0-5.33h263.78a2.67 2.67 0 1 1 0 5.33z" fill="#666"/><path d="m97.58 222.89h263.77" fill="#4f4e53"/><path d="m361.35 225.55h-263.77a2.67 2.67 0 1 1 0-5.33h263.77a2.67 2.67 0 1 1 0 5.33z" fill="#666"/><path d="m59.16 352.52c-.77-.22-12.29-24.52-12.29-24.52a2.17 2.17 0 0 1 3.89-1.94s7.54 17.34 8.81 17.58 15.76-25.34 15.76-25.34a2.17 2.17 0 1 1 3.67 2.3s-19.08 32.15-19.84 31.92z" fill="#ff734d"/><path d="m98.02 335.99h263.77" fill="#4f4e53"/><path d="m361.79 338.66h-263.79a2.67 2.67 0 1 1 0-5.33h263.79a2.67 2.67 0 1 1 0 5.33z" fill="#666"/><path d="m59.29 408.4c-.77-.22-12.29-24.52-12.29-24.52a2.17 2.17 0 0 1 3.89-1.94s7.54 17.34 8.81 17.58 15.76-25.34 15.76-25.34a2.17 2.17 0 0 1 3.69 2.3s-19.1 32.15-19.86 31.92z" fill="#ff734d"/><path d="m98.15 391.87h263.77" fill="#4f4e53"/><path d="m361.92 394.54h-263.77a2.67 2.67 0 1 1 0-5.33h263.77a2.67 2.67 0 1 1 0 5.33z" fill="#666"/><path d="m347.19 336.33a57.79 57.79 0 1 0 2.12 47.74 57.64 57.64 0 0 0 -2.12-47.74z" fill="#ff763f"/><path d="m343 338.47a53.08 53.08 0 1 0 1.95 43.84 52.9 52.9 0 0 0 -1.95-43.84z" fill="#fccd59"/><path d="m337.39 347.65c.17.45.33.9.49 1.36 2.79 8.23 3.17 15.55.84 16.33 0 0-8-.58-16.6-1.3-10.22-.85-21.42-1.87-21.77-2.31-.65-.81 28.23-26.19 28.27-26.21 2.19-.74 6 4.6 8.77 12.13zm-26.1-26.22c8.22 2.84 14.22 7 13.42 9.35 0 0-25.6 28.74-26.4 28.09s-3.31-38.37-3.31-38.4c.76-2.32 8.07-1.89 16.29.96zm-38.52 5.57c7.29-4.74 14.28-6.91 15.62-4.85 0 0 7 37.85 5.95 38.08s-32.34-20.91-32.34-20.95c-1.35-2.06 3.47-7.56 10.77-12.28zm-18.71 30.67c1.11-8.62 4-15.36 6.4-15.05.05 0 31.65 19.29 31.87 20.3s-35.82 10.94-35.86 10.93c-2.47-.32-3.47-7.56-2.41-16.19zm12.15 37.41c-6.37-5.92-10.19-12.16-8.52-14l.24-.11c3-1.38 34.32-15.38 35.22-15 .4.17-1.73 6.67-4.33 14.14-3.57 10.26-8 22.34-8 22.36-1.71 1.84-8.23-1.47-14.61-7.4zm37.45 11.3c-8.57 1.46-15.85.69-16.27-1.73 0 0 3.37-14.75 6.14-25.7 1.65-6.52 3.09-11.7 3.46-11.63s2.81 3.59 5.95 8.28c6.35 9.49 15.48 23.73 15.49 23.76.41 2.4-6.2 5.55-14.77 7.01zm19.19-10s-10.05-13-16.85-22.13c-3.53-4.75-6.18-8.46-6.13-8.81s9.36.33 18.77 1.3c9.73 1 19.6 2.18 19.62 2.19 2.14 1.19.43 8.31-3.83 15.9s-9.43 12.71-11.58 11.51z" fill="#f7931e"/><path d="m298.59 363.78a2.15 2.15 0 1 1 -1.2-2.79 2.16 2.16 0 0 1 1.2 2.79z" fill="#ffc259"/><g fill="#fff"><path d="m309 324a.77.77 0 0 1 -1.43-.58.77.77 0 0 1 1.43.58z"/><path d="m301.76 321.87a.76.76 0 0 1 -1 .39.73.73 0 1 1 1-.39z"/><path d="m308.68 332.21a.77.77 0 0 1 -1.43-.58.77.77 0 0 1 1.43.58z"/><path d="m309 337.25a.75.75 0 0 1 -1 .39.73.73 0 1 1 .54-1.35.74.74 0 0 1 .46.96z"/><path d="m303.72 335.14a.75.75 0 0 1 -1 .39.73.73 0 1 1 1-.39z"/><path d="m305.19 327.34a.78.78 0 0 1 -1.44-.58.78.78 0 0 1 1.44.58z"/><path d="m300.86 329.85a.77.77 0 1 1 -.44-1 .75.75 0 0 1 .44 1z"/><path d="m315.69 326.27a.78.78 0 1 1 -.45-1 .75.75 0 0 1 .45 1z"/><ellipse cx="317.16" cy="334.04" rx=".73" ry=".77" transform="matrix(.37266388 -.92796639 .92796639 .37266388 -111.02 503.85)"/><path d="m314.67 329.77a.77.77 0 1 1 -.44-1 .75.75 0 0 1 .44 1z"/><path d="m300 336.28a.78.78 0 0 1 -1.44-.58.78.78 0 0 1 1.44.58z"/><path d="m306.27 341.88a.77.77 0 1 1 -.44-1 .76.76 0 0 1 .44 1z"/><path d="m300.85 342.29a.75.75 0 0 1 -1 .38.73.73 0 0 1 -.44-1 .74.74 0 0 1 1-.39.76.76 0 0 1 .44 1.01z"/><path d="m308.18 346a.77.77 0 0 1 -1.43-.58.77.77 0 0 1 1.43.58z"/><path d="m303.62 346.41a.77.77 0 0 1 -1.43-.58.77.77 0 0 1 1.43.58z"/><path d="m300.16 348.16a.78.78 0 1 1 -.45-1 .75.75 0 0 1 .45 1z"/><path d="m305 350.88a.77.77 0 0 1 -1.43-.58.77.77 0 0 1 1.43.58z"/><path d="m300.79 353.45a.74.74 0 0 1 -1 .38.73.73 0 1 1 .54-1.35.76.76 0 0 1 .46.97z"/><path d="m310.78 343.69a.75.75 0 0 1 -1 .39.73.73 0 1 1 .54-1.35.75.75 0 0 1 .46.96z"/><path d="m314.07 339.65a.77.77 0 1 1 -.44-1 .76.76 0 0 1 .44 1z"/><path d="m313.17 335.58a.77.77 0 1 1 -.44-1 .75.75 0 0 1 .44 1z"/><path d="m322.05 330a.77.77 0 1 1 -.44-1 .75.75 0 0 1 .44 1z"/><path d="m272.38 331.35a.77.77 0 1 1 -1-.19.75.75 0 0 1 1 .19z"/><path d="m266.49 337.32a.78.78 0 1 1 -1.05-.19.75.75 0 0 1 1.05.19z"/><path d="m278.9 336.34a.77.77 0 1 1 -1-.19.75.75 0 0 1 1 .19z"/><path d="m283.19 339a.75.75 0 0 1 -.25 1 .74.74 0 0 1 -1-.19.77.77 0 0 1 1.29-.84z"/><path d="m278.45 342.08a.77.77 0 0 1 -1.29.85.77.77 0 0 1 1.29-.85z"/><path d="m272.91 336.4a.78.78 0 1 1 -1.05-.19.75.75 0 0 1 1.05.19z"/><path d="m272.48 341.39a.77.77 0 1 1 -1-.19.74.74 0 0 1 1 .19z"/><path d="m278.07 327.2a.76.76 0 0 1 -.26 1 .73.73 0 1 1 -.81-1.2.76.76 0 0 1 1.07.2z"/><path d="m285.92 330a.78.78 0 1 1 -1.05-.19.76.76 0 0 1 1.05.19z"/><path d="m280.35 330a.78.78 0 0 1 -1.3.85.78.78 0 0 1 1.3-.85z"/><path d="m277.22 345.83a.75.75 0 0 1 -.25 1 .73.73 0 1 1 .25-1z"/><path d="m285.43 343.86a.77.77 0 0 1 -1.29.85.77.77 0 0 1 1.29-.85z"/><path d="m282.65 348.54a.77.77 0 1 1 -1-.19.75.75 0 0 1 1 .19z"/><path d="m289.92 344.67a.78.78 0 1 1 -1.05-.18.76.76 0 0 1 1.05.18z"/><path d="m287.62 348.64a.77.77 0 1 1 -1-.19.75.75 0 0 1 1 .19z"/><path d="m287.07 352.48a.78.78 0 1 1 -1.05-.19.75.75 0 0 1 1.05.19z"/><path d="m292.06 350.1a.78.78 0 1 1 -1.05-.19.75.75 0 0 1 1.05.19z"/><path d="m291.76 355a.75.75 0 0 1 -.25 1 .73.73 0 1 1 .25-1z"/><path d="m289.51 341.21a.78.78 0 1 1 -1.05-.19.75.75 0 0 1 1.05.19z"/><path d="m288.09 336.2a.78.78 0 0 1 -1.3.84.78.78 0 0 1 1.3-.84z"/><path d="m284.24 334.6a.77.77 0 1 1 -1-.19.75.75 0 0 1 1 .19z"/><path d="m284.79 324.14a.75.75 0 0 1 -.25 1 .73.73 0 1 1 -.79-1.22.75.75 0 0 1 1.04.22z"/><path d="m256.54 360.92a.75.75 0 0 1 .62.86.76.76 0 0 1 -.83.67.77.77 0 0 1 .21-1.53z"/><path d="m257.21 369.29a.77.77 0 1 1 -.83.67.75.75 0 0 1 .83-.67z"/><path d="m264.58 359.25a.74.74 0 0 1 .61.86.73.73 0 0 1 -.82.67.75.75 0 0 1 -.62-.86.76.76 0 0 1 .83-.67z"/><path d="m269.4 357.75a.74.74 0 0 1 .61.86.75.75 0 0 1 -.82.67.76.76 0 0 1 -.62-.87.75.75 0 0 1 .83-.66z"/><path d="m268.63 363.35a.75.75 0 0 1 .62.86.73.73 0 1 1 -1.44-.2.74.74 0 0 1 .82-.66z"/><path d="m260.71 363.83a.74.74 0 0 1 .61.86.75.75 0 0 1 -.82.67.76.76 0 0 1 -.62-.87.75.75 0 0 1 .83-.66z"/><path d="m264.2 367.41a.75.75 0 0 1 .62.86.76.76 0 0 1 -.83.67.74.74 0 0 1 -.61-.86.73.73 0 0 1 .82-.67z"/><path d="m257.11 353.91a.75.75 0 0 1 .62.86.73.73 0 1 1 -1.44-.2.74.74 0 0 1 .82-.66z"/><path d="m264.39 349.82a.77.77 0 1 1 -.82.67.75.75 0 0 1 .82-.67z"/><path d="m260.75 354a.75.75 0 0 1 .62.86.73.73 0 1 1 -1.44-.2.74.74 0 0 1 .82-.66z"/><path d="m270.66 366.73a.75.75 0 0 1 .62.86.73.73 0 1 1 -1.45-.2.75.75 0 0 1 .83-.66z"/><path d="m274.54 359.23a.75.75 0 0 1 .62.86.73.73 0 1 1 -1.44-.2.74.74 0 0 1 .82-.66z"/><path d="m276.26 364.39a.75.75 0 0 1 .62.86.73.73 0 1 1 -1.44-.2.74.74 0 0 1 .82-.66z"/><path d="m278.09 356.36a.78.78 0 0 1 -.21 1.54.78.78 0 0 1 -.62-.87.76.76 0 0 1 .83-.67z"/><path d="m279.59 360.69a.76.76 0 0 1 .61.87.73.73 0 0 1 -.82.66.75.75 0 0 1 -.62-.86.76.76 0 0 1 .83-.67z"/><path d="m282.13 363.63a.75.75 0 0 1 .62.86.76.76 0 0 1 -.83.67.75.75 0 0 1 -.61-.87.73.73 0 0 1 .82-.66z"/><path d="m283.59 358.29a.76.76 0 0 1 .62.87.73.73 0 1 1 -.62-.87z"/><path d="m287.1 361.72a.75.75 0 0 1 .62.86.76.76 0 0 1 -.83.67.77.77 0 0 1 .21-1.53z"/><path d="m275.2 354.41a.77.77 0 1 1 -.83.67.75.75 0 0 1 .83-.67z"/><path d="m270.48 352.21a.77.77 0 1 1 -.83.66.75.75 0 0 1 .83-.66z"/><path d="m266.75 354.07a.76.76 0 0 1 .62.87.73.73 0 1 1 -1.44-.2.76.76 0 0 1 .82-.67z"/><path d="m259.2 346.82a.77.77 0 1 1 -.83.67.76.76 0 0 1 .83-.67z"/><path d="m328.29 382.9a.75.75 0 0 1 -.39-1 .77.77 0 0 1 1-.44.77.77 0 0 1 -.58 1.43z"/><path d="m332.39 382.23a.78.78 0 1 1 1-.23.76.76 0 0 1 -1 .23z"/><path d="m335.49 374.43a.76.76 0 0 1 -.17-1.05.73.73 0 1 1 .17 1.05z"/><path d="m332.08 371.07a.77.77 0 0 1 -.17-1.05.73.73 0 1 1 .17 1.05z"/><path d="m297.6 325.89a.76.76 0 0 1 -.17-1.05.73.73 0 1 1 1.2.81.75.75 0 0 1 -1.03.24z"/><path d="m332.88 348.76a.74.74 0 0 1 -.92-.53.73.73 0 1 1 1.4-.41.75.75 0 0 1 -.48.94z"/><path d="m330.05 341.74a.78.78 0 1 1 .48-.95.76.76 0 0 1 -.48.95z"/><path d="m326.23 353.58a.78.78 0 1 1 .48-.95.76.76 0 0 1 -.48.95z"/><path d="m322.45 356.92a.77.77 0 0 1 -.44-1.48.76.76 0 0 1 .92.54.75.75 0 0 1 -.48.94z"/><path d="m320.85 351.5a.77.77 0 0 1 -.44-1.48.77.77 0 0 1 .44 1.48z"/><path d="m327.89 347.82a.78.78 0 1 1 .48-.95.76.76 0 0 1 -.48.95z"/><path d="m323.23 346a.77.77 0 0 1 -.92-.53.76.76 0 0 1 .49-.95.74.74 0 0 1 .91.53.75.75 0 0 1 -.48.95z"/><path d="m335.23 355.4a.78.78 0 1 1 .48-.95.76.76 0 0 1 -.48.95z"/><path d="m330.26 362.11a.78.78 0 1 1 .48-.95.76.76 0 0 1 -.48.95z"/><path d="m331.85 356.77a.77.77 0 0 1 -.92-.53.76.76 0 0 1 .49-.95.74.74 0 0 1 .91.53.75.75 0 0 1 -.48.95z"/><path d="m317.62 349.24a.74.74 0 0 1 -.92-.53.73.73 0 1 1 1.4-.41.75.75 0 0 1 -.48.94z"/><path d="m317.14 357.68a.78.78 0 0 1 -.43-1.49.78.78 0 0 1 .43 1.49z"/><path d="m313.46 353.67a.74.74 0 0 1 -.91-.53.73.73 0 1 1 1.39-.41.73.73 0 0 1 -.48.94z"/><path d="m315.08 361.74a.76.76 0 0 1 -.92-.53.73.73 0 1 1 .92.53z"/><path d="m312 358.4a.74.74 0 0 1 -.92-.53.75.75 0 0 1 .48-.95.76.76 0 0 1 .92.54.75.75 0 0 1 -.48.94z"/><path d="m308.42 356.77a.75.75 0 0 1 -.91-.53.73.73 0 1 1 1.39-.42.75.75 0 0 1 -.48.95z"/><path d="m309.27 362.23a.77.77 0 1 1 .48-.94.75.75 0 0 1 -.48.94z"/><path d="m304.67 360.54a.75.75 0 0 1 -.92-.53.73.73 0 1 1 1.4-.41.74.74 0 0 1 -.48.94z"/><path d="m318.52 362.34a.77.77 0 1 1 .48-.95.76.76 0 0 1 -.48.95z"/><path d="m323.73 362.42a.78.78 0 1 1 .48-.95.76.76 0 0 1 -.48.95z"/><path d="m326.36 359.19a.77.77 0 0 1 -.43-1.48.74.74 0 0 1 .91.53.75.75 0 0 1 -.48.95z"/><path d="m336.23 362.72a.78.78 0 1 1 .48-1 .76.76 0 0 1 -.48 1z"/><path d="m324.32 341a.75.75 0 0 1 .72-.78.73.73 0 1 1 .11 1.45.76.76 0 0 1 -.83-.67z"/><path d="m324.45 380.18a.78.78 0 1 1 1-.24.76.76 0 0 1 -1 .24z"/><path d="m319.46 379.39a.73.73 0 0 1 -.17-1 .73.73 0 1 1 1.21.81.76.76 0 0 1 -1.04.19z"/><path d="m322.62 374.71a.76.76 0 0 1 -.17-1 .73.73 0 1 1 .17 1z"/><path d="m329.94 377.78a.75.75 0 0 1 -.17-1 .76.76 0 0 1 1-.23.78.78 0 0 1 -.87 1.28z"/><path d="m328.39 373a.77.77 0 0 1 .86-1.28.77.77 0 0 1 -.86 1.28z"/><path d="m328.78 388.27a.76.76 0 0 1 -.17-1 .73.73 0 1 1 1.21.81.76.76 0 0 1 -1.04.19z"/><path d="m320.44 388.72a.76.76 0 0 1 -.17-1.05.73.73 0 1 1 1.21.81.76.76 0 0 1 -1.04.24z"/><path d="m325.57 386.54a.74.74 0 0 1 -.17-1 .73.73 0 1 1 .17 1z"/><path d="m322.3 370.78a.77.77 0 1 1 1-.23.75.75 0 0 1 -1 .23z"/><path d="m315.5 375.79a.76.76 0 0 1 -.18-1.05.76.76 0 0 1 1-.23.75.75 0 0 1 .17 1.05.74.74 0 0 1 -.99.23z"/><path d="m316.24 370.4a.75.75 0 0 1 -.18-1 .76.76 0 0 1 1-.23.76.76 0 0 1 .17 1.05.74.74 0 0 1 -.99.18z"/><path d="m311.05 376.79a.77.77 0 1 1 1-.23.75.75 0 0 1 -1 .23z"/><path d="m311.62 372.25a.78.78 0 0 1 .87-1.28.74.74 0 0 1 .17 1 .76.76 0 0 1 -1.04.28z"/><path d="m310.64 368.49a.75.75 0 0 1 -.18-1.05.73.73 0 1 1 1.21.82.74.74 0 0 1 -1.03.23z"/><path d="m307 372.63a.76.76 0 0 1 -.17-1.05.74.74 0 0 1 1-.23.73.73 0 0 1 .17 1 .74.74 0 0 1 -1 .28z"/><path d="m305.34 368a.77.77 0 1 1 1-.24.75.75 0 0 1 -1 .24z"/><path d="m312.78 379.82a.75.75 0 0 1 -.17-1.05.74.74 0 0 1 1-.23.77.77 0 0 1 -.86 1.28z"/><path d="m316 383.89a.78.78 0 1 1 1-.24.76.76 0 0 1 -1 .24z"/><path d="m320.21 383.86a.77.77 0 0 1 .86-1.28.73.73 0 0 1 .17 1 .75.75 0 0 1 -1.03.28z"/><path d="m323.78 393.71a.76.76 0 0 1 -.17-1 .73.73 0 1 1 .17 1z"/><path d="m305.07 402.4a.74.74 0 0 1 .65-.84.73.73 0 1 1 .22 1.44.74.74 0 0 1 -.87-.6z"/><path d="m312.89 399.37a.75.75 0 0 1 .66-.83.72.72 0 1 1 .22 1.43.76.76 0 0 1 -.88-.6z"/><path d="m301.17 395.18a.78.78 0 1 1 .88.6.77.77 0 0 1 -.88-.6z"/><path d="m298.35 391a.75.75 0 0 1 .66-.84.74.74 0 0 1 .87.6.76.76 0 0 1 -.65.84.77.77 0 0 1 -.88-.6z"/><path d="m303.94 390.12a.78.78 0 1 1 .87.6.75.75 0 0 1 -.87-.6z"/><path d="m306.66 397.58a.78.78 0 1 1 .88.6.76.76 0 0 1 -.88-.6z"/><path d="m309.1 393.21a.75.75 0 0 1 .65-.84.74.74 0 0 1 .87.6.77.77 0 0 1 -1.52.24z"/><path d="m298.18 403.85a.78.78 0 0 1 1.53-.23.77.77 0 0 1 -1.53.23z"/><path d="m292.19 398.05a.77.77 0 0 1 1.52-.24.77.77 0 0 1 -1.52.24z"/><path d="m297.26 400.33a.76.76 0 0 1 .66-.84.75.75 0 0 1 .87.6.78.78 0 0 1 -1.53.24z"/><path d="m306.6 387.21a.74.74 0 0 1 .65-.83.73.73 0 1 1 -.65.83z"/><path d="m298.3 385.63a.78.78 0 1 1 .88.6.76.76 0 0 1 -.88-.6z"/><path d="m302.76 382.51a.77.77 0 0 1 1.52-.24.77.77 0 0 1 -1.52.24z"/><path d="m294.55 383.05a.75.75 0 0 1 .65-.84.77.77 0 0 1 .88.6.76.76 0 0 1 -.66.84.74.74 0 0 1 -.87-.6z"/><path d="m298.27 380.38a.76.76 0 0 1 .65-.84.77.77 0 0 1 .88.6.75.75 0 0 1 -.66.84.74.74 0 0 1 -.87-.6z"/><path d="m300.35 377.1a.77.77 0 0 1 1.53-.23.78.78 0 0 1 -1.53.23z"/><path d="m294.83 377.23a.77.77 0 1 1 .87.6.76.76 0 0 1 -.87-.6z"/><path d="m297.11 372.89a.77.77 0 1 1 .87.6.74.74 0 0 1 -.87-.6z"/><path d="m293.5 386.38a.78.78 0 1 1 .88.6.76.76 0 0 1 -.88-.6z"/><path d="m292.74 391.53a.77.77 0 0 1 1.52-.23.77.77 0 0 1 -1.52.23z"/><path d="m295.59 394.57a.76.76 0 0 1 .65-.84.73.73 0 1 1 .22 1.44.75.75 0 0 1 -.87-.6z"/><path d="m290.79 403.88a.77.77 0 0 1 1.53-.23.75.75 0 0 1 -.65.83.76.76 0 0 1 -.88-.6z"/><path d="m271.06 394.7a.77.77 0 0 1 1.13 1.05.77.77 0 0 1 -1.13-1.05z"/><path d="m278.29 399a.74.74 0 0 1 1.06 0 .73.73 0 1 1 -1 1.07.75.75 0 0 1 -.06-1.07z"/><path d="m274.31 387.17a.78.78 0 0 1 1.14 1.05.77.77 0 0 1 -1.07 0 .76.76 0 0 1 -.07-1.05z"/><path d="m275.85 382.36a.78.78 0 0 1 1.14 1.05.78.78 0 0 1 -1.14-1.05z"/><path d="m280 386.2a.77.77 0 0 1 1.13 1.05.77.77 0 0 1 -1.13-1.05z"/><path d="m275.83 393a.77.77 0 0 1 1.13 1 .77.77 0 0 1 -1.13-1z"/><path d="m280.77 392.17a.77.77 0 0 1 1.13 1.05.75.75 0 0 1 -1.06 0 .75.75 0 0 1 -.07-1.05z"/><path d="m265.65 390.2a.77.77 0 0 1 1.13 1.05.74.74 0 0 1 -1.06 0 .76.76 0 0 1 -.07-1.05z"/><path d="m266.49 381.9a.77.77 0 1 1 .07 1.05.74.74 0 0 1 -.07-1.05z"/><path d="m267.85 387.3a.74.74 0 0 1 1.06 0 .73.73 0 1 1 -1 1.07.74.74 0 0 1 -.06-1.07z"/><path d="m283.93 386.49a.77.77 0 0 1 1.13 1.05.77.77 0 0 1 -1.13-1.05z"/><path d="m280 379a.78.78 0 0 1 1.14 1.05.77.77 0 0 1 -1.07 0 .76.76 0 0 1 -.07-1.05z"/><path d="m285.23 380.56a.77.77 0 0 1 1.13 1.05.77.77 0 0 1 -1.13-1.05z"/><path d="m279.72 374.45a.77.77 0 0 1 1.13 1.05.74.74 0 0 1 -1.06 0 .76.76 0 0 1 -.07-1.05z"/><path d="m284.12 375.72a.77.77 0 0 1 1.13 1 .77.77 0 0 1 -1.13-1z"/><path d="m288 375.32a.78.78 0 0 1 1.14 1.05.78.78 0 0 1 -1.14-1.05z"/><path d="m284.46 371.06a.77.77 0 0 1 1.13 1.05.77.77 0 0 1 -1.13-1.05z"/><path d="m289.28 370.16a.74.74 0 0 1 1.06 0 .73.73 0 1 1 -1 1.07.75.75 0 0 1 -.06-1.07z"/><path d="m276.46 375.69a.75.75 0 0 1 1.06 0 .74.74 0 0 1 .07 1.05.74.74 0 0 1 -1.06 0 .76.76 0 0 1 -.07-1.05z"/><path d="m271.94 378.29a.75.75 0 0 1 1.06 0 .73.73 0 1 1 -1 1.07.76.76 0 0 1 -.06-1.07z"/><path d="m271.33 382.41a.74.74 0 0 1 1.06 0 .76.76 0 0 1 .07 1.06.77.77 0 0 1 -1.13-1z"/><path d="m261.05 384.42a.77.77 0 0 1 1.13 1.05.77.77 0 0 1 -1.13-1.05z"/></g><path d="m419 409.71c-6.94 27-28.28 77.51-78 53-52.95-15.7-32-66.13-20.65-92.23 10.77-24.74 37.57-23.63 49.17-11.4 4.71 5 6.91 11.79 9.78 12.84s5.15-.16 8.85-.31c15.04-.61 37.28 12.98 30.85 38.1z" fill="#c1272d"/><path d="m341 462.72c-52.95-15.7-32-66.13-20.65-92.23 10.77-24.74 37.57-23.63 49.17-11.4 4.71 5 6.91 11.79 9.78 12.84z" fill="#c1272d"/><path d="m378.73 321.34c5.19 5.2 7.92 24.51 7.23 26.05s-20.85-2.07-26-7.26-9.26-25.62-8.43-27.27 22.02 3.28 27.2 8.48z" fill="#006837"/><path d="m378.73 321.34c5.19 5.2 7.92 24.51 7.23 26.05s-35.3-32.88-34.47-34.53 22.06 3.28 27.24 8.48z" fill="#22b573"/><path d="m349.51 383.23c-9.47 1.35-16.26 11.44-19.47 15.41-1.2 1.49-2.2-.19-2.2-.19s2.06-16.14 5.08-23.64 12-10.95 20.09-7.7 4.51 14.99-3.5 16.12z" fill="#ed1c24"/><path d="m412.82 336.44a5.1 5.1 0 0 0 -8.27-5.58 18.76 18.76 0 0 0 -2.61.8c-.62.25-1.28.5-1.95.81l-2.07 1.1c-.68.43-1.37.91-2.09 1.4s-1.36 1.1-2.05 1.69a31.49 31.49 0 0 0 -3.72 4.14 37.36 37.36 0 0 0 -3.09 4.83 54 54 0 0 0 -2.44 5.17c-2.86 7-4.4 14.14-6 19a24.08 24.08 0 0 1 -1.25 3.11 19.09 19.09 0 0 0 -.65 4.08l1.57.64a16 16 0 0 0 2.73-2.58 27.94 27.94 0 0 0 1.86-3.54c2.3-5.13 4.5-11.92 7.72-18a47.23 47.23 0 0 1 2.57-4.29 29.35 29.35 0 0 1 2.88-3.65 23.59 23.59 0 0 1 3-2.79l1.53-1 1.51-.78 1.41-.58c.46-.16.91-.26 1.32-.39.83-.25 1.42-.25 2-.4l.94-.08a5.1 5.1 0 0 0 5.15-3.11z" fill="#636363"/><path d="m344.55 463.92c-.35.86-2.17.94-4.08.18s-3.16-2.08-2.81-3 2.17-.94 4.07-.18 3.16 2.14 2.82 3z" fill="#3b4957"/><path d="m271.08 431.86v.12l.24-.24z"/><path d="m277.92 423.89h.32c-.09-.11-.24-.11-.32 0z"/><path d="m271.35 431.74c-.06 0-.64.6-1.24 1.14a12.1 12.1 0 0 0 1-.92 9.88 9.88 0 0 1 .4 1.69c7.38 4.2 15 8.74 16.68 9.55a15.61 15.61 0 0 1 1.41-2.64c-3.51-4.74-7.69-10.49-12.21-16.78-4.29-.6-4.02 5.74-6.04 7.96z" fill="none"/><path d="m269.61 433.31c.18-.14.37-.27.53-.41z"/><path d="m307.7 417.66c-.41 0-.83 0-1.23 0a11.56 11.56 0 0 1 -5.61-1.61c.25 7.87.69 15.35.82 16.53a5.32 5.32 0 0 0 -2.86.85c-2.88-3.89-6.46-8.79-10.69-14.66-.29-.07-.55-.06-.67.08a13.86 13.86 0 0 1 -2.46 2.9c-2.08 1.42-7.05 2-7.08 2.14a5.34 5.34 0 0 0 -.53-.09c4.52 6.29 8.7 12 12.21 16.78a15.61 15.61 0 0 0 -1.41 2.64c-1.68-.81-9.3-5.35-16.68-9.55a10.53 10.53 0 0 1 -.07 3.71 10.94 10.94 0 0 1 -.29 1.26 10.57 10.57 0 0 1 -4.58 5.75c8.43 4.83 18.05 10.48 21.43 11.61.45 1.1 14.33 20.94 14.33 20.94 7 13.38 15.79 8.94 23.55 3.44s14.16-10 4.54-23.36c0 0-14.3-20-15-20.68.1-2.65-1.17-11.91-2.09-20.59a10.92 10.92 0 0 1 -5.63 1.91z" fill="#39b54a"/><path d="m284.31 422.14c-2.16 1.18-6.37 1.64-6.39 1.76-.19 0-.36-.07-.53-.1 4.51 6.29 8.7 12 12.21 16.79a14.55 14.55 0 0 0 -1.42 2.63c-1.67-.81-9.3-5.35-16.67-9.54a10.78 10.78 0 0 1 -.07 3.71 9.59 9.59 0 0 1 -.3 1.26 10.54 10.54 0 0 1 -4.58 5.74c8.4 4.83 18.06 10.48 21.4 11.57.45 1.11 14.33 20.94 14.33 20.94 7 13.38 15.65 9 23.4 3.54z" fill="#39b54a"/><path d="m270.14 432.9 1.37.77a9.88 9.88 0 0 0 -.4-1.69 12.1 12.1 0 0 1 -.97.92z" fill="#80cf99"/><path d="m270.14 432.9c-.16.14-.35.27-.53.41a5.27 5.27 0 0 1 -.43.34 13.38 13.38 0 0 1 -2.42 1.28 12.36 12.36 0 0 1 -2.79.74c-.34.05-.68.06-1 .08a12.35 12.35 0 0 1 -12.08-17.39 12.4 12.4 0 0 1 -3.06-3.11 12.87 12.87 0 0 1 -1-1.69 10.49 10.49 0 0 0 -2.23 3.82c0 .06 0 .12-.05.18a10.61 10.61 0 0 0 -7.13 19.44 10.6 10.6 0 0 0 8.77 17.1 10.6 10.6 0 1 0 18.75-8.91 10.81 10.81 0 0 0 1.63-.82 10.57 10.57 0 0 0 4.58-5.75 10.94 10.94 0 0 0 .29-1.26 10.53 10.53 0 0 0 .07-3.71z" fill="#009245"/><path d="m318.15 383.94h-.15a11 11 0 0 0 -21.51.51 11 11 0 0 0 -3.73-.44 11.19 11.19 0 0 0 -1.84.28 12.15 12.15 0 0 1 3.81 7 12.38 12.38 0 0 1 6.09 22.4l-.25.19c-.37.25-.76.48-1.15.69a12.38 12.38 0 0 0 1.47 1.51 11.56 11.56 0 0 0 5.61 1.61h1.23a10.92 10.92 0 0 0 5.58-2 9.42 9.42 0 0 0 1-.7 11 11 0 0 0 4.34 3 11 11 0 0 0 10.49-19.14 11.13 11.13 0 0 0 .72-4.59 11 11 0 0 0 -11.71-10.32z" fill="#009245"/><path d="m294.7 391.26a12.41 12.41 0 0 0 -19.2-8.09l-.17.13a12.39 12.39 0 0 0 -20.45 13 12.19 12.19 0 0 0 -3.88 1.7 12.39 12.39 0 0 0 -4.2 15.54 12.87 12.87 0 0 0 1 1.69 12.4 12.4 0 0 0 3.06 3.11 12.35 12.35 0 0 0 12.08 17.39c.35 0 .69 0 1-.08a12.36 12.36 0 0 0 2.79-.74 13.38 13.38 0 0 0 2.42-1.28l.43-.34.5-.43c.6-.54 1.18-1.12 1.24-1.14 2-2.22 1.75-8.56 6-7.94a5.34 5.34 0 0 1 .53.09c0-.11 5-.72 7.08-2.14a13.86 13.86 0 0 0 2.46-2.9c.12-.14.38-.15.67-.08 3.12 1.66 7.69-.35 9.57-2.89.2-.27.35-1.66 1.69-1.34.39-.21.78-.44 1.15-.69l.25-.19a12.39 12.39 0 0 0 -6.09-22.4z" fill="#009245"/><path d="m269.61 433.31-.43.34a5.27 5.27 0 0 0 .43-.34z" fill="#8ad6a3"/><path d="m261 398.6c.62.87.13 2.26-1.08 3.12s-2.68.85-3.3 0-.13-2.26 1.08-3.12 2.7-.86 3.3 0z" fill="#fff" opacity=".3"/><path d="m264.31 385.13c.61.86.13 2.26-1.08 3.11s-2.69.86-3.3 0-.13-2.26 1.08-3.12 2.68-.86 3.3.01z" fill="#fff" opacity=".3"/><path d="m271 399.19c.61.87.13 2.27-1.08 3.12s-2.69.86-3.3 0-.13-2.26 1.08-3.12 2.68-.86 3.3 0z" fill="#fff" opacity=".3"/><path d="m277.2 394c.61.87.12 2.26-1.08 3.12s-2.69.85-3.3 0-.13-2.26 1.08-3.12 2.69-.85 3.3 0z" fill="#fff" opacity=".3"/><path d="m264.17 404.83c.62.86.13 2.26-1.08 3.11s-2.68.86-3.3 0-.13-2.26 1.08-3.11 2.69-.83 3.3 0z" fill="#fff" opacity=".3"/><path d="m264.32 412.55c.62.87.13 2.26-1.08 3.12s-2.68.85-3.3 0-.13-2.26 1.08-3.12 2.69-.86 3.3 0z" fill="#fff" opacity=".3"/><path d="m264.36 427.19c.61.87.13 2.26-1.08 3.12s-2.69.85-3.3 0-.13-2.26 1.08-3.12 2.69-.86 3.3 0z" fill="#fff" opacity=".3"/><path d="m255.12 407.32c.62.86.13 2.26-1.08 3.12s-2.68.85-3.3 0-.13-2.27 1.08-3.12 2.69-.87 3.3 0z" fill="#fff" opacity=".3"/><path d="m278.83 412.23c.61.86.13 2.26-1.08 3.11s-2.69.86-3.3 0-.13-2.26 1.08-3.12 2.69-.86 3.3.01z" fill="#fff" opacity=".3"/><path d="m287.73 413.5c.61.86.13 2.26-1.08 3.12s-2.69.85-3.3 0-.13-2.25 1.08-3.11 2.68-.88 3.3-.01z" fill="#fff" opacity=".3"/><path d="m297.79 409.11c.61.87.13 2.27-1.08 3.12s-2.69.86-3.3 0-.13-2.26 1.08-3.11 2.69-.87 3.3-.01z" fill="#fff" opacity=".3"/><path d="m284.4 403.33c.62.87.13 2.26-1.08 3.12s-2.68.86-3.3 0-.13-2.26 1.08-3.12 2.69-.86 3.3 0z" fill="#fff" opacity=".3"/><path d="m285.25 395.78c.62.87.13 2.26-1.08 3.12s-2.68.85-3.3 0-.13-2.26 1.08-3.12 2.69-.86 3.3 0z" fill="#fff" opacity=".3"/><path d="m294.48 402.14c.61.86.13 2.26-1.08 3.12s-2.69.85-3.3 0-.13-2.25 1.08-3.11 2.69-.88 3.3-.01z" fill="#fff" opacity=".3"/><path d="m294.27 393.05c.62.86.13 2.26-1.08 3.12s-2.69.85-3.3 0-.13-2.26 1.08-3.12 2.69-.87 3.3 0z" fill="#fff" opacity=".3"/><path d="m302.21 385.67c.61.87.13 2.26-1.08 3.12s-2.69.86-3.3 0-.13-2.26 1.08-3.12 2.69-.86 3.3 0z" fill="#fff" opacity=".3"/><path d="m308.09 379.15c.62.87.13 2.26-1.08 3.12s-2.69.85-3.3 0-.13-2.26 1.08-3.12 2.69-.86 3.3 0z" fill="#fff" opacity=".3"/><path d="m318.4 387c.61.86.13 2.26-1.08 3.11s-2.69.86-3.3 0-.13-2.25 1.08-3.11 2.69-.83 3.3 0z" fill="#fff" opacity=".3"/><path d="m325.35 389.56c.62.87.13 2.26-1.08 3.12s-2.68.86-3.3 0-.13-2.26 1.08-3.12 2.69-.86 3.3 0z" fill="#fff" opacity=".3"/><path d="m313.65 401.8c.61.87.13 2.27-1.08 3.12s-2.68.85-3.3 0-.12-2.26 1.08-3.12 2.65-.86 3.3 0z" fill="#fff" opacity=".3"/><path d="m320.56 411.54c.61.87.13 2.26-1.08 3.12s-2.69.85-3.3 0-.13-2.26 1.08-3.12 2.68-.87 3.3 0z" fill="#fff" opacity=".3"/><path d="m309.75 409.27c.62.87.13 2.27-1.08 3.12s-2.69.86-3.3 0-.13-2.26 1.08-3.11 2.69-.87 3.3-.01z" fill="#fff" opacity=".3"/><path d="m327 396.48c.61.86.12 2.26-1.08 3.12s-2.69.85-3.3 0-.13-2.25 1.08-3.11 2.65-.88 3.3-.01z" fill="#fff" opacity=".3"/><path d="m319.89 395.79c.62.86.13 2.26-1.08 3.11s-2.68.86-3.3 0-.13-2.26 1.08-3.13 2.69-.85 3.3.02z" fill="#fff" opacity=".3"/><path d="m310.39 393.76c.61.86.13 2.26-1.08 3.12s-2.69.85-3.3 0-.13-2.26 1.08-3.11 2.68-.88 3.3-.01z" fill="#fff" opacity=".3"/><path d="m322.08 403.51c.61.86.13 2.26-1.08 3.12s-2.69.85-3.3 0-.13-2.26 1.08-3.12 2.69-.86 3.3 0z" fill="#fff" opacity=".3"/><path d="m329.77 409.71c.61.86.13 2.26-1.08 3.12s-2.69.85-3.3 0-.13-2.26 1.08-3.12 2.69-.86 3.3 0z" fill="#fff" opacity=".3"/><path d="m309.75 385c.62.86.13 2.26-1.08 3.12s-2.69.85-3.3 0-.13-2.25 1.08-3.11 2.69-.84 3.3-.01z" fill="#fff" opacity=".3"/><path d="m238.68 423.68c.62.87 2.09.87 3.3 0s1.7-2.26 1.08-3.12-2.09-.87-3.3 0-1.69 2.26-1.08 3.12z" fill="#fff" opacity=".3"/><path d="m234.46 430.44c.62.87 2.09.87 3.31 0s1.69-2.25 1.08-3.12-2.09-.87-3.31 0-1.69 2.26-1.08 3.12z" fill="#fff" opacity=".3"/><path d="m239.11 439c.62.86 2.09.87 3.3 0s1.7-2.26 1.08-3.12-2.09-.87-3.3 0-1.69 2.24-1.08 3.12z" fill="#fff" opacity=".3"/><path d="m238.5 447.41c.62.86 2.09.87 3.3 0s1.7-2.25 1.08-3.12-2.09-.87-3.3 0-1.69 2.26-1.08 3.12z" fill="#fff" opacity=".3"/><path d="m255 442c.61.87 2.09.87 3.3 0s1.69-2.26 1.08-3.12-2.09-.87-3.3 0-1.71 2.27-1.08 3.12z" fill="#fff" opacity=".3"/><path d="m258.94 451c.61.86 2.09.86 3.3 0s1.69-2.25 1.08-3.11-2.09-.87-3.3 0-1.7 2.26-1.08 3.11z" fill="#fff" opacity=".3"/><path d="m263.05 441.7c.61.86 2.09.87 3.3 0s1.69-2.26 1.08-3.12-2.09-.87-3.3 0-1.69 2.25-1.08 3.12z" fill="#fff" opacity=".3"/><path d="m244.77 451.61c.61.86 2.09.87 3.3 0s1.7-2.26 1.08-3.12-2.09-.87-3.3 0-1.69 2.25-1.08 3.12z" fill="#fff" opacity=".3"/><path d="m246.49 442.75c.61.86 2.09.87 3.3 0s1.69-2.25 1.08-3.12-2.09-.87-3.3 0-1.69 2.26-1.08 3.12z" fill="#fff" opacity=".3"/><path d="m251.4 451.66c.61.86 2.09.87 3.3 0s1.69-2.25 1.08-3.12-2.09-.86-3.3 0-1.7 2.26-1.08 3.12z" fill="#fff" opacity=".3"/><path d="m255.78 459.5c.61.86 2.09.87 3.3 0s1.69-2.26 1.08-3.12-2.09-.87-3.3 0-1.7 2.25-1.08 3.12z" fill="#fff" opacity=".3"/><path d="m246.7 433.77c.61.86 2.09.86 3.3 0s1.69-2.25 1.08-3.11-2.09-.87-3.3 0-1.69 2.24-1.08 3.11z" fill="#fff" opacity=".3"/><path d="m243.22 428.86c.61.87 2.09.87 3.3 0s1.7-2.25 1.08-3.12-2.09-.87-3.3 0-1.69 2.26-1.08 3.12z" fill="#fff" opacity=".3"/><path d="m302.14 400.09a2.71 2.71 0 1 1 -3.89-.8 2.81 2.81 0 0 1 3.89.8z" fill="#fff" opacity=".3"/><path d="m285 385.33c.61.86.13 2.26-1.08 3.12s-2.69.85-3.3 0-.13-2.26 1.08-3.12 2.72-.86 3.3 0z" fill="#fff" opacity=".3"/><path d="m274.4 386.75c.61.87.13 2.26-1.08 3.12s-2.69.86-3.3 0-.13-2.26 1.08-3.12 2.69-.86 3.3 0z" fill="#fff" opacity=".3"/><path d="m264.58 392.14c.62.87.13 2.26-1.08 3.12s-2.68.85-3.3 0-.13-2.26 1.08-3.12 2.72-.86 3.3 0z" fill="#fff" opacity=".3"/><path d="m274.13 405.6c.61.86.13 2.26-1.08 3.11s-2.69.86-3.3 0-.13-2.26 1.08-3.12 2.68-.86 3.3.01z" fill="#fff" opacity=".3"/><path d="m271.12 419.26c.61.86.13 2.26-1.08 3.12s-2.69.85-3.3 0-.13-2.26 1.08-3.12 2.69-.86 3.3 0z" fill="#fff" opacity=".3"/><path d="m257.4 419.81c.62.87.13 2.26-1.08 3.12s-2.68.85-3.3 0-.13-2.26 1.08-3.12 2.69-.81 3.3 0z" fill="#fff" opacity=".3"/><path d="m353.85 492.08a18.35 18.35 0 0 0 14.15-9.26 19 19 0 0 0 -2.79-22.55 18.32 18.32 0 0 0 -15-5.62c-.56.06-1.11.14-1.66.24-.21 0-.41 0-.64 0-10.78.11-119.22 26.9-118.91 30.41s114.44 8.7 124.85 6.78z" fill="#ff763f"/><path d="m370 471.79a19 19 0 0 0 -5.18-11.32 18.34 18.34 0 0 0 -15-5.61c-.56.06-1.11.14-1.66.24h-.64c-10.79.11-119.23 26.92-118.88 30.43z" fill="#ff763f"/><path d="m346.63 464.69c-.05-.63-.27-4.2-.41-5.13-.11-.68 1.35-1 1.31-.11.1 1.17.39 4.6.42 5.14s-1.27.74-1.32.1z" fill="#fccd59"/><path d="m356.85 474.32c-.05-.64-.27-4.2-.41-5.14-.11-.67 1.35-1 1.31-.11.1 1.17.39 4.6.42 5.14s-1.26.79-1.32.11z" fill="#fccd59"/><path d="m350 485.1c0-.63-.28-4.2-.42-5.13-.11-.68 1.36-1 1.32-.11.1 1.17.39 4.6.42 5.14s-1.24.74-1.32.1z" fill="#fccd59"/><path d="m330.81 467.13c-.05-.64-.27-4.2-.41-5.14-.11-.67 1.35-1 1.31-.1.1 1.17.39 4.6.42 5.13s-1.26.74-1.32.11z" fill="#fccd59"/><path d="m341 476.75c-.06-.63-.28-4.2-.42-5.14-.11-.67 1.35-1 1.32-.1.09 1.17.38 4.6.41 5.13s-1.22.75-1.31.11z" fill="#fccd59"/><path d="m334.21 487.54c0-.64-.28-4.2-.42-5.14-.11-.67 1.35-1 1.32-.11.1 1.18.39 4.61.41 5.14s-1.26.75-1.31.11z" fill="#fccd59"/><path d="m314.84 470c0-.64-.28-4.2-.41-5.14-.11-.67 1.35-1 1.31-.11.1 1.18.39 4.61.42 5.14s-1.27.75-1.32.11z" fill="#fccd59"/><path d="m324.94 478.31c-.05-.63-.28-4.2-.42-5.13-.11-.68 1.35-1 1.32-.11.09 1.17.38 4.6.41 5.14s-1.25.79-1.31.1z" fill="#fccd59"/><path d="m307.1 480c-.05-.63-.28-4.2-.42-5.13-.11-.68 1.36-1 1.32-.11.1 1.17.39 4.6.42 5.14s-1.27.78-1.32.1z" fill="#fccd59"/><path d="m267.07 483c-.05-.64-.28-4.2-.42-5.14-.11-.67 1.35-1 1.32-.11.1 1.17.39 4.61.41 5.14s-1.26.77-1.31.11z" fill="#fccd59"/><path d="m253.78 485c-.05-.63-.28-4.2-.42-5.14-.11-.67 1.36-.95 1.32-.1.1 1.17.39 4.6.41 5.14s-1.26.71-1.31.1z" fill="#fccd59"/><path d="m288.72 480.93c-.05-.64-.28-4.2-.42-5.14-.11-.67 1.36-1 1.32-.11.1 1.17.39 4.6.42 5.14s-1.27.74-1.32.11z" fill="#fccd59"/><path d="m316.62 488.34c-.05-.63-.28-4.2-.41-5.13-.11-.68 1.35-1 1.31-.11.1 1.17.39 4.6.42 5.14s-1.27.76-1.32.1z" fill="#fccd59"/><path d="m297.24 473.49c-.05-.63-.28-4.2-.41-5.14-.12-.67 1.35-1 1.31-.1.1 1.17.39 4.6.41 5.13s-1.26.75-1.31.11z" fill="#fccd59"/><path d="m298.57 487.23c-.05-.64-.27-4.2-.41-5.14-.11-.67 1.35-1 1.31-.11.1 1.18.39 4.61.42 5.14s-1.27.75-1.32.11z" fill="#fccd59"/><path d="m277.36 477.75c-.06-.64-.28-4.2-.42-5.14-.11-.67 1.35-1 1.32-.11.1 1.17.38 4.6.41 5.14s-1.26.74-1.31.11z" fill="#fccd59"/><path d="m278.24 486.89c-.05-.64-.28-4.2-.41-5.14-.11-.67 1.35-1 1.31-.11.1 1.17.39 4.61.42 5.14s-1.27.74-1.32.11z" fill="#fccd59"/><path d="m391.14 486.79c-2.6-1.21-17.2-7.22-16.86-7.89s31.47 7.43 33.44 8 4.92-5 1.53-5.77-33.78-6.52-33.66-8 32.83-2.86 34.18-3.32 1.47-6.06-.57-5.91-34.2 3.5-34.14 2.1 27.26-7.59 30.76-8.66 1-6.47-1.69-5.7-27.36 8.49-27.72 7.8 20.24-12.06 22.13-13.94-1.14-6.36-3.37-5l-30.57 19.26a19.05 19.05 0 0 1 2.79 22.55c7.22 3.39 19.14 9 21 9.82 2.7 1.24 5.34-4.13 2.75-5.34z" fill="#22b573"/></svg>