<svg viewBox="0 0 404.8 443.37" xmlns="http://www.w3.org/2000/svg"><path d="m214.52.05h-22.11c-27.32 14.36-106.51 47.6-183.7 0h-8.71v200.11h.67c11.19 88.4 163.69 243.21 201.73 243.21 39.49 0 202.4-166.89 202.4-253l-.66-190.32h-8.14c-66.16 43.01-150.52 13.46-181.48 0z" fill="#ff763f"/><path d="m203.11 0-10.7.05c-27.32 14.36-106.51 47.6-183.7 0h-8.71v200.11h.67c11.19 88.4 163.69 243.21 201.73 243.21z" fill="#ff8f66"/><g fill="#fff"><path d="m51 49.1h-9.92v-3.81c0-2.1 2.21-3.8 4.94-3.8h4.98z"/><path d="m51 188.37h-9.92v-7.74h9.92zm0-15.48h-9.92v-7.73h9.92zm0-15.47h-9.92v-7.74h9.92zm0-15.48h-9.92v-7.73h9.92zm0-15.47h-9.92v-7.74h9.92zm0-15.47h-9.92v-7.73h9.92zm0-15.47h-9.92v-7.75h9.92zm0-15.53h-9.92v-7.69h9.92zm0-15.47h-9.92v-7.7h9.92z"/><path d="m42.22 204.21c-.13-.76-.25-1.51-.37-2.25a3.2 3.2 0 0 1 -.77-2.05v-3.81h9.92v2.11a3.08 3.08 0 0 1 .5 1.33c.15 1.19.34 2.4.56 3.63z"/><path d="m202.37 391.63a21.61 21.61 0 0 1 -5.08-.66l3-7.26a8.88 8.88 0 0 0 2.12.31 12.74 12.74 0 0 0 3.92-.83l4 7a24.57 24.57 0 0 1 -7.89 1.47zm-15.13-4.63c-2.58-1.33-5.38-3-8.33-4.88l6.35-5.83c2.67 1.73 5.19 3.21 7.48 4.4zm32.46-1.15-5.77-6.17c2.29-1.27 4.78-2.81 7.41-4.58l6.48 5.74c-2.82 1.91-5.58 3.59-8.12 5zm-48.41-9q-3.51-2.55-7.22-5.51l7.09-5.3q3.56 2.84 6.91 5.29zm64.05-1.34-6.89-5.51q3.35-2.49 6.87-5.35l7.15 5.25c-2.47 2-4.83 3.86-7.13 5.59zm-78.18-9.85q-3.28-2.79-6.68-5.82l7.48-5c2.2 2 4.37 3.86 6.51 5.67zm92.15-1.43-7.31-5.1q3.18-2.75 6.47-5.71l7.51 4.94q-3.4 3.05-6.67 5.85zm-105.31-10.34q-3.13-2.92-6.31-6l7.73-4.73q3.12 3 6.2 5.91zm118.38-1.48-7.65-4.81q3.06-2.88 6.16-5.93l7.77 4.7q-3.15 3.11-6.28 6.04zm-130.86-10.63q-3-3-6-6.18l7.94-4.52q3 3.09 5.92 6.08zm143.26-1.53-7.87-4.6c2-2 3.93-4 5.89-6.1l8 4.5q-3.03 3.15-6.02 6.2zm-155.16-10.9q-2.88-3.12-5.76-6.32l8.14-4.33c1.89 2.1 3.78 4.18 5.68 6.22zm167-1.57-8.06-4.4q2.83-3.08 5.64-6.24l8.15 4.3q-2.84 3.21-5.72 6.34zm-178.4-11.14q-2.78-3.19-5.5-6.45l8.28-4.13q2.7 3.19 5.43 6.35zm189.78-1.64-8.23-4.21c1.81-2.1 3.61-4.23 5.39-6.37l8.31 4.11c-1.85 2.22-3.67 4.37-5.47 6.47zm-200.65-11.32q-2.66-3.27-5.25-6.59l8.45-3.93q2.57 3.25 5.17 6.48zm211.42-1.63-8.39-4q2.6-3.23 5.13-6.49l8.48 3.9q-2.58 3.32-5.22 6.59zm-221.77-11.61c-1.68-2.22-3.34-4.46-5-6.7l8.64-3.74q2.4 3.32 4.88 6.6zm232.08-1.66-8.55-3.8c1.64-2.2 3.26-4.41 4.84-6.62l8.63 3.64c-1.61 2.29-3.26 4.54-4.93 6.78zm-241.87-11.78q-2.38-3.43-4.65-6.86l8.79-3.46c1.48 2.24 3 4.48 4.56 6.72zm251.57-1.71-8.73-3.57c1.55-2.24 3.06-4.49 4.52-6.73l8.82 3.42c-1.5 2.25-3.04 4.59-4.61 6.84zm-260.7-12.12q-2.2-3.53-4.28-7l9-3.15c1.35 2.27 2.75 4.56 4.18 6.85zm269.74-1.75-8.91-3.28q2.14-3.45 4.14-6.87l9 3.11q-2.05 3.51-4.23 7.04zm-278.09-12.36c-1.33-2.42-2.61-4.81-3.82-7.19l9.19-2.79q1.77 3.48 3.72 7zm286.33-1.8-9.06-2.93q1.92-3.53 3.65-7l9.22 2.72c-1.24 2.38-2.5 4.79-3.81 7.21zm-293.69-12.69c-1.15-2.49-2.23-5-3.22-7.4l9.42-2.28q1.44 3.53 3.1 7.13zm300.91-1.84-9.28-2.49c1.08-2.4 2.09-4.79 3-7.14l9.45 2.2c-1 2.45-2.04 4.92-3.17 7.43zm-306.95-13.09c-.89-2.59-1.68-5.14-2.35-7.65l9.66-1.54c.64 2.37 1.39 4.79 2.23 7.25zm312.79-1.9-9.57-1.85q1.2-3.7 2.09-7.27l9.7 1.43q-.94 3.78-2.22 7.69zm3.8-15.52-9.8-.89a64.41 64.41 0 0 0 .7-7.29l9.87.2a69.51 69.51 0 0 1 -.77 7.98zm-9.09-15.72v-7.66h9.87v7.65zm-.06-15.31v-7.65h9.87v7.65zm0-15.31v-7.65h9.88v7.65zm-.05-15.3v-7.66h9.87v7.66zm-.06-15.31v-7.66h9.87v7.66zm-.1-15.27v-7.66h9.87v7.65zm-.05-15.31v-7.65h9.87v7.65zm-.05-15.31v-7.65h9.88v7.65zm0-15.3v-7.66h9.87v7.66z"/><path d="m353.35 49.11v-7.62h4.94c2.72 0 4.93 1.69 4.93 3.79v3.81z"/><path d="m120.2 68.2c-2.27 0-4.56 0-6.88-.17l.63-7.59c3.15.15 6.26.18 9.31.11l.29 7.61c-1.11.03-2.23.04-3.35.04zm13.54-.63-1.17-7.57c3.05-.28 6.16-.67 9.25-1.15l2 7.45c-3.38.54-6.76.96-10.08 1.27zm-30.6-.41c-3.36-.42-6.74-1-10-1.64l2.5-7.36c3 .61 6 1.11 9.1 1.48zm186.12-.7c-3 0-6.08-.09-9.15-.27l.74-7.58c2.77.16 5.58.24 8.41.24h.95l.07 7.61zm11.25-.46-1-7.58c3.12-.24 6.21-.6 9.19-1.06l1.94 7.47c-3.28.55-6.7.94-10.13 1.17zm-30.51-.69c-3.25-.38-6.59-.86-9.94-1.43l2.14-7.43c3.13.54 6.25 1 9.28 1.34zm-116.36-.87-2.72-7.32c3-.65 6-1.41 9-2.25l3.38 7.13c-3.22.92-6.46 1.74-9.64 2.44zm-70.31-1.29c-3.15-.89-6.33-1.92-9.43-3.06l4.25-6.87c2.83 1 5.72 2 8.59 2.79zm237.29-.24-2.93-7.27c2.95-.71 5.86-1.54 8.67-2.47l3.92 7c-3.13 1.02-6.38 1.95-9.66 2.74zm-70.31-.91q-5-1.11-9.59-2.36l3.28-7.23c2.91.79 5.93 1.54 9 2.23zm-77.65-2.88-4-6.95c3-1 5.87-2.12 8.52-3.18l4.58 6.74c-2.83 1.1-5.87 2.27-9.1 3.35zm58.68-2.24q-4.89-1.56-9.17-3.13l4.21-6.88c2.71 1 5.62 2 8.72 3zm108.16-.22-4.85-6.66c2.65-1.15 5.28-2.44 7.82-3.82l5.71 6.21c-2.82 1.52-5.74 2.95-8.68 4.23zm-274.6-.27c-2.88-1.3-5.75-2.74-8.55-4.26l5.65-6.22c2.58 1.4 5.23 2.72 7.87 3.92zm125.64-4.52-5.12-6.51c2.46-1.15 4.63-2.24 6.48-3.21a6 6 0 0 1 2.79-.66h1.81v5.85l1 1.09-1 .51v.16h-.31c-1.68.9-3.57 1.79-5.65 2.77zm22.66-1.63-2.73-1.14h-4.19v-7.61h5.48a6 6 0 0 1 2.43.49c1.13.49 2.36 1 3.67 1.55z"/><path d="m176.36 301.53h-.77a19.37 19.37 0 0 1 -16.39-10.37l-52.2-99.62a19.37 19.37 0 0 1 34.31-18l36.55 69.79 84.85-134.77a19.37 19.37 0 0 1 32.79 20.64l-102.75 163.28a19.36 19.36 0 0 1 -16.39 9.05z"/></g></svg>