<svg viewBox="0 0 480.77 487.27" xmlns="http://www.w3.org/2000/svg"><path d="m384.49 103h-352.31c-17.18 0-31.18 11.37-31.18 25.39v331.91c0 14 14 25.36 31.18 25.36h352.31c17.22 0 31.18-11.36 31.18-25.36v-331.91c0-14.02-13.96-25.39-31.18-25.39z" fill="#eee"/><path d="m211.38 103h-178.25c-17.74 0-32.13 11.37-32.13 25.39v331.91c0 14 14.39 25.36 32.13 25.36h178.4z" fill="#fff" stroke="#e6e4e5" stroke-miterlimit="10" stroke-width="2"/><path d="m58.42 242.39c-.76-.22-12.28-24.52-12.28-24.52a2.17 2.17 0 0 1 3.86-1.94s7.54 17.34 8.81 17.58 15.76-25.34 15.76-25.34a2.17 2.17 0 1 1 3.69 2.3s-19.07 32.15-19.84 31.92z" fill="#ff734d"/><path d="m170.73 89.24a16.22 16.22 0 1 1 16.21-16.24 16.23 16.23 0 0 1 -16.21 16.24zm0-25.13a8.92 8.92 0 1 0 8.91 8.89 8.93 8.93 0 0 0 -8.91-8.89z"/><path d="m250.08 89.24a16.22 16.22 0 1 1 16.21-16.24 16.23 16.23 0 0 1 -16.21 16.24zm0-25.13a8.92 8.92 0 1 0 8.92 8.89 8.93 8.93 0 0 0 -8.92-8.89z"/><path d="m208.75 13.6c-15.21 0-26.86 10.5-29.82 25.83h60.5c-3.14-15.15-15.3-25.83-30.68-25.83z" fill="none"/><path d="m178.93 39.43c3-15.33 14.61-25.83 29.82-25.83 15.38 0 27.54 10.68 30.68 25.83h13.79c-3.37-22.93-21.37-39.43-44.47-39.43-22.63 0-40.27 16.5-43.57 39.43z" fill="#808080"/><path d="m178.91 39.43c3-15.33 15.09-25.83 30.3-25.83v-13.6c-22.63 0-40.75 16.5-44.05 39.43z" fill="#808080"/><path d="m285.64 39.43h-152.1a9.64 9.64 0 0 0 -9.64 9.64v68.29a9.65 9.65 0 0 0 9.64 9.64h152.1a9.65 9.65 0 0 0 9.64-9.64v-68.29a9.64 9.64 0 0 0 -9.64-9.64z" fill="#fff" stroke="#e6e6e6" stroke-miterlimit="10" stroke-width="2"/><path d="m209.18 39.43h-76.05a9.64 9.64 0 0 0 -9.64 9.64v68.29a9.65 9.65 0 0 0 9.64 9.64h76.05z" fill="#eee"/><path d="m179.09 85.59a12.75 12.75 0 1 1 -12.75-12.75 12.75 12.75 0 0 1 12.75 12.75z" fill="#fff" stroke="#e6e4e5" stroke-miterlimit="10"/><path d="m266 85.59a12.75 12.75 0 1 1 -12.75-12.75 12.75 12.75 0 0 1 12.75 12.75z" fill="#eee"/><path d="m58.42 297.07c-.76-.22-12.28-24.52-12.28-24.52a2.17 2.17 0 1 1 3.86-1.95s7.54 17.34 8.81 17.59 15.76-25.34 15.76-25.34a2.17 2.17 0 1 1 3.69 2.29s-19.07 32.15-19.84 31.93z" fill="#ff734d"/><path d="m58.42 192.39c-.76-.22-12.28-24.52-12.28-24.52a2.17 2.17 0 1 1 3.88-2s7.54 17.34 8.81 17.59 15.76-25.34 15.76-25.34a2.17 2.17 0 1 1 3.69 2.29s-19.09 32.2-19.86 31.98z" fill="#ff734d"/><path d="m97.28 280.54h263.78" fill="#4f4e53"/><path d="m361.06 283.21h-263.78a2.67 2.67 0 0 1 0-5.33h263.78a2.67 2.67 0 0 1 0 5.33z" fill="#666"/><path d="m97.48 168.19h263.78" fill="#4f4e53"/><path d="m361.26 170.86h-263.78a2.67 2.67 0 0 1 0-5.33h263.78a2.67 2.67 0 1 1 0 5.33z" fill="#666"/><path d="m97.58 222.89h263.77" fill="#4f4e53"/><path d="m361.35 225.55h-263.77a2.67 2.67 0 1 1 0-5.33h263.77a2.67 2.67 0 1 1 0 5.33z" fill="#666"/><path d="m59.16 352.52c-.77-.22-12.29-24.52-12.29-24.52a2.17 2.17 0 0 1 3.89-1.94s7.54 17.34 8.81 17.58 15.76-25.34 15.76-25.34a2.17 2.17 0 1 1 3.67 2.3s-19.08 32.15-19.84 31.92z" fill="#ff734d"/><path d="m98.02 335.99h263.77" fill="#4f4e53"/><path d="m361.79 338.66h-263.79a2.67 2.67 0 1 1 0-5.33h263.79a2.67 2.67 0 1 1 0 5.33z" fill="#666"/><path d="m59.29 408.4c-.77-.22-12.29-24.52-12.29-24.52a2.17 2.17 0 0 1 3.89-1.94s7.54 17.34 8.81 17.58 15.76-25.34 15.76-25.34a2.17 2.17 0 0 1 3.69 2.3s-19.1 32.15-19.86 31.92z" fill="#ff734d"/><path d="m98.15 391.87h263.77" fill="#4f4e53"/><path d="m361.92 394.54h-263.77a2.67 2.67 0 1 1 0-5.33h263.77a2.67 2.67 0 1 1 0 5.33z" fill="#666"/><path d="m449 316.26c5.35 0 9.69-7.71 9.69-17.23 0-9.5-4.34-17.21-9.69-17.21h-60.56c-5.35 0-9.68 7.71-9.68 17.21 0 9.52 4.33 17.23 9.68 17.23z" fill="#ff763f"/><path d="m418.67 281.82h-30.23c-5.35 0-9.68 7.71-9.68 17.21 0 9.52 4.33 17.23 9.68 17.23h30.29z" fill="#ff8f66"/><path d="m480.77 458a29.26 29.26 0 0 1 -29.27 29.27h-66.28a29.27 29.27 0 0 1 -29.22-29.27v-102.07a29.27 29.27 0 0 1 29.27-29.26l33.32-.26 33 .26a29.21 29.21 0 0 1 29.27 29.26z" fill="#e6e4e5"/><path d="m418.54 487.27h-33.14a29.26 29.26 0 0 1 -29.26-29.27v-102.07a29.26 29.26 0 0 1 29.26-29.26l33.33-.26z" fill="#fff"/><path d="m390.58 316.26h55.93v10.41h-55.93z" fill="#e6e4e5"/><path d="m390.58 316.26h28.14v10.41h-28.14z" fill="#fff"/><rect fill="#80cf99" height="104.97" rx=".86" width="96.94" x="370.08" y="352.76"/><path d="m418.7 352.76h-47.76a.86.86 0 0 0 -.86.87v103.24a.85.85 0 0 0 .86.86h47.79z" fill="#fbd673"/><path d="m425.89 374.79a9.75 9.75 0 1 0 -16.89 9.69l8.46 14.77 16.92-9.7z" fill="#ff7857"/><path d="m439.23 417.7a9.77 9.77 0 0 0 3.62-13.31l-8.5-14.84-16.92 9.7 8.5 14.83a9.75 9.75 0 0 0 13.3 3.62z" fill="#fff"/><path d="m409.21 400.14a9.75 9.75 0 0 0 -17.75 8.09l7.06 15.49 17.74-8.08z" fill="#ff7857"/><path d="m418.52 444.11a9.75 9.75 0 0 0 4.83-12.92l-7.09-15.55-17.74 8.08 7.09 15.56a9.75 9.75 0 0 0 12.91 4.83z" fill="#fff"/></svg>