<svg viewBox="0 0 432.4 87.17" xmlns="http://www.w3.org/2000/svg"><g fill="#b7b7b7"><path d="m41 1.35h12.16c.55 2.06.62 3.55-1.5 5-1 .69-1.2 2.92-1.37 4.5-1.21 11.48-2.32 23-3.47 34.45-1.35 13.42-2.72 26.84-4.11 40.45h-11.12l-4.28-36.12h-.57l-4.13 36.13h-11.2c-.61-5.64-1.25-11.33-1.83-17-2-19.82-4-39.66-6.12-59.47-.14-1.29-1.63-2.46-2.25-3.77a29.29 29.29 0 0 1 -1.21-4.05h18.59c-.88 1.78-1.59 3.09-2.17 4.44a6.08 6.08 0 0 0 -.84 2.65c1.47 15.61 3 31.2 4.56 46.8 0 .09.13.18.63.81 1.08-12.74 2.28-25 3.06-37.2.23-3.64-.69-7.36-1.16-11a5.78 5.78 0 0 0 -.81-2c-.72-1.25-1.52-2.46-2.74-4.43h17.88c.36 1.7 1 3.32-1.22 4.61-.67.39-1.08 1.92-1 2.86 1.56 14.51 3.23 29 4.88 43.5 0 .18.22.34.43.63 1.37-14 2.77-27.86 4.05-41.73.21-2.25 1-4.84-2.3-6.06-.57-.3-.49-2.35-.84-4z"/><path d="m83.05 22.5 15.28-1.29.35 5.14c2.37-3.77 5.48-5.3 9.44-5.17s7.37 1.1 8.82 5.86c2.64-4.78 6.52-6.23 11.32-5.79 5.06.47 7.35 2.58 7.51 7.66.22 6.75.14 13.51.16 20.27 0 9.7-.05 19.4.07 29.1 0 1.14 1.12 2.24 1.55 3.42s.66 2.52 1 4.06h-18.36c.81-1.79 1.56-3.2 2.08-4.69a10.15 10.15 0 0 0 .45-3.16q0-22.23 0-44.47c0-1.82.68-4.31-2.48-4.28-3 0-3 2.4-3 4.47-.06 8.5 0 17 0 25.5 0 5-.09 10 0 15 .08 2.79-.88 5.78 1.54 8.28.54.55.08 2.06.08 3.31h-17.65c.91-1.86 1.65-3.19 2.21-4.59a6.87 6.87 0 0 0 .43-2.51q0-23.05 0-46.1c0-1.66.15-3.46-2.33-3.42-2.27 0-3 1.47-3 3.46 0 15.69-.07 31.39.08 47.08 0 1.87 1.24 3.73 2.06 6h-18c1.06-1.87 1.9-3.2 2.57-4.6a6.9 6.9 0 0 0 .77-2.64c0-16 .07-32.05 0-48.07 0-1.19-1.14-2.35-1.6-3.58s-.85-2.5-1.35-4.25z"/><path d="m283.63 5.44c-3.59-.29-3.89 1.7-3.89 4.33q.11 33.67 0 67.35c0 2.62 0 5 3.7 4.65v4h-20.4v-3.77c3.33-.15 3.71-2.31 3.68-5.15-.12-10.66-.05-21.32-.05-32.22h-10.73c-.09.89-.25 1.72-.25 2.55v29.75c0 2.62.29 4.88 3.7 5v3.87h-20.47v-3.9c3.88.24 3.92-2.33 3.91-5.17 0-21.9 0-43.81-.07-65.71 0-2.52 1-6.06-3.9-5.49v-4.14h20.47v4c-3.43-.2-3.67 2.23-3.66 4.9v28.91h11v-12.4c0-5.67 0-11.33 0-17 0-2.48.08-4.92-3.67-4.22v-4.12h20.42c.09 1.2.14 2.34.21 3.98z"/><path d="m412.68 85.82h-17.18c1-1.89 1.76-3.24 2.36-4.67a6.51 6.51 0 0 0 .45-2.52q0-34.83.05-69.66c0-2.17-.39-3.7-2.92-3.54-.73-4.17-.67-4.25 3.15-4.51 4-.28 8-.58 12.34-.9v25.43c3.35-3.71 7.38-4.62 11.89-4.16s6.43 2.29 7.18 6.71a24.85 24.85 0 0 1 .27 4.23v44.15c0 2-.76 4.3 1.73 5.82.59.35.25 2.22.34 3.6h-18c.77-1.77 1.45-3.14 2-4.57a8.72 8.72 0 0 0 .51-2.81q0-22.57 0-45.14c0-1.72.55-4-2.37-4.1s-3.37 1.94-3.41 4.13c-.07 5.52-.07 11.08-.07 16.69 0 8-.07 15.92 0 23.88 0 3-.88 6.2 1.59 8.89.5.48.09 1.83.09 3.05z"/><path d="m188 85.81h-17.18c-.09-1.78-1.08-3.53 1.42-4.66.57-.25.84-1.7.84-2.6 0-16.13.08-32.27-.06-48.4 0-1.15-1.42-2.26-2.06-3.45s-1.12-2.39-1.93-4.16l16.31-1.33c.12 1.74.22 3.32.38 5.76 2.51-5.11 6.49-6.07 11.06-5.7 5.2.41 7.47 2.61 7.77 7.8.17 2.83.09 5.67.09 8.5 0 13.19-.06 26.38.08 39.57 0 1.57 1.26 3.1 1.77 4.7a34.86 34.86 0 0 1 .74 3.9h-18.33c.82-1.74 1.56-3.11 2.11-4.57a8.18 8.18 0 0 0 .52-2.81q0-22.57 0-45.13c0-1.73.47-4-2.43-4.09s-3.41 1.86-3.42 4.13c0 15.37-.16 30.74 0 46.11 0 1.96 1.38 3.9 2.32 6.43z"/><path d="m346.14 80.2c.25-2.12.51-4.23.79-6.57h3c1.16 6.29-.74 11.33-4.71 12.62-5.48 1.77-9.91.07-12.08-4.47-1.47 1.32-2.78 3.07-4.53 3.94-5.6 2.8-11.25.37-12.87-5.71a49.27 49.27 0 0 1 .05-24.57c1.29-5.23 5.57-7.51 10.13-9.35 5.86-2.35 5.86-2.35 5.86-8.59 0-1.74 0-3.49 0-5.23-.11-6.22-1.36-7.13-7.67-5.56a43.94 43.94 0 0 1 3.08 5.61c1.27 3.35 0 6.18-3 7.18-3.38 1.15-5.87-.13-7.14-3.67-2.28-6.34.24-11.93 6.78-13.44a38.8 38.8 0 0 1 12.22-.59c4.79.46 7.24 3.39 7.89 8.19a56.71 56.71 0 0 1 .48 7.48c.05 13.08 0 26.16 0 39.23 0 1.13.14 2.25.21 3.37zm-14.34-32.31c-3.13 1-4.48 3.07-4.57 5.49-.27 7.69-.31 15.4-.2 23.1 0 .86 1.51 1.69 2.33 2.53a10.53 10.53 0 0 0 2.17-2.65 10.11 10.11 0 0 0 .26-3.54c0-6.42 0-12.84 0-19.25z"/><path d="m49.75 52.82c.69-6 1.09-13.24 2.44-20.26 1.49-7.69 6.15-11.19 13.43-11.34 7.58-.16 12.66 3 14 10.87 1.52 8.61 1.84 17.5 2 26.28a75.87 75.87 0 0 1 -1.62 16.85c-1.92 9.21-9.07 13.21-18.23 11-4.72-1.15-7.47-4.25-9-8.63a20.67 20.67 0 0 1 -1.27-4.71c-.64-6.3-1.12-12.59-1.75-20.06zm13.48.93h-.15c0 5.23-.07 10.45 0 15.67a73.91 73.91 0 0 0 .7 9.4c.13.88 1.4 1.59 2.15 2.38a13.84 13.84 0 0 0 2.41-2.57 6.22 6.22 0 0 0 .41-2.88c0-14.57.07-29.14-.08-43.7 0-2 .59-5.41-2.73-5.3-3.09.11-2.62 3.37-2.67 5.47-.14 7.18-.04 14.36-.04 21.53z"/><path d="m164.48 65.79h4c.23 5.17.52 10.38-1.45 15.34a8.63 8.63 0 0 1 -3 3.76c-7.39 5-19.06 1.34-21.62-7.16a67.19 67.19 0 0 1 -2.4-15.09c-.62-9.8-.58-19.62 1.69-29.27 2.08-8.87 7.09-12.72 15.51-12.1 5.24.39 8.75 2.56 9.72 7.66 1.44 7.52 2 15.22 2.93 23.29h-17.25v18.84a38.13 38.13 0 0 0 .49 5.53c.46 2.9 2.15 4.3 5.2 4.25 3.85-.06 5.07-1 5.53-4.86.21-1.73.12-3.48.22-5.22s.29-3.24.43-4.97zm-6.48-18.31c0-6.31.08-12.46-.1-18.6a2.2 2.2 0 0 0 -4.4-.16c-.55 6.19-.84 12.4-1.22 18.76z"/><path d="m307.1 65.81h5.28c-.55 5.08-.86 10-1.71 14.89-.52 3-2.8 4.91-5.89 5.43-12.12 2-17.82-1.32-19.69-12.13-2.4-13.84-2.59-27.79.65-41.54 2.07-8.78 7.92-12.37 16.46-11.07 4.58.7 7.61 3.2 8.9 7.55a44.51 44.51 0 0 1 1.69 8.63c.42 4.74.48 9.51.72 14.68h-17.74c.43 8.46.7 16.69 1.34 24.89.23 3.09 2.76 3.72 5.57 3.71s4.23-1.66 4.37-4.21c.2-3.55.05-7.13.05-10.83zm-5.5-18.31c0-6.46.08-12.53-.09-18.59 0-.81-1.35-2.25-2-2.22a3.19 3.19 0 0 0 -2.37 2c-.56 6.22-.85 12.47-1.23 18.8z"/><path d="m351.15 5.63v-4.41l16-1.22v4.29q0 36.45 0 72.9c0 1.84-.61 3.93 2.14 4.8.59.19.59 2.24.93 3.73h-18.17c.7-1.68 1.34-3 1.84-4.47a7.46 7.46 0 0 0 .47-2.47q0-35 0-70c.05-2.17-.36-3.78-3.21-3.15z"/><path d="m216.87 84.13-5.58 2.66v-20.35h4.71c.46 3.47.75 6.83 1.38 10.12.72 3.75 2.57 5 5.85 4.64 3.61-.41 4.19-3.12 3.75-5.74a37.61 37.61 0 0 0 -3-10.53c-2.59-5.26-6-10.12-8.86-15.24s-4.66-10.57-4.31-16.54c.6-10.1 10.82-15.38 19.52-10.1.65.39 1.26.83 1.26.82l5.55-2.87v16.74c0 .85-.11 1.69-.18 2.71h-4.57c-.38-3-.67-6-1.18-9-.38-2.16-.92-4.28-3.7-4.75-3.42-.58-5.68.75-5.34 4.17a33.81 33.81 0 0 0 2.78 10.88c2.26 4.81 5.47 9.16 8.1 13.8 3.65 6.45 6.31 13.27 5.12 20.85-1.52 9.76-12.58 13.71-20.27 7.42-.32-.26-.67-.49-1-.74z"/><path d="m373.25 26.85-2.92-.64v-4c10-1.24 8.48-10.25 11.46-16.45h4v15.9h7.6v4.75h-7.39c-.08 1.43-.18 2.48-.18 3.52q0 23.21 0 46.42a2.62 2.62 0 0 0 0 1c.5 1.14 1.08 2.26 1.63 3.39.58-1.08 1.59-2.14 1.65-3.25.2-3.88.08-7.78.08-11.88h4.66c-.24 5.25-.4 10.43-.77 15.58a5.49 5.49 0 0 1 -1.4 3.22c-3.3 3.3-7.46 2.4-11.41 1.89a6.79 6.79 0 0 1 -6.26-5.8 38.77 38.77 0 0 1 -.67-6.79c-.06-14.38 0-28.77 0-43.15z"/><path d="m208.7 24.65-3.11-3c2.56-2.24 4.83-4.24 7.2-6.33a50.7 50.7 0 0 1 -4.79-3.85c-2.49-2.6-2.51-5.79-.27-8.2s5.49-2.5 8.27-.37c3.7 2.8 4.51 7.62 2 12a14.12 14.12 0 0 1 -2.09 2.92c-2.24 2.23-4.58 4.35-7.21 6.83z"/></g></svg>